<svg width="189" height="46" viewBox="0 0 189 46" fill="none" xmlns="http://www.w3.org/2000/svg">
<path fill-rule="evenodd" clip-rule="evenodd" d="M44.4096 22.9997C44.4096 35.2631 34.4682 45.2046 22.2048 45.2046C9.94144 45.2046 0 35.2631 0 22.9997C0 10.7364 9.94144 0.794922 22.2048 0.794922C34.4682 0.794922 44.4096 10.7364 44.4096 22.9997ZM33.3072 22.9997C33.3072 29.1314 28.3365 34.1022 22.2048 34.1022C16.0731 34.1022 11.1024 29.1314 11.1024 22.9997C11.1024 16.8681 16.0731 11.8973 22.2048 11.8973C28.3365 11.8973 33.3072 16.8681 33.3072 22.9997ZM22.2048 30.4014C26.2926 30.4014 29.6064 27.0875 29.6064 22.9997C29.6064 18.912 26.2926 15.5981 22.2048 15.5981C18.117 15.5981 14.8032 18.912 14.8032 22.9997C14.8032 27.0875 18.117 30.4014 22.2048 30.4014Z" fill="white"/>
<path d="M62.9285 11.7985C64.5371 11.7985 65.9681 12.1242 67.2214 12.7755C68.4846 13.417 69.5011 14.2953 70.2709 15.4105C71.0505 16.5256 71.5094 17.7839 71.6476 19.1853H67.1178C66.9796 18.4451 66.728 17.7889 66.3628 17.2165C65.9977 16.6342 65.5191 16.1802 64.9269 15.8546C64.3348 15.519 63.6242 15.3513 62.7953 15.3513C61.7985 15.3513 60.9399 15.593 60.2195 16.0766C59.4991 16.5602 58.9464 17.3398 58.5615 18.4155C58.1767 19.4912 57.9842 20.9123 57.9842 22.6788C57.9842 25.3434 58.4086 27.2728 59.2573 28.4669C60.1159 29.6512 61.2952 30.2433 62.7953 30.2433C63.6242 30.2433 64.3348 30.0558 64.9269 29.6808C65.5191 29.2959 65.9977 28.7926 66.3628 28.1708C66.728 27.5392 66.9796 26.8484 67.1178 26.0984H71.6476C71.5193 27.1149 71.2726 28.087 70.9074 29.0146C70.5423 29.9324 70.0242 30.7515 69.3531 31.472C68.682 32.1924 67.8185 32.7598 66.7625 33.1743C65.7066 33.5888 64.4286 33.7961 62.9285 33.7961C60.935 33.7961 59.2129 33.3322 57.7622 32.4046C56.3115 31.4769 55.1913 30.1742 54.4018 28.4965C53.6222 26.8188 53.2324 24.8599 53.2324 22.6196C53.2324 20.3695 53.6222 18.4402 54.4018 16.8316C55.1815 15.2131 56.2967 13.9696 57.7474 13.1012C59.1981 12.2327 60.9251 11.7985 62.9285 11.7985ZM79.2053 33.7665C78.0803 33.7665 77.1872 33.6332 76.5259 33.3668C75.8647 33.1003 75.3762 32.75 75.0604 32.3157C74.7446 31.8716 74.5423 31.3831 74.4535 30.8502C74.3647 30.3074 74.3203 29.7597 74.3203 29.2071V11.5024H78.554V28.6742C78.554 29.2367 78.6724 29.6956 78.9093 30.0509C79.156 30.3963 79.6149 30.6084 80.286 30.6874L81.0113 30.7318V33.3964C80.7153 33.4951 80.4143 33.579 80.1083 33.648C79.8024 33.727 79.5014 33.7665 79.2053 33.7665ZM87.6524 33.7961C86.6754 33.7961 85.7971 33.6135 85.0174 33.2483C84.2378 32.8832 83.621 32.3552 83.167 31.6644C82.7131 30.9637 82.4861 30.115 82.4861 29.1182C82.4861 27.4406 83.1128 26.1675 84.3661 25.299C85.6194 24.4207 87.5981 23.9667 90.3022 23.9371L92.2118 23.9075V22.9897C92.2118 22.289 92.0046 21.7512 91.5901 21.3762C91.1854 20.9913 90.5538 20.8038 89.6953 20.8136C89.0636 20.8235 88.4617 20.9715 87.8893 21.2577C87.3267 21.5439 86.9419 22.0423 86.7346 22.7529H83.1374C83.1966 21.6476 83.5174 20.7396 84.0996 20.0291C84.6819 19.3086 85.4714 18.7757 86.4682 18.4303C87.4748 18.075 88.6146 17.8974 89.8877 17.8974C91.4568 17.8974 92.7151 18.0948 93.6625 18.4895C94.6099 18.8744 95.2958 19.432 95.7202 20.1623C96.1445 20.8827 96.3567 21.7413 96.3567 22.7381V33.5H92.7447L92.3894 30.865C91.8664 31.9703 91.2101 32.7352 90.4206 33.1595C89.641 33.5839 88.7182 33.7961 87.6524 33.7961ZM89.1031 30.9538C89.4979 30.9538 89.8778 30.8848 90.243 30.7466C90.618 30.5986 90.9486 30.4061 91.2348 30.1693C91.5309 29.9226 91.7677 29.6462 91.9453 29.3403C92.123 29.0344 92.2118 28.7186 92.2118 28.3929V26.128L90.6575 26.1576C89.937 26.1675 89.266 26.2563 88.6442 26.4241C88.0225 26.582 87.5192 26.8435 87.1343 27.2086C86.7593 27.5738 86.5718 28.0672 86.5718 28.689C86.5718 29.3995 86.8185 29.9571 87.3119 30.3617C87.8054 30.7565 88.4024 30.9538 89.1031 30.9538ZM105.472 33.7961C104.406 33.7961 103.38 33.6234 102.393 33.278C101.406 32.9227 100.572 32.37 99.8912 31.62C99.2103 30.8601 98.776 29.8781 98.5885 28.6742H102.334C102.462 29.2169 102.694 29.6462 103.029 29.962C103.375 30.2778 103.765 30.5048 104.199 30.643C104.633 30.7713 105.048 30.8354 105.442 30.8354C106.271 30.8354 106.938 30.7071 107.441 30.4505C107.954 30.1841 108.211 29.7795 108.211 29.2367C108.211 28.8222 108.058 28.4916 107.752 28.2449C107.456 27.9981 106.962 27.8106 106.271 27.6823L103.577 27.1198C102.225 26.8336 101.14 26.35 100.32 25.6691C99.5014 24.9783 99.082 24.0013 99.0622 22.7381C99.0622 21.8203 99.304 20.9962 99.7876 20.2659C100.281 19.5356 101.006 18.9583 101.964 18.5339C102.921 18.1096 104.095 17.8974 105.487 17.8974C107.372 17.8974 108.877 18.3119 110.002 19.1409C111.137 19.9699 111.714 21.1393 111.734 22.6492H108.122C108.013 22.0571 107.717 21.6031 107.234 21.2873C106.76 20.9617 106.163 20.7988 105.442 20.7988C104.692 20.7988 104.076 20.9321 103.592 21.1985C103.108 21.465 102.867 21.8696 102.867 22.4124C102.867 22.817 103.064 23.1377 103.459 23.3746C103.854 23.6016 104.465 23.799 105.294 23.9667L107.781 24.5293C108.64 24.7365 109.336 25.0227 109.869 25.3878C110.411 25.7431 110.831 26.1329 111.127 26.5573C111.423 26.9817 111.625 27.4109 111.734 27.8452C111.852 28.2695 111.911 28.6544 111.911 28.9998C111.911 30.0163 111.64 30.8848 111.097 31.6052C110.554 32.3157 109.799 32.8585 108.832 33.2335C107.865 33.6086 106.745 33.7961 105.472 33.7961ZM120.232 33.7961C119.167 33.7961 118.14 33.6234 117.153 33.278C116.166 32.9227 115.333 32.37 114.652 31.62C113.971 30.8601 113.536 29.8781 113.349 28.6742H117.094C117.222 29.2169 117.454 29.6462 117.79 29.962C118.135 30.2778 118.525 30.5048 118.959 30.643C119.394 30.7713 119.808 30.8354 120.203 30.8354C121.032 30.8354 121.698 30.7071 122.201 30.4505C122.714 30.1841 122.971 29.7795 122.971 29.2367C122.971 28.8222 122.818 28.4916 122.512 28.2449C122.216 27.9981 121.723 27.8106 121.032 27.6823L118.338 27.1198C116.986 26.8336 115.9 26.35 115.081 25.6691C114.262 24.9783 113.842 24.0013 113.823 22.7381C113.823 21.8203 114.064 20.9962 114.548 20.2659C115.041 19.5356 115.767 18.9583 116.724 18.5339C117.681 18.1096 118.856 17.8974 120.247 17.8974C122.132 17.8974 123.637 18.3119 124.762 19.1409C125.897 19.9699 126.474 21.1393 126.494 22.6492H122.882C122.774 22.0571 122.478 21.6031 121.994 21.2873C121.52 20.9617 120.923 20.7988 120.203 20.7988C119.453 20.7988 118.836 20.9321 118.352 21.1985C117.869 21.465 117.627 21.8696 117.627 22.4124C117.627 22.817 117.824 23.1377 118.219 23.3746C118.614 23.6016 119.226 23.799 120.055 23.9667L122.542 24.5293C123.4 24.7365 124.096 25.0227 124.629 25.3878C125.172 25.7431 125.591 26.1329 125.887 26.5573C126.183 26.9817 126.386 27.4109 126.494 27.8452C126.613 28.2695 126.672 28.6544 126.672 28.9998C126.672 30.0163 126.4 30.8848 125.858 31.6052C125.315 32.3157 124.56 32.8585 123.593 33.2335C122.626 33.6086 121.506 33.7961 120.232 33.7961ZM133.464 18.1935V33.5H129.334V18.1935H133.464ZM133.508 12.1094V16.0026H129.304V12.1094H133.508ZM146.13 18.1935V21.1985H142.902V33.5H138.58V21.1985H135.752V18.1935H138.58V15.9878C138.58 14.7542 138.94 13.7969 139.661 13.116C140.391 12.435 141.422 12.0945 142.754 12.0945H146.263L146.278 14.9664H144.264C143.712 14.9664 143.332 15.1045 143.124 15.3809C142.927 15.6473 142.828 16.0914 142.828 16.7132V18.1935H146.13ZM153.013 18.1935V33.5H148.883V18.1935H153.013ZM153.057 12.1094V16.0026H148.853V12.1094H153.057ZM159.901 26.8386C159.891 27.6182 160.015 28.2991 160.271 28.8814C160.528 29.4538 160.898 29.8979 161.382 30.2137C161.875 30.5196 162.467 30.6726 163.158 30.6726C163.898 30.6726 164.545 30.5147 165.097 30.1989C165.66 29.8831 166.05 29.365 166.267 28.6445H170.16C169.992 29.7301 169.558 30.6578 168.857 31.4275C168.166 32.1973 167.328 32.7845 166.341 33.1891C165.354 33.5938 164.328 33.7961 163.262 33.7961C161.752 33.7961 160.419 33.4803 159.265 32.8487C158.12 32.2072 157.227 31.3042 156.585 30.1397C155.944 28.9751 155.623 27.6034 155.623 26.0244C155.623 24.4947 155.914 23.118 156.497 21.8943C157.079 20.6607 157.923 19.6886 159.028 18.978C160.143 18.2576 161.48 17.8974 163.04 17.8974C164.599 17.8974 165.907 18.228 166.962 18.8892C168.028 19.5406 168.828 20.4534 169.361 21.6278C169.903 22.7923 170.175 24.1394 170.175 25.6691V26.8386H159.901ZM159.887 24.2628H166.134C166.134 23.6509 166.02 23.0884 165.793 22.5752C165.566 22.062 165.221 21.6574 164.757 21.3614C164.303 21.0653 163.73 20.9173 163.04 20.9173C162.369 20.9173 161.796 21.0801 161.322 21.4058C160.859 21.7216 160.503 22.1361 160.257 22.6492C160.01 23.1624 159.887 23.7003 159.887 24.2628ZM178.268 33.7961C176.215 33.7961 174.617 33.0904 173.472 31.6792C172.327 30.2581 171.755 28.2843 171.755 25.7579C171.755 24.1592 171.986 22.7726 172.45 21.5982C172.914 20.4238 173.6 19.5159 174.508 18.8744C175.416 18.2231 176.526 17.8974 177.839 17.8974C178.391 17.8974 178.905 17.9616 179.378 18.0899C179.862 18.2083 180.301 18.376 180.696 18.5932C181.09 18.8103 181.436 19.0619 181.732 19.3481C182.028 19.6343 182.27 19.9403 182.457 20.2659V11.5024H186.795V33.5H183.656L183.168 30.3617C183.03 30.7861 182.837 31.2006 182.591 31.6052C182.344 32.0098 182.028 32.3799 181.643 32.7154C181.258 33.0411 180.785 33.3026 180.222 33.5C179.669 33.6974 179.018 33.7961 178.268 33.7961ZM179.215 30.6874C180.301 30.6874 181.11 30.3074 181.643 29.5475C182.186 28.7876 182.457 27.5047 182.457 25.6987C182.447 24.6526 182.324 23.7842 182.087 23.0933C181.85 22.4025 181.495 21.8893 181.021 21.5538C180.558 21.2084 179.965 21.0357 179.245 21.0357C178.307 21.0357 177.528 21.3959 176.906 22.1163C176.284 22.8269 175.973 24.021 175.973 25.6987C175.973 27.406 176.265 28.6643 176.847 29.4735C177.429 30.2828 178.219 30.6874 179.215 30.6874Z" fill="white"/>
</svg>
