<svg width="56" height="56" viewBox="0 0 56 56" fill="none" xmlns="http://www.w3.org/2000/svg">
<rect x="2.43478" y="2.43478" width="51.1304" height="51.1304" rx="25.5652" fill="#CFE7DC"/>
<rect x="2.43478" y="2.43478" width="51.1304" height="51.1304" rx="25.5652" stroke="#E7F4EE" stroke-width="4.86957"/>
<g clip-path="url(#clip0_2375_15666)">
<path d="M29.9523 32.358C29.8083 32.2617 29.6208 32.2617 29.4768 32.358L28.8574 32.7711V29.7148H30.5717V32.7711L29.9523 32.358Z" fill="#46B782"/>
<path d="M23.7148 29.7148H28.0006V33.5717C28.0006 33.7299 28.0876 33.8752 28.227 33.9497C28.2902 33.9836 28.3597 34.0003 28.4291 34.0003C28.5124 34.0003 28.5953 33.976 28.6669 33.9283L29.7148 33.2298L30.7628 33.9283C30.8943 34.0162 31.0638 34.0246 31.2027 33.9497C31.3421 33.8752 31.4291 33.7299 31.4291 33.5717V29.7148H35.7148V40.0006H24.572C24.0986 40.0006 23.7148 39.6168 23.7148 39.1434V29.7148Z" fill="#46B782"/>
<path d="M21.5714 16C18.4997 16 16 18.4993 16 21.5714C16 24.6436 18.4997 27.1429 21.5714 27.1429C24.6432 27.1429 27.1429 24.6436 27.1429 21.5714C27.1429 18.4993 24.6432 16 21.5714 16ZM24.4459 20.1602L21.0173 23.5887C20.9336 23.6724 20.8239 23.7143 20.7143 23.7143C20.6046 23.7143 20.495 23.6724 20.4113 23.5887L18.697 21.8744C18.5296 21.707 18.5296 21.4358 18.697 21.2684C18.8644 21.101 19.1356 21.101 19.303 21.2684L20.7143 22.6797L23.8398 19.5541C24.0073 19.3867 24.2785 19.3867 24.4459 19.5541C24.6133 19.7215 24.6133 19.9927 24.4459 20.1602Z" fill="#46B782"/>
<path d="M36.5723 29.4559L40.0008 26.0273V35.958C40.0008 36.1853 39.9105 36.4034 39.7498 36.5641L36.5723 39.7416V29.4559Z" fill="#46B782"/>
<path d="M27.7563 25.4277C27.5289 25.4277 27.3109 25.518 27.1502 25.6788L23.9727 28.8563H28.0012L31.4298 25.4277H27.7563Z" fill="#46B782"/>
<path d="M32.286 25.4277L28.8574 28.8563H30.5717L34.0003 25.4277H32.286Z" fill="#46B782"/>
<path d="M34.8563 25.4277L31.4277 28.8563H35.9706L39.3992 25.4277H34.8563Z" fill="#46B782"/>
</g>
<defs>
<clipPath id="clip0_2375_15666">
<rect width="24" height="24" fill="white" transform="translate(16 16)"/>
</clipPath>
</defs>
</svg>
