<svg width="56" height="56" viewBox="0 0 56 56" fill="none" xmlns="http://www.w3.org/2000/svg">
<rect x="2.8" y="2.8" width="50.4" height="50.4" rx="25.2" fill="#F6E6CD"/>
<rect x="2.8" y="2.8" width="50.4" height="50.4" rx="25.2" stroke="#FDF5E9" stroke-width="5.6"/>
<path d="M16 31.8878L17.986 33.8738C19.0828 32.777 20.8612 32.777 21.9579 33.8738C23.0548 34.9707 23.0548 36.749 21.9579 37.8458L23.9439 39.8318L35.0654 28.7103L27.1215 20.7664L16 31.8878ZM27.9159 19.972L35.8598 27.9159L39.8318 23.9439L37.8458 21.9579C36.749 23.0548 34.9707 23.0548 33.8738 21.9579C32.777 20.8611 32.777 19.0828 33.8738 17.986L31.8878 16L27.9159 19.972ZM23.7453 26.5257L26.3395 27.6304L28.4993 25.7189L28.1952 28.5551L30.628 29.9701L27.8414 30.6218L27.1898 33.4083L25.7747 30.9755L22.9385 31.2796L24.85 29.1199L23.7453 26.5257Z" fill="#F49300"/>
</svg>
