<svg width="56" height="56" viewBox="0 0 56 56" fill="none" xmlns="http://www.w3.org/2000/svg">
<rect x="2.8" y="2.8" width="50.4" height="50.4" rx="25.2" fill="#EBD9F7"/>
<rect x="2.8" y="2.8" width="50.4" height="50.4" rx="25.2" stroke="#F5ECFB" stroke-width="5.6"/>
<path d="M23.6019 17C24.762 17.0104 25.8711 17.4785 26.6878 18.3025C27.5045 19.1265 27.9627 20.2398 27.9627 21.3999C27.9627 22.5601 27.5045 23.6734 26.6879 24.4974C25.8712 25.3215 24.7621 25.7896 23.6019 25.8C22.4418 25.7896 21.3327 25.3215 20.516 24.4975C19.6993 23.6735 19.2411 22.5602 19.2411 21.4C19.2411 20.2399 19.6993 19.1266 20.5159 18.3026C21.3326 17.4785 22.4417 17.0104 23.6019 17ZM25.8019 32.95C25.7999 31.8307 26.063 30.7269 26.5697 29.7288C27.0764 28.7308 27.8122 27.8669 28.7169 27.208C28.3264 27.0045 27.8923 26.8988 27.4519 26.9H19.752C19.0227 26.9003 18.3234 27.1901 17.8077 27.7057C17.292 28.2214 17.0022 28.9207 17.002 29.65V36.25C17.0022 36.9793 17.292 37.6786 17.8077 38.1942C18.3234 38.7099 19.0227 38.9997 19.752 39H27.4519C27.8923 39.0012 28.3264 38.8955 28.7169 38.692C27.8122 38.033 27.0764 37.1692 26.5697 36.1712C26.063 35.1731 25.7999 34.0693 25.8019 32.95ZM32.9519 25.8C33.8207 25.7902 34.6506 25.4382 35.2615 24.8204C35.8724 24.2026 36.215 23.3688 36.215 22.4999C36.2149 21.6311 35.8723 20.7973 35.2614 20.1795C34.6505 19.5617 33.8206 19.2098 32.9518 19.2C32.0831 19.2098 31.2532 19.5618 30.6423 20.1796C30.0314 20.7974 29.6888 21.6312 29.6888 22.5C29.6888 23.3689 30.0315 24.2027 30.6424 24.8205C31.2533 25.4383 32.0832 25.7902 32.9519 25.8ZM32.9521 39C24.9622 38.7459 24.9592 27.1556 32.9519 26.9C40.9451 27.1571 40.9459 38.742 32.9521 39ZM35.3499 30.871L31.8849 33.841L30.6199 32.356C30.1583 31.8215 29.3083 32.533 29.7839 33.071C30.067 33.3977 31.1146 34.6209 31.4119 34.974C31.5072 35.0827 31.6415 35.1494 31.7856 35.1597C31.9298 35.17 32.0722 35.123 32.1819 35.029L36.0649 31.707C36.6075 31.2529 35.8864 30.3926 35.3499 30.871Z" fill="#9833DB"/>
</svg>
