<svg width="56" height="56" viewBox="0 0 56 56" fill="none" xmlns="http://www.w3.org/2000/svg">
<rect x="2.8" y="2.8" width="50.4" height="50.4" rx="25.2" fill="#DBEFF6"/>
<rect x="2.8" y="2.8" width="50.4" height="50.4" rx="25.2" stroke="#ECF7FB" stroke-width="5.6"/>
<path d="M28 17C21.9249 17 17 21.9249 17 28C17 34.0751 21.9249 39 28 39C34.0751 39 39 34.0751 39 28C39 21.9249 34.0751 17 28 17ZM35.5759 23.7499L28.3313 30.9944C28.0466 31.2791 27.5659 31.2632 27.3006 30.9605L24.2394 27.4681L25.3019 26.5368L27.8657 29.4618L34.5768 22.7508L35.5759 23.7499ZM28 35.6697C23.7709 35.6697 20.3303 32.2291 20.3303 28C20.3303 23.7709 23.7709 20.3303 28 20.3303C29.7679 20.3303 31.4944 20.9487 32.8615 22.0717L31.9647 23.1634C30.8497 22.2475 29.4416 21.7431 28 21.7431C24.5499 21.7431 21.7431 24.5499 21.7431 28C21.7431 31.4501 24.5499 34.2569 28 34.2569C31.4501 34.2569 34.2569 31.4501 34.2569 28C34.2569 27.5098 34.1998 27.0216 34.0871 26.549L35.4615 26.2215C35.5996 26.8013 35.6697 27.3997 35.6697 28C35.6697 32.2291 32.2291 35.6697 28 35.6697Z" fill="#05BBFF"/>
</svg>
