<svg width="56" height="56" viewBox="0 0 56 56" fill="none" xmlns="http://www.w3.org/2000/svg">
<rect x="2.8" y="2.8" width="50.4" height="50.4" rx="25.2" fill="#D8E5FA"/>
<rect x="2.8" y="2.8" width="50.4" height="50.4" rx="25.2" stroke="#EDF3FD" stroke-width="5.6"/>
<path d="M27.9491 30.54C31.3802 30.5401 34.3094 31.084 34.3094 33.2607C34.3091 35.4362 31.3988 36 27.9491 36C24.5179 36 21.5878 35.4561 21.5877 33.2803C21.5877 31.1035 24.4991 30.54 27.9491 30.54ZM22.5653 29.2295C22.585 29.2322 22.5947 29.2468 22.5965 29.2549C22.599 29.2683 22.5938 29.2875 22.5692 29.3018C21.9621 29.6035 19.6184 30.9161 19.9129 33.6826C19.9255 33.8033 19.8308 33.9058 19.7118 33.8887C19.1351 33.8058 17.6515 33.4851 17.1912 32.4863C16.9363 31.9578 16.9362 31.3459 17.1912 30.8174C17.4921 30.1735 18.2172 29.7297 19.3211 29.5117C19.8431 29.3847 21.2527 29.2052 22.5653 29.2295ZM33.4354 29.2285C34.7467 29.2043 36.1562 29.3848 36.6776 29.5127C37.7816 29.7297 38.5085 30.1725 38.8094 30.8164C39.0637 31.345 39.0636 31.9586 38.8094 32.4863C38.3493 33.4849 36.8658 33.8057 36.2889 33.8887C36.1699 33.9067 36.0735 33.8032 36.0858 33.6836C36.3803 30.9162 34.0378 29.6035 33.4315 29.3018C33.4055 29.2882 33.4005 29.2675 33.4032 29.2549C33.4051 29.2459 33.4158 29.2312 33.4354 29.2285ZM27.9491 20C30.2849 20.0001 32.1578 21.8821 32.158 24.2324C32.158 26.582 30.2851 28.4667 27.9491 28.4668C25.6129 28.4668 23.7391 26.5821 23.7391 24.2324C23.7393 21.882 25.6131 20 27.9491 20ZM22.3358 20.7061C22.581 20.7061 22.8156 20.7315 23.0448 20.7783C23.0752 20.7855 23.1099 20.8011 23.1278 20.8281C23.1483 20.8623 23.1326 20.9088 23.1112 20.9385C22.4334 21.894 22.0428 23.0596 22.0428 24.3096C22.0429 25.5072 22.4005 26.6233 23.0272 27.5508C23.0913 27.6462 23.0342 27.775 22.9207 27.7949C22.7633 27.8228 22.602 27.8373 22.4373 27.8418C20.7943 27.885 19.3194 26.8209 18.9119 25.2197C18.3075 22.8412 20.0794 20.7061 22.3358 20.7061ZM33.6629 20.7061C35.9193 20.7061 37.6912 22.8412 37.0877 25.2197C36.6803 26.8208 35.2062 27.8849 33.5633 27.8418C33.3987 27.8373 33.2364 27.8219 33.0799 27.7949C32.9663 27.7751 32.9084 27.6462 32.9725 27.5508C33.5992 26.6232 33.9568 25.5072 33.9569 24.3096C33.9569 23.0596 33.5663 21.894 32.8885 20.9385C32.867 20.9088 32.8514 20.8623 32.8729 20.8281C32.8908 20.8005 32.9237 20.7865 32.9549 20.7793C33.1831 20.7325 33.4177 20.7061 33.6629 20.7061Z" fill="#69A4FC"/>
</svg>
