<svg width="56" height="56" viewBox="0 0 56 56" fill="none" xmlns="http://www.w3.org/2000/svg">
<rect x="2.43478" y="2.43478" width="51.1304" height="51.1304" rx="25.5652" fill="#CFE7DC"/>
<rect x="2.43478" y="2.43478" width="51.1304" height="51.1304" rx="25.5652" stroke="#E7F4EE" stroke-width="4.86957"/>
<path d="M23.9199 29.4697C25.3298 29.4697 26.4597 30.6105 26.46 32.0303V35.4395C26.46 36.8495 25.3299 38 23.9199 38H20.54C19.14 38 18 36.8495 18 35.4395V32.0303C18.0002 30.6105 19.1402 29.4697 20.54 29.4697H23.9199ZM35.46 29.4697C36.8598 29.4697 37.9998 30.6105 38 32.0303V35.4395C38 36.8495 36.86 38 35.46 38H32.0801C30.6701 38 29.54 36.8494 29.54 35.4395V32.0303C29.5403 30.6105 30.6702 29.4697 32.0801 29.4697H35.46ZM23.9199 18C25.3298 18 26.4597 19.1498 26.46 20.5605V23.9697C26.46 25.3897 25.3299 26.5303 23.9199 26.5303H20.54C19.14 26.5303 18 25.3897 18 23.9697V20.5605C18.0002 19.1498 19.1402 18 20.54 18H23.9199ZM35.46 18C36.8598 18 37.9998 19.1498 38 20.5605V23.9697C38 25.3897 36.86 26.5303 35.46 26.5303H32.0801C30.6701 26.5303 29.54 25.3897 29.54 23.9697V20.5605C29.5403 19.1498 30.6702 18 32.0801 18H35.46Z" fill="#46B782"/>
</svg>
