<svg width="56" height="56" viewBox="0 0 56 56" fill="none" xmlns="http://www.w3.org/2000/svg">
<rect x="2.43478" y="2.43478" width="51.1304" height="51.1304" rx="25.5652" fill="#DBEFF6"/>
<rect x="2.43478" y="2.43478" width="51.1304" height="51.1304" rx="25.5652" stroke="#ECF7FB" stroke-width="4.86957"/>
<path d="M28.5114 17C22.713 17 18.001 21.7211 18.001 27.5193C18.001 29.0843 18.3542 30.6395 19.0141 32.0324L18.0188 36.9533C17.9555 37.2521 18.0554 37.5597 18.2632 37.7764C18.4353 37.9485 18.6698 38.0386 18.9053 38.0386C18.9686 38.0386 19.023 38.0297 19.0863 38.0208L24.0072 37.0255C25.4002 37.6854 26.9564 38.0386 28.5115 38.0386C34.3099 38.0386 39.0307 33.3165 39.0307 27.5193C39.0307 21.7209 34.3086 17 28.5114 17ZM29.1535 32.8378C28.8112 33.1801 28.2325 33.1929 27.8783 32.8378C27.5568 32.5479 27.4944 31.9395 27.8783 31.5537C28.2542 31.1777 28.8379 31.2381 29.1535 31.5537C29.5413 31.985 29.4632 32.5281 29.1535 32.8378ZM30.2734 27.8338C29.7313 28.2256 29.4196 28.7727 29.4196 29.3346C29.4196 29.8342 29.015 30.2487 28.5154 30.2487C28.0158 30.2487 27.6112 29.853 27.6112 29.3534C27.6112 28.186 28.1959 27.1037 29.2148 26.3677C29.5908 26.0956 29.7738 25.6386 29.6927 25.1726C29.6106 24.7036 29.2099 24.303 28.741 24.2209C28.3739 24.1566 28.0237 24.2496 27.7477 24.481C27.4756 24.7096 27.3203 25.043 27.3203 25.3971C27.3203 25.8968 26.9157 26.3014 26.4161 26.3014C25.9165 26.3014 25.5119 25.8967 25.5119 25.3971C25.5119 24.5068 25.9036 23.6688 26.5853 23.096C27.2669 22.5232 28.1692 22.2848 29.0546 22.4401C30.2665 22.6528 31.2627 23.6481 31.4754 24.861C31.6753 26.0135 31.2162 27.1532 30.2734 27.8338Z" fill="#05BBFF"/>
</svg>
