<svg width="56" height="56" viewBox="0 0 56 56" fill="none" xmlns="http://www.w3.org/2000/svg">
<rect x="2.8" y="2.8" width="50.4" height="50.4" rx="25.2" fill="#DEDEFA"/>
<rect x="2.8" y="2.8" width="50.4" height="50.4" rx="25.2" stroke="#EFEFFD" stroke-width="5.6"/>
<path d="M28.1584 29.0112C30.6519 29.0112 32.6733 31.0234 32.6733 33.5056C32.6733 35.9878 30.6519 38 28.1584 38C25.6649 38 23.6436 35.9878 23.6436 33.5056C23.6436 31.0234 25.6649 29.0112 28.1584 29.0112ZM32.6947 18.7165C33.1806 17.7612 34.551 17.7612 35.037 18.7165L38.3012 25.1346C38.7433 26.0039 38.1087 27.0316 37.1299 27.0316H30.6017C29.6229 27.0316 28.9884 26.0039 29.4304 25.1346L32.6947 18.7165ZM24.3208 18C25.8169 18 27.0297 19.2073 27.0297 20.6966V24.2921C27.0297 25.7814 25.8169 26.9888 24.3208 26.9888H20.7089C19.2128 26.9888 18 25.7814 18 24.2921V20.6966C18 19.2073 19.2128 18 20.7089 18H24.3208Z" fill="#7474FF"/>
</svg>
