<svg width="56" height="56" viewBox="0 0 56 56" fill="none" xmlns="http://www.w3.org/2000/svg">
<rect x="2.8" y="2.8" width="50.4" height="50.4" rx="25.2" fill="#DEDEFA"/>
<rect x="2.8" y="2.8" width="50.4" height="50.4" rx="25.2" stroke="#EFEFFD" stroke-width="5.6"/>
<path d="M30.3915 33.1736C30.3915 31.7209 31.5537 30.5588 33.0063 30.5588H33.66C32.8369 29.2272 31.6505 28.1377 30.2463 27.4355C29.2052 28.1377 27.9704 28.5493 26.6388 28.5493C25.3072 28.5493 24.0482 28.1377 23.0314 27.4355C20.2713 28.7672 18.3828 31.5999 18.3828 34.8442V35.9337C18.3828 36.7084 19.0123 37.3621 19.8113 37.3621H30.9C30.9 37.3621 30.9 37.3621 30.9 37.3379L32.1347 35.6431C31.1179 35.28 30.3915 34.3115 30.3915 33.1736Z" fill="#7474FF"/>
<path d="M26.614 27.0718C29.3983 27.0718 31.65 24.8202 31.65 22.0359C31.65 19.2516 29.3983 17 26.614 17C23.8298 17 21.5781 19.2516 21.5781 22.0359C21.5781 24.8202 23.854 27.0718 26.614 27.0718Z" fill="#7474FF"/>
<path d="M37.1452 37.7482H35.2083L38.0652 33.8502C38.3074 33.5113 38.3558 33.0513 38.1621 32.6639C37.9684 32.2765 37.581 32.0586 37.1452 32.0586H33.0051C32.3756 32.0586 31.8672 32.567 31.8672 33.1965C31.8672 33.826 32.3756 34.3344 33.0051 34.3344H34.942L32.0851 38.2082C31.843 38.5472 31.7946 39.0072 31.9882 39.3946C32.1819 39.782 32.5693 39.9999 33.0051 39.9999H37.1694C37.7989 39.9999 38.3074 39.4914 38.3074 38.8619C38.2831 38.2566 37.7747 37.7482 37.1452 37.7482Z" fill="#7474FF"/>
</svg>
