<svg width="56" height="56" viewBox="0 0 56 56" fill="none" xmlns="http://www.w3.org/2000/svg">
<rect x="2.8" y="2.8" width="50.4" height="50.4" rx="25.2" fill="#F6E6CD"/>
<rect x="2.8" y="2.8" width="50.4" height="50.4" rx="25.2" stroke="#FDF5E9" stroke-width="5.6"/>
<path d="M27.7142 24.5621H29.1025C29.6253 24.5614 30.1265 24.3521 30.4962 23.9801C30.8659 23.608 31.0739 23.1037 31.0745 22.5776V18H25.7422V22.5776C25.7436 23.1035 25.9518 23.6074 26.3213 23.9793C26.6908 24.3512 27.1916 24.5607 27.7142 24.5621Z" fill="#F49300"/>
<path d="M34.7128 18H32.3857V22.578C32.3843 23.4548 32.0375 24.2953 31.4214 24.9154C30.8053 25.5354 29.97 25.8843 29.0987 25.8857H27.7103C26.8389 25.8843 26.0037 25.5354 25.3875 24.9154C24.7714 24.2953 24.4247 23.4548 24.4233 22.578V18H22.1092C21.2379 18.0014 20.4027 18.3503 19.7865 18.9704C19.1704 19.5904 18.8237 20.4309 18.8223 21.3078V28.6325C19.2361 28.3895 19.6776 28.1976 20.1371 28.0609C20.7161 27.885 21.3177 27.7958 21.9225 27.7963C23.5701 27.8019 25.1484 28.4641 26.312 29.638C27.4756 30.8119 28.1296 32.4018 28.131 34.0599C28.1321 35.2074 27.8182 36.3328 27.2238 37.3121H34.7128C35.5842 37.3107 36.4194 36.9617 37.0355 36.3417C37.6517 35.7217 37.9984 34.8811 37.9998 34.0043V21.3025C37.997 20.4265 37.6497 19.5874 37.0337 18.9685C36.4177 18.3496 35.5833 18.0014 34.7128 18Z" fill="#F49300"/>
<path d="M21.9117 29.1191C20.9406 29.1186 19.9913 29.4079 19.1836 29.9504C18.376 30.4929 17.7464 31.2643 17.3744 32.1669C17.0025 33.0695 16.9049 34.0629 17.094 35.0214C17.2831 35.9798 17.7505 36.8603 18.4369 37.5514C19.1233 38.2426 19.998 38.7134 20.9504 38.9042C21.9027 39.095 22.8899 38.9973 23.787 38.6235C24.6842 38.2497 25.451 37.6165 25.9906 36.8041C26.5301 35.9916 26.8181 35.0364 26.8181 34.0592C26.8167 32.7499 26.2994 31.4946 25.3796 30.5685C24.4599 29.6425 23.2127 29.1212 21.9117 29.1191ZM23.2132 35.369H21.3069C21.1326 35.369 20.9654 35.2993 20.8421 35.1752C20.7188 35.0512 20.6496 34.8829 20.6496 34.7075V32.0615C20.6496 31.8861 20.7188 31.7178 20.8421 31.5937C20.9654 31.4697 21.1326 31.4 21.3069 31.4C21.4812 31.4 21.6484 31.4697 21.7717 31.5937C21.895 31.7178 21.9642 31.8861 21.9642 32.0615V34.0566H23.2132C23.3875 34.0566 23.5547 34.1263 23.678 34.2503C23.8013 34.3744 23.8705 34.5426 23.8705 34.7181C23.8705 34.8935 23.8013 35.0618 23.678 35.1858C23.5547 35.3099 23.3875 35.3796 23.2132 35.3796V35.369Z" fill="#F49300"/>
</svg>
