<svg width="56" height="56" viewBox="0 0 56 56" fill="none" xmlns="http://www.w3.org/2000/svg">
<rect x="2.43478" y="2.43478" width="51.1304" height="51.1304" rx="25.5652" fill="#DBEFF6"/>
<rect x="2.43478" y="2.43478" width="51.1304" height="51.1304" rx="25.5652" stroke="#ECF7FB" stroke-width="4.86957"/>
<path d="M26.7969 20.5469V24.2509C26.7969 25.658 25.658 26.7969 24.2509 26.7969H20.5469C19.1398 26.7969 18.0009 25.658 18.0009 24.2509V20.5469C18.0009 19.1398 19.1398 18.0009 20.5469 18.0009H24.2509C25.658 18.0009 26.7969 19.1398 26.7969 20.5469ZM35.3611 18H31.6571C30.25 18 29.1111 19.1389 29.1111 20.546V24.25C29.1111 25.6571 30.25 26.796 31.6571 26.796H35.3611C36.7682 26.796 37.9071 25.6571 37.9071 24.25V20.546C37.9071 19.1389 36.7682 18 35.3611 18ZM35.3611 29.1111H31.6571C30.25 29.1111 29.1111 30.25 29.1111 31.6571V35.3611C29.1111 36.7682 30.25 37.9071 31.6571 37.9071H35.3611C36.7682 37.9071 37.9071 36.7682 37.9071 35.3611V31.6571C37.9071 30.25 36.7682 29.1111 35.3611 29.1111ZM24.25 29.1111H20.546C19.1389 29.1111 18 30.25 18 31.6571V35.3611C18 36.7682 19.1389 37.9071 20.546 37.9071H24.25C25.6571 37.9071 26.796 36.7682 26.796 35.3611V31.6571C26.796 30.25 25.6571 29.1111 24.25 29.1111Z" fill="#05BBFF"/>
</svg>
