<svg width="56" height="56" viewBox="0 0 56 56" fill="none" xmlns="http://www.w3.org/2000/svg">
<rect x="2.43478" y="2.43478" width="51.1304" height="51.1304" rx="25.5652" fill="#CFE7DC"/>
<rect x="2.43478" y="2.43478" width="51.1304" height="51.1304" rx="25.5652" stroke="#E7F4EE" stroke-width="4.86957"/>
<g clip-path="url(#clip0_2375_15561)">
<path d="M16.002 28C16.002 25.6266 16.7057 23.3066 18.0243 21.3332C19.3429 19.3598 21.217 17.8217 23.4097 16.9135C25.6025 16.0052 28.0153 15.7676 30.343 16.2306C32.6708 16.6936 34.809 17.8365 36.4872 19.5147C38.1655 21.193 39.3083 23.3311 39.7714 25.6589C40.2344 27.9867 39.9968 30.3995 39.0885 32.5922C38.1802 34.7849 36.6422 36.6591 34.6688 37.9776C32.6954 39.2962 30.3753 40 28.002 40C24.8205 39.9964 21.7703 38.7309 19.5207 36.4813C17.271 34.2316 16.0056 31.1815 16.002 28Z" fill="#46B782"/>
<path d="M27.999 34.9979C31.8644 34.9979 34.9979 31.8644 34.9979 27.999C34.9979 24.1335 31.8644 21 27.999 21C24.1335 21 21 24.1335 21 27.999C21 31.8644 24.1335 34.9979 27.999 34.9979Z" stroke="white" stroke-width="1.2" stroke-miterlimit="10"/>
<path d="M32.7777 22.8848L23.0625 32.9583" stroke="white" stroke-width="1.2" stroke-miterlimit="10"/>
</g>
<defs>
<clipPath id="clip0_2375_15561">
<rect width="24" height="24" fill="white" transform="translate(16 16)"/>
</clipPath>
</defs>
</svg>
