<svg width="56" height="56" viewBox="0 0 56 56" fill="none" xmlns="http://www.w3.org/2000/svg">
<rect x="2.8" y="2.8" width="50.4" height="50.4" rx="25.2" fill="#D8E5FA"/>
<rect x="2.8" y="2.8" width="50.4" height="50.4" rx="25.2" stroke="#EDF3FD" stroke-width="5.6"/>
<path d="M27.6902 24.9377H28.9543C29.4304 24.937 29.8868 24.7477 30.2234 24.411C30.56 24.0744 30.7494 23.6181 30.75 23.142V19H25.8945V23.142C25.8958 23.6179 26.0854 24.0739 26.4219 24.4103C26.7583 24.7468 27.2143 24.9364 27.6902 24.9377Z" fill="#69A4FC"/>
<path d="M34.062 19H31.9432V23.142C31.9419 23.9354 31.6262 24.6958 31.0652 25.2568C30.5042 25.8178 29.7437 26.1335 28.9504 26.1348H27.6862C26.8929 26.1335 26.1324 25.8178 25.5714 25.2568C25.0104 24.6958 24.6947 23.9354 24.6934 23.142V19H22.5865C21.7932 19.0013 21.0327 19.317 20.4717 19.878C19.9107 20.4389 19.595 21.1994 19.5938 21.9928V28.62C19.9706 28.4002 20.3725 28.2265 20.7909 28.1028C21.3181 27.9437 21.8658 27.863 22.4165 27.8634C23.9167 27.8685 25.3537 28.4676 26.4131 29.5297C27.4725 30.5919 28.068 32.0304 28.0693 33.5305C28.0704 34.5688 27.7845 35.5871 27.2433 36.473H34.062C34.8554 36.4718 35.6159 36.1561 36.1769 35.5951C36.7378 35.0341 37.0536 34.2736 37.0548 33.4803V21.988C37.0523 21.1955 36.736 20.4362 36.1752 19.8763C35.6143 19.3163 34.8546 19.0013 34.062 19Z" fill="#69A4FC"/>
<path d="M22.408 29.0586C21.5238 29.0581 20.6593 29.3199 19.9239 29.8108C19.1885 30.3016 18.6152 30.9996 18.2765 31.8163C17.9378 32.6331 17.8489 33.5319 18.0211 34.3992C18.1934 35.2665 18.6189 36.0632 19.2439 36.6885C19.869 37.3139 20.6655 37.7399 21.5326 37.9126C22.3998 38.0852 23.2987 37.9969 24.1156 37.6586C24.9325 37.3203 25.6308 36.7474 26.1221 36.0123C26.6134 35.2771 26.8756 34.4128 26.8756 33.5286C26.8743 32.3439 26.4033 31.208 25.5658 30.3701C24.7283 29.5321 23.5927 29.0605 22.408 29.0586ZM23.5931 34.7138H21.8573C21.6985 34.7138 21.5463 34.6507 21.434 34.5384C21.3218 34.4262 21.2587 34.2739 21.2587 34.1152V31.721C21.2587 31.5622 21.3218 31.41 21.434 31.2977C21.5463 31.1855 21.6985 31.1224 21.8573 31.1224C22.016 31.1224 22.1683 31.1855 22.2805 31.2977C22.3928 31.41 22.4558 31.5622 22.4558 31.721V33.5262H23.5931C23.7518 33.5262 23.9041 33.5893 24.0163 33.7015C24.1286 33.8138 24.1917 33.966 24.1917 34.1248C24.1917 34.2835 24.1286 34.4358 24.0163 34.548C23.9041 34.6603 23.7518 34.7233 23.5931 34.7233V34.7138Z" fill="#69A4FC"/>
</svg>
