<svg width="56" height="56" viewBox="0 0 56 56" fill="none" xmlns="http://www.w3.org/2000/svg">
<rect x="2.8" y="2.8" width="50.4" height="50.4" rx="25.2" fill="#F6E6CD"/>
<rect x="2.8" y="2.8" width="50.4" height="50.4" rx="25.2" stroke="#FDF5E9" stroke-width="5.6"/>
<path d="M24.4445 29.1111C25.9172 29.1111 27.1111 30.305 27.1111 31.7778V35.3333C27.1111 36.8061 25.9172 38 24.4445 38H20.8889C19.4162 38 18.2222 36.8061 18.2222 35.3333V31.7778C18.2222 30.305 19.4162 29.1111 20.8889 29.1111H24.4445ZM35.5556 29.1111C37.0283 29.1111 38.2222 30.305 38.2222 31.7778V35.3333C38.2222 36.8061 37.0283 38 35.5556 38H32C30.5273 38 29.3333 36.8061 29.3333 35.3333V31.7778C29.3333 30.305 30.5273 29.1111 32 29.1111H35.5556ZM21.4076 18.7166C21.8935 17.7613 23.2639 17.7613 23.7498 18.7166L27.0141 25.1345C27.4562 26.0038 26.8214 27.0315 25.8427 27.0315H19.3145C18.3357 27.0314 17.7012 26.0038 18.1432 25.1345L21.4076 18.7166ZM33.7778 18C36.2324 18 38.2222 19.9898 38.2222 22.4444C38.2222 24.899 36.2324 26.8889 33.7778 26.8889C31.3232 26.8889 29.3333 24.899 29.3333 22.4444C29.3333 19.9899 31.3232 18 33.7778 18Z" fill="#F49300"/>
</svg>
