<svg width="56" height="56" viewBox="0 0 56 56" fill="none" xmlns="http://www.w3.org/2000/svg">
<rect x="2.8" y="2.8" width="50.4" height="50.4" rx="25.2" fill="#FCDAD7"/>
<rect x="2.8" y="2.8" width="50.4" height="50.4" rx="25.2" stroke="#FEEDEC" stroke-width="5.6"/>
<path d="M37.3889 28.0681C37.1629 26.7898 36.3423 25.6948 35.178 25.1202C35.0251 25.0423 34.9263 24.8885 34.9196 24.7175V22.7953C33.8626 22.7725 32.9139 23.4411 32.5796 24.444C32.5102 24.6083 32.3478 24.7137 32.1693 24.7099H31.1968C31.5188 29.1829 26.9745 33.0863 22.6038 32.2164C23.0046 33.564 24.0834 34.6021 25.4455 34.9516C25.6496 35 25.794 35.1823 25.7949 35.3922V36.4711C25.7987 36.7199 26.002 36.9194 26.2508 36.9194H28.1122C29.0724 36.8728 28.0248 35.152 29.1075 35.2783C29.6526 35.4226 30.2263 35.4226 30.7714 35.2783C30.9034 35.2479 31.043 35.2783 31.1494 35.3628C31.2558 35.4473 31.3175 35.5755 31.3184 35.7113C31.3507 36.1064 31.1446 36.8966 31.7667 36.9194H33.6205C33.8694 36.9194 34.0726 36.7199 34.0764 36.4711V35.3922C34.0773 35.1823 34.2217 35 34.4259 34.9516C35.1743 34.7597 35.8514 34.3561 36.3756 33.7891C36.8999 33.2212 37.2494 32.5146 37.3814 31.753C37.5276 30.9011 38.9303 31.8271 38.9996 30.9096V28.9114C38.9541 27.9921 37.5333 28.9038 37.3889 28.0681ZM34.6995 28.6379C34.2892 28.6246 33.9644 28.2884 33.9644 27.8781C33.9644 27.4679 34.2892 27.1317 34.6995 27.1184C35.1088 27.1317 35.4345 27.4679 35.4345 27.8781C35.4345 28.2884 35.1088 28.6246 34.6995 28.6379ZM25.7797 30.4538C26.0437 30.3597 26.3001 30.2458 26.5471 30.1119C26.2992 30.2429 26.0428 30.3569 25.7797 30.4538ZM23.8271 19.0802C16.8905 19.2321 15.804 28.8659 22.4292 30.6286C24.0569 31.0284 25.7777 30.7112 27.1567 29.7586C28.5357 28.8051 29.4407 27.3075 29.6422 25.6425C29.8435 23.9786 29.3231 22.3081 28.211 21.0536C27.0989 19.799 25.5032 19.0802 23.8271 19.0802ZM23.8423 24.1782C24.8557 24.1953 25.717 24.9266 25.8975 25.9238C26.0789 26.9219 25.5299 27.9087 24.5869 28.2809C24.6401 28.4994 24.5954 28.7302 24.4653 28.9135C24.3343 29.0958 24.1301 29.2126 23.9069 29.2335C23.6828 29.2535 23.4605 29.1746 23.3 29.0179C23.1386 28.8612 23.0531 28.6418 23.0674 28.4177H22.4671C22.0512 28.412 21.7178 28.0739 21.7178 27.6579C21.7178 27.242 22.0512 26.9039 22.4671 26.8982H23.8271C23.9867 26.8963 24.1396 26.8307 24.2507 26.7158C24.3618 26.6009 24.4226 26.4461 24.4197 26.2866C24.4169 26.127 24.3504 25.9741 24.2345 25.8639C24.1187 25.7538 23.9639 25.694 23.8043 25.6978C22.791 25.675 21.9344 24.9418 21.7558 23.9437C21.5763 22.9465 22.1252 21.9607 23.0673 21.5874C23.0161 21.369 23.0617 21.1392 23.1937 20.9578C23.3247 20.7764 23.5289 20.6615 23.7521 20.6425C23.9753 20.6235 24.1956 20.7023 24.3561 20.859C24.5166 21.0157 24.6002 21.2342 24.5869 21.4583H25.1871C25.6021 21.464 25.9364 21.803 25.9364 22.218C25.9364 22.6331 25.6021 22.9721 25.1871 22.9778H23.8271C23.4957 22.9816 23.2298 23.2542 23.2345 23.5856C23.2383 23.9171 23.5109 24.182 23.8423 24.1782Z" fill="#F04438"/>
</svg>
