<svg width="90" height="89" viewBox="0 0 90 89" fill="none" xmlns="http://www.w3.org/2000/svg">
<rect x="0.5" width="89" height="89" rx="20" fill="#2DA5F3"/>
<path d="M43.8421 17.8008C50.899 17.8008 57.3486 20.3881 62.244 24.6379C62.9323 25.2354 62.93 26.2875 62.2795 26.9261L59.5396 29.6159L56.7542 32.3507C56.1216 32.9718 55.113 32.9653 54.4233 32.4083C51.5429 30.0822 47.8622 28.6915 43.8421 28.6915C34.6408 28.6915 27.1817 36.0054 27.1817 45.0276C27.1817 54.0498 34.6408 61.3637 43.8421 61.3637C47.856 61.3637 51.5316 59.9773 54.41 57.6577C55.1002 57.1014 56.1088 57.0959 56.7408 57.7176L59.5235 60.4552L62.2604 63.1478C62.9101 63.787 62.9113 64.8391 62.2224 65.4359C57.3296 69.6747 50.8886 72.2544 43.8421 72.2544C28.5066 72.2544 16.0747 60.0646 16.0747 45.0276C16.0747 29.9906 28.5066 17.8008 43.8421 17.8008ZM66.056 36.9935C70.5309 36.9935 74.1586 40.5505 74.1586 44.9383C74.1586 49.3262 70.5309 52.8832 66.056 52.8832C61.581 52.8832 57.9534 49.3262 57.9534 44.9383C57.9534 40.5505 61.581 36.9935 66.056 36.9935Z" fill="white"/>
</svg>
