<svg xmlns="http://www.w3.org/2000/svg" width="509" height="191" viewBox="0 0 509 191" version="1.1"><path d="M 91 32.176 C 74.498 44.681, 70.209 48.054, 69.335 49.217 C 68.805 49.923, 67.829 53.875, 67.168 58 C 65.849 66.225, 58.573 105.843, 54.037 129.500 C 49.800 151.596, 49.670 152.678, 51.143 153.588 C 51.849 154.025, 54.243 154.682, 56.463 155.049 C 58.684 155.416, 67.475 156.897, 76 158.340 C 99.689 162.349, 128.975 167, 130.534 167 C 132.407 167, 133.974 163.858, 134.932 158.183 C 135.367 155.608, 139.396 133.353, 143.885 108.729 C 150.478 72.567, 151.828 63.548, 150.908 61.828 C 150.281 60.657, 147.233 56.255, 144.134 52.046 C 141.035 47.838, 136.926 42.061, 135.003 39.209 C 131.017 33.300, 131.011 33.297, 122.105 31.960 C 118.472 31.415, 111.900 30.310, 107.500 29.504 C 96.737 27.534, 97.233 27.453, 91 32.176 M 84.500 63.433 C 77.935 66.635, 74.997 71.519, 75.004 79.218 C 75.011 87.530, 80.764 93, 89.500 93 C 98.297 93, 103.746 87.863, 104.694 78.677 C 105.336 72.460, 103.622 68.291, 99.100 65.071 C 95.230 62.316, 88.370 61.546, 84.500 63.433 M 96.476 99.024 C 78.281 117.227, 67.917 128.298, 68.528 128.876 C 69.063 129.382, 71.758 130.095, 74.517 130.460 L 79.534 131.124 108.456 101.957 C 129.715 80.519, 136.997 72.590, 135.939 72.031 C 135.148 71.613, 132.451 71.005, 129.947 70.681 L 125.395 70.092 96.476 99.024 M 354.366 72.537 C 349.989 74.456, 344.436 81.286, 343.183 86.292 C 341.121 94.530, 339.577 106.623, 339.539 114.831 C 339.501 122.942, 339.584 123.237, 342.664 125.990 C 347.062 129.921, 355.505 131.764, 361.248 130.046 C 371.427 127.001, 373.583 123.028, 376.604 101.750 L 377.279 97 369.174 97 C 359.944 97, 359 97.736, 359 104.934 C 359 108.656, 359.222 109, 361.625 109 C 364.042 109, 364.200 109.252, 363.613 112.184 C 362.766 116.422, 360.281 119, 357.045 119 C 351.460 119, 351.021 116.314, 353.615 98 C 355.438 85.129, 356.704 82.737, 361.449 83.201 C 363.921 83.443, 364.682 84.117, 365.457 86.750 C 366.378 89.880, 366.607 90, 371.639 90 C 376.023 90, 376.970 89.671, 377.513 87.958 C 378.521 84.784, 377.081 78.464, 374.790 76.005 C 370.340 71.228, 360.977 69.639, 354.366 72.537 M 87.329 72.775 C 85.754 73.777, 84.672 78.392, 85.443 80.820 C 86.191 83.176, 89.632 84.267, 92.119 82.937 C 94.431 81.699, 95.659 75.500, 93.991 73.489 C 92.677 71.906, 89.270 71.541, 87.329 72.775 M 165.074 78.750 C 163.385 88.648, 161.600 99.822, 157.500 126.160 C 157.255 127.737, 157.610 129.020, 158.373 129.313 C 161.163 130.383, 182.529 128.350, 185.631 126.718 C 194.600 122.001, 198.961 108.035, 193.388 101.876 C 191.830 100.154, 191.822 99.855, 193.290 98.232 C 196.100 95.127, 198.955 87.634, 198.978 83.306 C 199.023 74.697, 193.746 72.065, 176.363 72.024 L 166.226 72 165.074 78.750 M 205.657 72.750 C 204.929 73.934, 202.705 87.473, 199.903 107.785 C 198.627 117.035, 199.729 123.540, 203.087 126.579 C 207.249 130.345, 221.290 130.066, 226.851 126.106 C 228.454 124.965, 230.646 122.112, 231.723 119.766 C 233.530 115.831, 236.964 95.370, 238.608 78.750 L 239.276 72 233.301 72 L 227.326 72 225.687 83.250 C 221.904 109.205, 220.788 115.550, 219.799 116.742 C 218.449 118.369, 213.350 118.374, 212.758 116.750 C 212.507 116.063, 212.653 112.575, 213.082 109 C 214.306 98.793, 215.955 86.052, 216.900 79.500 C 217.376 76.200, 217.567 73.162, 217.324 72.750 C 217.081 72.338, 214.460 72, 211.500 72 C 208.540 72, 205.910 72.338, 205.657 72.750 M 242.348 73.535 C 242.024 74.379, 242.256 76.966, 242.862 79.285 C 243.469 81.603, 244.701 87.100, 245.601 91.500 C 246.501 95.900, 247.661 101.525, 248.179 104 C 249.056 108.183, 248.674 118.138, 247.345 125.750 L 246.777 129 253.286 129 L 259.795 129 260.897 122.668 C 261.504 119.186, 262 115.309, 262 114.053 C 262 112.797, 265.825 103.272, 270.500 92.885 C 275.175 82.498, 279 73.550, 279 73 C 279 71.530, 268.280 71.751, 267.309 73.241 C 266.864 73.923, 264.862 78.536, 262.859 83.491 C 260.857 88.446, 258.832 92.404, 258.359 92.287 C 257.334 92.033, 256.177 85.284, 256.074 78.950 C 256.033 76.448, 255.460 73.860, 254.800 73.200 C 252.972 71.372, 243.076 71.638, 242.348 73.535 M 283.489 73.250 C 282.839 75.058, 276 123.809, 276 126.628 C 276 128.875, 276.334 129, 282.359 129 L 288.717 129 289.859 121.500 C 290.486 117.375, 291.481 110.513, 292.069 106.250 C 294.547 88.290, 295.156 84.236, 296.121 79.265 C 296.679 76.386, 296.854 73.573, 296.509 73.015 C 295.580 71.511, 284.038 71.719, 283.489 73.250 M 302.571 73.775 C 302.261 74.752, 301.526 79.139, 300.936 83.525 C 300.347 87.911, 299.443 94.425, 298.927 98 C 298.073 103.920, 297.585 107.507, 295.415 123.804 L 294.709 129.109 300.596 128.804 L 306.483 128.500 307.113 124 C 307.459 121.525, 308.297 115.563, 308.975 110.750 C 309.652 105.938, 310.528 102, 310.920 102 C 311.313 102, 312.404 105.263, 313.346 109.250 C 314.287 113.237, 315.891 119.200, 316.911 122.500 L 318.765 128.500 324.025 128.807 C 326.918 128.976, 329.760 128.640, 330.341 128.059 C 330.921 127.479, 331.742 124.191, 332.164 120.752 C 333.373 110.927, 334.723 101.146, 335.998 93 C 337.992 80.247, 338.760 73.532, 338.312 72.750 C 338.075 72.338, 335.685 72, 333 72 C 330.315 72, 327.913 72.338, 327.661 72.750 C 327.410 73.162, 326.464 78.900, 325.559 85.500 C 323.685 99.164, 323.075 102.409, 322.491 101.824 C 322.264 101.597, 320.464 95.165, 318.490 87.530 C 316.516 79.896, 314.672 73.278, 314.391 72.824 C 314.111 72.371, 311.464 72, 308.508 72 C 304.240 72, 303.019 72.365, 302.571 73.775 M 397.205 72.829 C 396.115 73.540, 385.413 100.226, 380.375 114.796 C 379.558 117.159, 378.014 121.134, 376.945 123.629 C 375.875 126.124, 375 128.375, 375 128.631 C 375 128.886, 377.813 128.961, 381.250 128.798 L 387.500 128.500 388.969 124.250 L 390.438 120 397.219 120 L 404 120 404 122.918 C 404 128.483, 404.659 129, 411.752 129 L 418.289 129 417.567 122.250 C 415.924 106.909, 413.983 90.785, 412.179 77.500 L 411.500 72.500 405 72.242 C 401.425 72.100, 397.917 72.364, 397.205 72.829 M 420.469 73.500 C 420.211 74.325, 419.775 75.711, 419.501 76.579 C 419.226 77.448, 419.275 79.248, 419.609 80.579 C 420.140 82.692, 420.790 83, 424.724 83 L 429.230 83 428.564 88.750 C 428.197 91.912, 427.494 96.975, 427.001 100 C 426.160 105.161, 424.774 115.025, 423.523 124.750 L 422.976 129 429.443 129 L 435.909 129 436.451 125.750 C 436.749 123.963, 438.119 114.625, 439.495 105 C 442.929 80.989, 442.076 83.158, 448.223 82.802 C 453.346 82.505, 453.449 82.436, 454.319 78.738 C 455.910 71.979, 455.961 72, 437.500 72 C 423.652 72, 420.860 72.246, 420.469 73.500 M 176.673 84.750 C 176.429 85.162, 175.910 87.862, 175.520 90.750 L 174.812 96 177.684 96 C 183.291 96, 187.298 90.293, 184.872 85.761 C 183.919 83.980, 177.593 83.200, 176.673 84.750 M 399.599 93 C 393.495 110.102, 393.493 109.531, 399.666 108.825 L 402.500 108.500 402.152 101.500 C 401.784 94.094, 400.607 90.176, 399.599 93 M 173.640 107.750 C 173.369 108.713, 172.849 111.412, 172.485 113.750 C 171.882 117.631, 172.010 118, 173.962 118 C 179.639 118, 184.025 112.803, 182.473 107.915 C 181.638 105.285, 174.375 105.149, 173.640 107.750 M 106.999 110.250 C 102.554 113.284, 100 118.406, 100 124.284 C 100 130.549, 101.879 134.001, 106.788 136.761 C 114.032 140.832, 122.550 139.250, 126.994 133.008 C 130.039 128.732, 130.754 120.391, 128.486 115.611 C 125.088 108.450, 113.772 105.627, 106.999 110.250 M 114 117.778 C 110.223 118.917, 108.552 125.554, 111.440 127.950 C 113.967 130.047, 118.239 128.824, 119.271 125.707 C 121.030 120.394, 118.408 116.449, 114 117.778" stroke="none" fill="#f3eed3" fill-rule="evenodd"/><path d="M 92.500 22.556 C 90.850 23.420, 88.375 25.157, 87 26.416 C 85.625 27.675, 79.899 32.154, 74.276 36.369 C 68.653 40.584, 63.634 44.816, 63.122 45.772 C 62.610 46.728, 60.113 58.983, 57.572 73.005 C 52.141 102.975, 49.537 116.991, 46.982 130 C 43.289 148.805, 42.788 154.028, 44.435 156.541 C 45.257 157.796, 47.408 159.289, 49.215 159.861 C 53.039 161.072, 79.523 165.847, 102.500 169.468 C 111.300 170.855, 120.672 172.442, 123.326 172.995 C 131.178 174.630, 133.875 174.279, 136.931 171.223 C 139.397 168.757, 140.074 166.494, 142.990 150.973 C 144.795 141.363, 146.604 133.130, 147.009 132.677 C 147.415 132.224, 148.035 133.005, 148.388 134.412 C 149.289 137.999, 151.800 138.354, 167.704 137.142 C 183.574 135.932, 187.733 134.937, 192.024 131.327 L 195.109 128.730 197.805 131.312 C 201.757 135.098, 207.150 137, 213.930 137 C 224.663 137, 233.160 132.340, 238.691 123.421 C 239.701 121.792, 239.891 122.364, 239.941 127.179 C 240.032 135.954, 242.534 137.495, 255.618 136.834 C 262.488 136.487, 263.442 136.183, 265.411 133.714 L 267.593 130.978 269.654 133.739 L 271.716 136.500 289.108 136.616 C 300.864 136.694, 307.493 136.331, 309.565 135.494 C 312.063 134.486, 312.977 134.510, 314.506 135.628 C 318.087 138.247, 336 136.808, 336 133.902 C 336 132.369, 338.716 132.900, 342.604 135.194 C 345.659 136.996, 347.765 137.370, 354.411 137.289 C 358.860 137.234, 368.350 137.154, 375.500 137.109 C 390.225 137.018, 392.947 136.166, 394.370 131.205 C 395.386 127.664, 397.313 127.394, 397.806 130.724 C 397.974 131.861, 399.034 133.626, 400.161 134.646 C 401.984 136.295, 404.049 136.500, 418.855 136.500 C 428.010 136.500, 436.660 136.173, 438.079 135.774 C 441.674 134.762, 442.538 132.275, 444.996 115.877 C 448.856 90.130, 448.496 91.261, 453.074 90.487 C 455.255 90.119, 457.667 89.190, 458.434 88.423 C 461.474 85.383, 463.262 68.258, 460.750 66.242 C 459.252 65.040, 396.365 63.951, 393.329 65.074 C 392.040 65.551, 390.344 68.170, 388.761 72.126 C 385.974 79.090, 384.552 80.334, 383.620 76.621 C 382.676 72.862, 378.044 67.925, 373.541 65.880 C 368.053 63.387, 355.985 63.379, 350.500 65.865 C 347.174 67.373, 346.163 67.465, 344.500 66.411 C 341.567 64.553, 324.736 64.144, 322.644 65.880 C 321.255 67.033, 320.744 67.032, 319.348 65.872 C 318.065 64.806, 311.915 64.430, 291.768 64.188 C 269.821 63.924, 265.480 64.111, 263.506 65.404 C 261.406 66.780, 260.852 66.773, 257.963 65.332 C 255.144 63.925, 251.508 63.819, 228.126 64.459 C 212.799 64.878, 200.978 65.616, 200.271 66.199 C 199.437 66.885, 197.991 66.839, 195.771 66.056 C 191.697 64.618, 170.645 63.469, 165.626 64.410 C 162.921 64.918, 161.377 65.976, 159.972 68.287 L 158.039 71.465 158.623 66.482 C 159.172 61.802, 158.943 61.124, 154.854 55.296 C 142.739 38.033, 136.544 29.787, 134.453 28.142 C 132.823 26.859, 127.499 25.671, 116.322 24.096 C 107.620 22.869, 99.375 21.667, 98 21.425 C 96.625 21.184, 94.150 21.692, 92.500 22.556 M 91 32.176 C 74.498 44.681, 70.209 48.054, 69.335 49.217 C 68.805 49.923, 67.829 53.875, 67.168 58 C 65.849 66.225, 58.573 105.843, 54.037 129.500 C 49.800 151.596, 49.670 152.678, 51.143 153.588 C 51.849 154.025, 54.243 154.682, 56.463 155.049 C 58.684 155.416, 67.475 156.897, 76 158.340 C 99.689 162.349, 128.975 167, 130.534 167 C 132.407 167, 133.974 163.858, 134.932 158.183 C 135.367 155.608, 139.396 133.353, 143.885 108.729 C 150.478 72.567, 151.828 63.548, 150.908 61.828 C 150.281 60.657, 147.233 56.255, 144.134 52.046 C 141.035 47.838, 136.926 42.061, 135.003 39.209 C 131.017 33.300, 131.011 33.297, 122.105 31.960 C 118.472 31.415, 111.900 30.310, 107.500 29.504 C 96.737 27.534, 97.233 27.453, 91 32.176 M 84.500 63.433 C 77.935 66.635, 74.997 71.519, 75.004 79.218 C 75.011 87.530, 80.764 93, 89.500 93 C 98.297 93, 103.746 87.863, 104.694 78.677 C 105.336 72.460, 103.622 68.291, 99.100 65.071 C 95.230 62.316, 88.370 61.546, 84.500 63.433 M 96.476 99.024 C 78.281 117.227, 67.917 128.298, 68.528 128.876 C 69.063 129.382, 71.758 130.095, 74.517 130.460 L 79.534 131.124 108.456 101.957 C 129.715 80.519, 136.997 72.590, 135.939 72.031 C 135.148 71.613, 132.451 71.005, 129.947 70.681 L 125.395 70.092 96.476 99.024 M 354.366 72.537 C 349.989 74.456, 344.436 81.286, 343.183 86.292 C 341.121 94.530, 339.577 106.623, 339.539 114.831 C 339.501 122.942, 339.584 123.237, 342.664 125.990 C 347.062 129.921, 355.505 131.764, 361.248 130.046 C 371.427 127.001, 373.583 123.028, 376.604 101.750 L 377.279 97 369.174 97 C 359.944 97, 359 97.736, 359 104.934 C 359 108.656, 359.222 109, 361.625 109 C 364.042 109, 364.200 109.252, 363.613 112.184 C 362.766 116.422, 360.281 119, 357.045 119 C 351.460 119, 351.021 116.314, 353.615 98 C 355.438 85.129, 356.704 82.737, 361.449 83.201 C 363.921 83.443, 364.682 84.117, 365.457 86.750 C 366.378 89.880, 366.607 90, 371.639 90 C 376.023 90, 376.970 89.671, 377.513 87.958 C 378.521 84.784, 377.081 78.464, 374.790 76.005 C 370.340 71.228, 360.977 69.639, 354.366 72.537 M 87.329 72.775 C 85.754 73.777, 84.672 78.392, 85.443 80.820 C 86.191 83.176, 89.632 84.267, 92.119 82.937 C 94.431 81.699, 95.659 75.500, 93.991 73.489 C 92.677 71.906, 89.270 71.541, 87.329 72.775 M 165.074 78.750 C 163.385 88.648, 161.600 99.822, 157.500 126.160 C 157.255 127.737, 157.610 129.020, 158.373 129.313 C 161.163 130.383, 182.529 128.350, 185.631 126.718 C 194.600 122.001, 198.961 108.035, 193.388 101.876 C 191.830 100.154, 191.822 99.855, 193.290 98.232 C 196.100 95.127, 198.955 87.634, 198.978 83.306 C 199.023 74.697, 193.746 72.065, 176.363 72.024 L 166.226 72 165.074 78.750 M 205.657 72.750 C 204.929 73.934, 202.705 87.473, 199.903 107.785 C 198.627 117.035, 199.729 123.540, 203.087 126.579 C 207.249 130.345, 221.290 130.066, 226.851 126.106 C 228.454 124.965, 230.646 122.112, 231.723 119.766 C 233.530 115.831, 236.964 95.370, 238.608 78.750 L 239.276 72 233.301 72 L 227.326 72 225.687 83.250 C 221.904 109.205, 220.788 115.550, 219.799 116.742 C 218.449 118.369, 213.350 118.374, 212.758 116.750 C 212.507 116.063, 212.653 112.575, 213.082 109 C 214.306 98.793, 215.955 86.052, 216.900 79.500 C 217.376 76.200, 217.567 73.162, 217.324 72.750 C 217.081 72.338, 214.460 72, 211.500 72 C 208.540 72, 205.910 72.338, 205.657 72.750 M 242.348 73.535 C 242.024 74.379, 242.256 76.966, 242.862 79.285 C 243.469 81.603, 244.701 87.100, 245.601 91.500 C 246.501 95.900, 247.661 101.525, 248.179 104 C 249.056 108.183, 248.674 118.138, 247.345 125.750 L 246.777 129 253.286 129 L 259.795 129 260.897 122.668 C 261.504 119.186, 262 115.309, 262 114.053 C 262 112.797, 265.825 103.272, 270.500 92.885 C 275.175 82.498, 279 73.550, 279 73 C 279 71.530, 268.280 71.751, 267.309 73.241 C 266.864 73.923, 264.862 78.536, 262.859 83.491 C 260.857 88.446, 258.832 92.404, 258.359 92.287 C 257.334 92.033, 256.177 85.284, 256.074 78.950 C 256.033 76.448, 255.460 73.860, 254.800 73.200 C 252.972 71.372, 243.076 71.638, 242.348 73.535 M 283.489 73.250 C 282.839 75.058, 276 123.809, 276 126.628 C 276 128.875, 276.334 129, 282.359 129 L 288.717 129 289.859 121.500 C 290.486 117.375, 291.481 110.513, 292.069 106.250 C 294.547 88.290, 295.156 84.236, 296.121 79.265 C 296.679 76.386, 296.854 73.573, 296.509 73.015 C 295.580 71.511, 284.038 71.719, 283.489 73.250 M 302.571 73.775 C 302.261 74.752, 301.526 79.139, 300.936 83.525 C 300.347 87.911, 299.443 94.425, 298.927 98 C 298.073 103.920, 297.585 107.507, 295.415 123.804 L 294.709 129.109 300.596 128.804 L 306.483 128.500 307.113 124 C 307.459 121.525, 308.297 115.563, 308.975 110.750 C 309.652 105.938, 310.528 102, 310.920 102 C 311.313 102, 312.404 105.263, 313.346 109.250 C 314.287 113.237, 315.891 119.200, 316.911 122.500 L 318.765 128.500 324.025 128.807 C 326.918 128.976, 329.760 128.640, 330.341 128.059 C 330.921 127.479, 331.742 124.191, 332.164 120.752 C 333.373 110.927, 334.723 101.146, 335.998 93 C 337.992 80.247, 338.760 73.532, 338.312 72.750 C 338.075 72.338, 335.685 72, 333 72 C 330.315 72, 327.913 72.338, 327.661 72.750 C 327.410 73.162, 326.464 78.900, 325.559 85.500 C 323.685 99.164, 323.075 102.409, 322.491 101.824 C 322.264 101.597, 320.464 95.165, 318.490 87.530 C 316.516 79.896, 314.672 73.278, 314.391 72.824 C 314.111 72.371, 311.464 72, 308.508 72 C 304.240 72, 303.019 72.365, 302.571 73.775 M 397.205 72.829 C 396.115 73.540, 385.413 100.226, 380.375 114.796 C 379.558 117.159, 378.014 121.134, 376.945 123.629 C 375.875 126.124, 375 128.375, 375 128.631 C 375 128.886, 377.813 128.961, 381.250 128.798 L 387.500 128.500 388.969 124.250 L 390.438 120 397.219 120 L 404 120 404 122.918 C 404 128.483, 404.659 129, 411.752 129 L 418.289 129 417.567 122.250 C 415.924 106.909, 413.983 90.785, 412.179 77.500 L 411.500 72.500 405 72.242 C 401.425 72.100, 397.917 72.364, 397.205 72.829 M 420.469 73.500 C 420.211 74.325, 419.775 75.711, 419.501 76.579 C 419.226 77.448, 419.275 79.248, 419.609 80.579 C 420.140 82.692, 420.790 83, 424.724 83 L 429.230 83 428.564 88.750 C 428.197 91.912, 427.494 96.975, 427.001 100 C 426.160 105.161, 424.774 115.025, 423.523 124.750 L 422.976 129 429.443 129 L 435.909 129 436.451 125.750 C 436.749 123.963, 438.119 114.625, 439.495 105 C 442.929 80.989, 442.076 83.158, 448.223 82.802 C 453.346 82.505, 453.449 82.436, 454.319 78.738 C 455.910 71.979, 455.961 72, 437.500 72 C 423.652 72, 420.860 72.246, 420.469 73.500 M 176.673 84.750 C 176.429 85.162, 175.910 87.862, 175.520 90.750 L 174.812 96 177.684 96 C 183.291 96, 187.298 90.293, 184.872 85.761 C 183.919 83.980, 177.593 83.200, 176.673 84.750 M 399.599 93 C 393.495 110.102, 393.493 109.531, 399.666 108.825 L 402.500 108.500 402.152 101.500 C 401.784 94.094, 400.607 90.176, 399.599 93 M 173.640 107.750 C 173.369 108.713, 172.849 111.412, 172.485 113.750 C 171.882 117.631, 172.010 118, 173.962 118 C 179.639 118, 184.025 112.803, 182.473 107.915 C 181.638 105.285, 174.375 105.149, 173.640 107.750 M 106.999 110.250 C 102.554 113.284, 100 118.406, 100 124.284 C 100 130.549, 101.879 134.001, 106.788 136.761 C 114.032 140.832, 122.550 139.250, 126.994 133.008 C 130.039 128.732, 130.754 120.391, 128.486 115.611 C 125.088 108.450, 113.772 105.627, 106.999 110.250 M 114 117.778 C 110.223 118.917, 108.552 125.554, 111.440 127.950 C 113.967 130.047, 118.239 128.824, 119.271 125.707 C 121.030 120.394, 118.408 116.449, 114 117.778" stroke="none" fill="#0e2f1c" fill-rule="evenodd"/></svg>