<svg width="20" height="20" viewBox="0 0 20 20" fill="none" xmlns="http://www.w3.org/2000/svg">
<path d="M9.72392 5.0725C9.52128 3.96782 10.0436 2.83098 10.6727 2.06484C11.3659 1.21951 12.5556 0.571241 13.5723 0.5C13.7441 1.65818 13.2714 2.78662 12.6493 3.58481C11.9818 4.4423 10.8343 5.10726 9.72392 5.0725ZM15.6875 9.07533C16.0021 8.19761 16.6254 7.4079 17.5923 6.87508C16.6152 5.65581 15.2434 4.94794 13.9488 4.94794C12.236 4.94794 11.5118 5.76397 10.3221 5.76397C9.09662 5.76397 8.16689 4.94794 6.68329 4.94794C5.22847 4.94794 3.67987 5.83465 2.69775 7.34904C2.33664 7.90882 2.09202 8.60423 1.95861 9.37881C1.58842 11.5517 2.14139 14.3819 3.7909 16.8949C4.59292 18.1144 5.66194 19.4879 7.05849 19.4999C8.30257 19.512 8.6555 18.7045 10.3397 18.6961C12.0263 18.6865 12.346 19.5082 13.5883 19.4964C14.9853 19.4846 16.1132 17.9645 16.9152 16.7452C17.4863 15.8703 17.7023 15.4283 18.1463 14.4391C15.8884 13.5876 14.9597 11.0995 15.6875 9.07533Z" fill="black"/>
</svg>
