<svg width="36" height="36" viewBox="0 0 36 36" fill="none" xmlns="http://www.w3.org/2000/svg">
<rect width="36" height="36" rx="18" fill="#2DA5F3"/>
<path fill-rule="evenodd" clip-rule="evenodd" d="M22.663 13.0592C22.6973 13.1192 22.7573 13.162 22.8344 13.162C24.8916 13.162 26.5716 14.8401 26.5716 16.895V21.9807C26.5716 24.0356 24.8916 25.7137 22.8344 25.7137H13.1659C11.1001 25.7137 9.42871 24.0356 9.42871 21.9807V16.895C9.42871 14.8401 11.1001 13.162 13.1659 13.162C13.2344 13.162 13.303 13.1277 13.3287 13.0592L13.3801 12.9565C13.4097 12.8943 13.44 12.8304 13.4708 12.7656C13.6901 12.3037 13.9327 11.7927 14.083 11.4924C14.4773 10.7218 15.1459 10.2937 15.9773 10.2852H20.0144C20.8459 10.2937 21.523 10.7218 21.9173 11.4924C22.0523 11.7621 22.2579 12.1965 22.4562 12.6152C22.4971 12.7016 22.5377 12.7874 22.5773 12.8709L22.663 13.0592ZM22.0372 16.3478C22.0372 16.7759 22.3801 17.1183 22.8087 17.1183C23.2372 17.1183 23.5887 16.7759 23.5887 16.3478C23.5887 15.9197 23.2372 15.5686 22.8087 15.5686C22.3801 15.5686 22.0372 15.9197 22.0372 16.3478ZM16.517 17.6734C16.9198 17.271 17.4427 17.0569 17.9998 17.0569C18.557 17.0569 19.0798 17.271 19.4741 17.6648C19.8684 18.0587 20.0827 18.5809 20.0827 19.1375C20.0741 20.2848 19.1484 21.218 17.9998 21.218C17.4427 21.218 16.9198 21.004 16.5255 20.6101C16.1312 20.2163 15.917 19.694 15.917 19.1375V19.1289C15.9084 18.5895 16.1227 18.0672 16.517 17.6734ZM20.374 21.5179C19.7654 22.1258 18.9254 22.5025 17.9997 22.5025C17.0997 22.5025 16.2597 22.1515 15.6169 21.5179C14.9826 20.8758 14.6312 20.0367 14.6312 19.1377C14.6226 18.2473 14.974 17.4082 15.6083 16.7661C16.2512 16.1239 17.0997 15.7729 17.9997 15.7729C18.8997 15.7729 19.7483 16.1239 20.3826 16.7575C21.0169 17.3996 21.3683 18.2473 21.3683 19.1377C21.3597 20.071 20.9826 20.91 20.374 21.5179Z" fill="white"/>
</svg>
