<svg width="16" height="17" viewBox="0 0 16 17" fill="none" xmlns="http://www.w3.org/2000/svg">
<path d="M8 0.287109C3.58214 0.287109 0 3.86925 0 8.28711C0 12.705 3.58214 16.2871 8 16.2871C12.4179 16.2871 16 12.705 16 8.28711C16 3.86925 12.419 0.287109 8 0.287109ZM10.9961 10.0181H7.49773C6.94491 10.0181 6.49582 9.56896 6.49582 9.01614V5.01768C6.49582 4.46486 6.94491 4.01577 7.49773 4.01577C8.05056 4.01577 8.49965 4.46486 8.49965 5.01768C8.49965 5.5705 8.49965 8.01422 8.49965 8.01422H10.9961C11.549 8.01422 11.9981 8.46331 11.9981 9.01614C11.9981 9.56896 11.549 10.0181 10.9961 10.0181Z" fill="#0E2840"/>
</svg>
