<svg width="29" height="28" viewBox="0 0 29 28" fill="none" xmlns="http://www.w3.org/2000/svg">
<path fill-rule="evenodd" clip-rule="evenodd" d="M2.79492 14.0162C2.79492 7.87034 7.70659 2.33203 14.4849 2.33203C21.1116 2.33203 26.1283 7.76518 26.1283 13.9812C26.1283 21.1903 20.2483 25.6654 14.4616 25.6654C12.5483 25.6654 10.4249 25.1513 8.72159 24.1464C8.12659 23.7842 7.62492 23.5155 6.98325 23.7258L4.62659 24.4268C4.03159 24.6138 3.49492 24.1464 3.66992 23.5155L4.45159 20.8982C4.57992 20.536 4.55659 20.1504 4.36992 19.8466C3.36659 18.0005 2.79492 15.9792 2.79492 14.0162ZM12.9449 14.0146C12.9449 14.8442 13.6099 15.5102 14.4383 15.5219C15.2666 15.5219 15.9316 14.8442 15.9316 14.0263C15.9316 13.1967 15.2666 12.5307 14.4383 12.5307C13.6216 12.5191 12.9449 13.1967 12.9449 14.0146ZM18.3233 14.0262C18.3233 14.8441 18.9883 15.5218 19.8166 15.5218C20.6449 15.5218 21.3099 14.8441 21.3099 14.0262C21.3099 13.1966 20.6449 12.5306 19.8166 12.5306C18.9883 12.5306 18.3233 13.1966 18.3233 14.0262ZM9.05995 15.5224C8.24329 15.5224 7.56662 14.8447 7.56662 14.0268C7.56662 13.1972 8.23162 12.5312 9.05995 12.5312C9.88829 12.5312 10.5533 13.1972 10.5533 14.0268C10.5533 14.8447 9.88829 15.5107 9.05995 15.5224Z" fill="#2DA5F3"/>
</svg>
