<svg width="28" height="28" viewBox="0 0 28 28" fill="none" xmlns="http://www.w3.org/2000/svg">
<path d="M9.33337 14H9.34387M13.9895 14H14M18.6562 14H18.6667" stroke="#A2A2A2" stroke-width="3" stroke-linecap="round" stroke-linejoin="round"/>
<path d="M14 25.6673C20.4433 25.6673 25.6667 20.4439 25.6667 14.0007C25.6667 7.55733 20.4433 2.33398 14 2.33398C7.55672 2.33398 2.33337 7.55733 2.33337 14.0007C2.33337 15.867 2.7716 17.6308 3.55074 19.1952C3.7578 19.6109 3.82672 20.0861 3.70668 20.5347L3.0118 23.1318C2.71015 24.2592 3.74155 25.2905 4.86895 24.9889L7.466 24.294C7.91463 24.174 8.38979 24.2429 8.80549 24.4499C10.3698 25.2291 12.1337 25.6673 14 25.6673Z" stroke="#A2A2A2" stroke-width="2"/>
</svg>
