<svg width="44" height="44" viewBox="0 0 44 44" fill="none" xmlns="http://www.w3.org/2000/svg">
<rect width="44" height="44" rx="2" fill="#2DA5F3"/>
<path d="M17.5 29.6504C17.8314 29.6504 18.0996 29.9186 18.0996 30.25C18.0996 30.5814 17.8314 30.8496 17.5 30.8496C17.1686 30.8496 16.9004 30.5814 16.9004 30.25C16.9004 29.9186 17.1686 29.6504 17.5 29.6504Z" fill="white" stroke="white" stroke-width="1.8"/>
<path d="M27.25 29.6504C27.5814 29.6504 27.8496 29.9186 27.8496 30.25C27.8496 30.5814 27.5814 30.8496 27.25 30.8496C26.9186 30.8496 26.6504 30.5814 26.6504 30.25C26.6504 29.9186 26.9186 29.6504 27.25 29.6504Z" fill="white" stroke="white" stroke-width="1.8"/>
<path d="M13.9656 16.75H30.7844L28.3094 25.4125C28.2211 25.7269 28.032 26.0036 27.7711 26.2C27.5103 26.3965 27.1922 26.5019 26.8656 26.5H17.8844C17.5578 26.5019 17.2397 26.3965 16.9789 26.2C16.718 26.0036 16.5289 25.7269 16.4406 25.4125L13.0469 13.5438C13.002 13.387 12.9073 13.2491 12.777 13.1509C12.6468 13.0528 12.4881 12.9998 12.325 13H10.75" stroke="white" stroke-width="1.8" stroke-linecap="round" stroke-linejoin="round"/>
</svg>
