<svg width="25" height="22" viewBox="0 0 25 22" fill="none" xmlns="http://www.w3.org/2000/svg">
<path d="M8.56 22.0006C9.48784 22.0006 10.24 21.2485 10.24 20.3206C10.24 19.3928 9.48784 18.6406 8.56 18.6406C7.63217 18.6406 6.88 19.3928 6.88 20.3206C6.88 21.2485 7.63217 22.0006 8.56 22.0006Z" fill="#1F2744"/>
<path d="M19.48 22.0006C20.4078 22.0006 21.16 21.2485 21.16 20.3206C21.16 19.3928 20.4078 18.6406 19.48 18.6406C18.5521 18.6406 17.8 19.3928 17.8 20.3206C17.8 21.2485 18.5521 22.0006 19.48 22.0006Z" fill="#1F2744"/>
<path d="M4.6015 5.2H23.4385L20.6665 14.902C20.5676 15.2541 20.3558 15.564 20.0637 15.784C19.7715 16.0041 19.4152 16.1221 19.0495 16.12H8.9905C8.62477 16.1221 8.26846 16.0041 7.97633 15.784C7.6842 15.564 7.4724 15.2541 7.3735 14.902L3.5725 1.609C3.52227 1.43339 3.41617 1.27894 3.27028 1.16905C3.12439 1.05915 2.94665 0.999808 2.764 1H1" stroke="#1F2744" stroke-width="1.68" stroke-linecap="round" stroke-linejoin="round"/>
</svg>
