<svg width="14" height="18" viewBox="0 0 14 18" fill="none" xmlns="http://www.w3.org/2000/svg">
<path d="M13.318 6.45673L11.868 16.0563C11.7928 16.6703 11.2909 17.1304 10.6965 17.1304H3.30366C2.70925 17.1304 2.20741 16.6703 2.13215 16.0563L0.681748 6.45673C0.591601 5.72163 1.14174 5.07077 1.85326 5.07077H12.1465C12.8585 5.07077 13.4082 5.72163 13.318 6.45673ZM12.9506 2.53187L10.4378 2.19868C10.5283 1.45646 10.024 0.777934 9.31132 0.683637L5.21969 0.141322C4.50696 0.0470244 3.85541 0.572156 3.76486 1.31438L1.25201 0.981197C0.81214 0.923362 0.4101 1.24733 0.35416 1.7054C0.298221 2.16348 0.609309 2.58216 1.04918 2.64041L12.7478 4.19066C13.1876 4.24892 13.5897 3.92495 13.6456 3.46688C13.7016 3.0088 13.3905 2.59012 12.9506 2.53187Z" fill="#2D65F6"/>
</svg>
