<svg width="20" height="20" viewBox="0 0 20 20" fill="none" xmlns="http://www.w3.org/2000/svg">
<path d="M15.7822 7.24902C15.9484 7.24902 16.0996 7.32086 16.2188 7.44336C16.3297 7.57407 16.3852 7.73672 16.3691 7.9082C16.3691 7.96487 15.9246 13.5821 15.6709 15.9463C15.512 17.397 14.5767 18.2776 13.1738 18.3018C12.0953 18.3259 11.041 18.334 10.0029 18.334C8.90072 18.334 7.82266 18.3259 6.77637 18.3018C5.42062 18.2692 4.48479 17.3728 4.33398 15.9463C4.07302 13.5738 3.63701 7.96487 3.62891 7.9082C3.62093 7.73673 3.67539 7.57407 3.78711 7.44336C3.89733 7.32086 4.05668 7.24902 4.22363 7.24902H15.7822ZM11.7207 1.66797C12.4573 1.66801 13.1152 2.18182 13.3057 2.91504L13.4424 3.52344C13.5526 4.01924 13.9822 4.37012 14.4766 4.37012H16.9062C17.2302 4.37029 17.4998 4.63922 17.5 4.98145V5.29883C17.4998 5.63271 17.2302 5.90998 16.9062 5.91016H3.09473C2.76993 5.91007 2.50021 5.63277 2.5 5.29883V4.98145C2.50017 4.63916 2.7699 4.3702 3.09473 4.37012H5.52441C6.01793 4.37012 6.4475 4.01933 6.55859 3.52441L6.68555 2.95605C6.88329 2.18193 7.53452 1.66801 8.2793 1.66797H11.7207Z" fill="#EF7358"/>
</svg>
