<svg width="21" height="22" viewBox="0 0 21 22" fill="none" xmlns="http://www.w3.org/2000/svg">
<path d="M1.72767 19.9437L1.79839 19.873L1.72768 19.9437C2.36673 20.5827 3.16867 20.8535 4.10291 20.9791L4.11624 20.88L4.10292 20.9791C4.99878 21.0994 6.13482 21.0994 7.53166 21.0994H7.53868H13.8051H13.8121C15.209 21.0994 16.345 21.0994 17.2409 20.9791L17.2276 20.88L17.2409 20.9791C18.1751 20.8535 18.977 20.5827 19.6161 19.9436C20.2552 19.3046 20.5259 18.5027 20.6515 17.5685L20.5524 17.5551L20.6515 17.5684C20.7719 16.6726 20.7719 15.5365 20.7719 14.1397V14.1327V14.0764C20.7719 13.5963 20.3827 13.2071 19.9027 13.2071C19.4226 13.2071 19.0334 13.5963 19.0334 14.0764C19.0334 15.5514 19.0316 16.5702 18.9286 17.3368C18.8288 18.0782 18.6491 18.4521 18.3868 18.7144C18.1246 18.9766 17.7507 19.1564 17.0092 19.2561C16.2427 19.3591 15.2239 19.361 13.7488 19.361H7.59496C6.11986 19.361 5.10105 19.3591 4.33455 19.2561C3.59312 19.1564 3.21917 18.9766 2.95696 18.7144C2.69474 18.4521 2.51492 18.0782 2.41524 17.3368C2.31218 16.5702 2.31034 15.5514 2.31034 14.0764C2.31034 13.5963 1.92117 13.2071 1.44111 13.2071C0.961047 13.2071 0.571876 13.5963 0.571876 14.0764V14.1327L0.571875 14.1398C0.571855 15.5365 0.571839 16.6726 0.692275 17.5685C0.817885 18.5027 1.08863 19.3046 1.72767 19.9437ZM11.3136 15.6891L11.2398 15.6216L11.3136 15.6891L15.4162 11.2019C15.7401 10.8477 15.7155 10.2978 15.3612 9.97389C15.0069 9.64997 14.4571 9.67453 14.1332 10.0288L11.5413 12.8637V1.76923C11.5413 1.28917 11.1521 0.9 10.6721 0.9C10.192 0.9 9.80286 1.28917 9.80286 1.76923V12.8637L7.21105 10.0288C6.88711 9.67453 6.33729 9.64997 5.983 9.97389C5.62871 10.2978 5.60407 10.8476 5.92801 11.2019L10.0306 15.6891L10.1044 15.6216L10.0306 15.6891C10.1953 15.8692 10.428 15.9718 10.6721 15.9718C10.9162 15.9718 11.1489 15.8692 11.3136 15.6891Z" fill="white" stroke="white" stroke-width="0.2"/>
</svg>
