<svg width="13" height="18" viewBox="0 0 13 18" fill="none" xmlns="http://www.w3.org/2000/svg">
<path d="M11.8317 9.06913L6.77914 17.0648C6.70078 17.1874 6.59214 17.2876 6.46377 17.3556C6.3354 17.4237 6.19166 17.4573 6.04651 17.4532C5.9684 17.4655 5.88884 17.4655 5.81072 17.4532C5.63014 17.4006 5.47234 17.2888 5.36245 17.1358C5.25257 16.9828 5.19693 16.7973 5.20441 16.6089V11.543H1.68445C1.38294 11.543 1.08696 11.4619 0.827386 11.3081C0.567816 11.1543 0.35418 10.9335 0.208782 10.6687C0.063383 10.4039 -0.00844709 10.1048 0.000790923 9.8026C0.0100289 9.50045 0.0999962 9.20632 0.2613 8.95092L5.31389 0.955228C5.40831 0.790814 5.55521 0.663077 5.7309 0.592615C5.90659 0.522154 6.10083 0.513075 6.2823 0.566842C6.46288 0.619488 6.62069 0.731225 6.73057 0.884243C6.84045 1.03726 6.89609 1.22276 6.88861 1.41116V6.47707H10.4086C10.7101 6.47703 11.0061 6.55813 11.2656 6.71192C11.5252 6.86571 11.7388 7.08654 11.8842 7.35137C12.0296 7.61619 12.1015 7.91529 12.0922 8.21745C12.083 8.5196 11.993 8.81373 11.8317 9.06913Z" fill="white"/>
</svg>
