<svg width="44" height="44" viewBox="0 0 44 44" fill="none" xmlns="http://www.w3.org/2000/svg">
<path d="M29.4482 3.83984C35.4874 3.84007 39.5448 8.06447 39.5449 14.3701V29.0605C39.5449 29.3305 39.4967 29.572 39.4824 29.833C39.4735 29.985 39.4754 30.1371 39.4629 30.2891C39.4557 30.3569 39.4359 30.4194 39.4287 30.4873C39.3697 31.0489 39.2783 31.586 39.1514 32.1064C39.1192 32.2458 39.0815 32.3799 39.0439 32.5156C38.9009 33.0199 38.7333 33.5014 38.5312 33.9609C38.4723 34.0896 38.4075 34.2129 38.3467 34.3398C38.1285 34.7779 37.8927 35.1981 37.6191 35.5879C37.5351 35.7077 37.4421 35.8154 37.3545 35.9316C37.0701 36.3 36.7727 36.6525 36.4365 36.9727C36.3275 37.0762 36.2042 37.1654 36.0898 37.2637C35.7447 37.5605 35.392 37.8447 35.0039 38.0879C34.8645 38.1754 34.7113 38.2407 34.5684 38.3193C34.1731 38.5375 33.7735 38.7495 33.3389 38.9141C33.1602 38.9819 32.9622 39.0182 32.7764 39.0771C32.3489 39.2095 31.9264 39.3471 31.4668 39.4258C31.1199 39.4866 30.7427 39.494 30.3779 39.5244C30.0669 39.5477 29.7718 39.6083 29.4482 39.6084H13.8604C13.1879 39.6084 12.5454 39.5404 11.9248 39.4385C11.9016 39.4349 11.8798 39.4313 11.8584 39.4277C9.439 39.011 7.43084 37.8433 6.02344 36.082C6.00741 36.082 6.00709 36.0639 5.99121 36.0479C4.57661 34.2666 3.77738 31.8718 3.77734 29.0605V14.3701C3.77744 8.0643 7.83884 3.83984 13.8604 3.83984H29.4482ZM13.8604 6.33398C9.25173 6.33398 6.27358 9.49413 6.27344 14.3691V29.0596C6.27345 30.4276 6.52735 31.6491 6.96191 32.7061C7.01735 32.6399 10.482 28.4157 10.498 28.4014C11.7356 26.9885 14.0584 24.8823 17.1074 26.1572C17.8407 26.4613 18.485 26.8881 19.0752 27.2637C20.0998 27.9485 20.7023 28.2704 21.3281 28.2168C21.5873 28.181 21.8309 28.1049 22.0615 27.9619C23.0591 27.3469 25.8779 23.2363 26.0498 23.0098C27.9992 20.4702 31.004 19.7897 33.5078 21.292C33.8443 21.4925 36.2519 23.1754 37.0498 23.8516V14.3691C37.0497 9.49413 34.072 6.33398 29.4473 6.33398H13.8604ZM15.3643 10.9932C16.612 10.9932 17.7425 11.5175 18.5518 12.3545C19.3645 13.1622 19.874 14.2762 19.874 15.4912C19.8739 17.9143 17.8458 19.9355 15.4111 19.9355C13.271 19.9354 11.4461 18.3711 11.0371 16.3467C10.9696 16.0431 10.9316 15.7308 10.9316 15.4082C10.9316 12.9678 12.914 10.9933 15.3643 10.9932Z" fill="#191C1F" fill-opacity="0.4"/>
</svg>
