<svg width="22" height="22" viewBox="0 0 22 22" fill="none" xmlns="http://www.w3.org/2000/svg">
<path d="M20.3282 11.1995C20.3282 10.4563 20.2667 9.91397 20.1335 9.35156H11.4739V12.7059H16.5569C16.4544 13.5395 15.901 14.7949 14.6712 15.6385L14.654 15.7508L17.392 17.8295L17.5817 17.848C19.3238 16.2712 20.3282 13.9513 20.3282 11.1995" fill="#4285F4"/>
<path d="M11.4731 20.0383C13.9633 20.0383 16.0539 19.2348 17.5809 17.8489L14.6704 15.6393C13.8916 16.1716 12.8463 16.5432 11.4731 16.5432C9.03406 16.5432 6.96398 14.9665 6.22605 12.7871L6.11789 12.7961L3.27087 14.9554L3.23364 15.0568C4.75033 18.0095 7.86574 20.0383 11.4731 20.0383Z" fill="#34A853"/>
<path d="M6.22645 12.7875C6.03174 12.2251 5.91906 11.6225 5.91906 10.9999C5.91906 10.3771 6.03174 9.77458 6.21621 9.21217L6.21105 9.0924L3.32835 6.89844L3.23403 6.9424C2.60893 8.16768 2.25024 9.54361 2.25024 10.9999C2.25024 12.4561 2.60893 13.832 3.23403 15.0572L6.22645 12.7875" fill="#FBBC05"/>
<path d="M11.4731 5.45591C13.205 5.45591 14.3733 6.18906 15.0394 6.80173L17.6424 4.31102C16.0438 2.85478 13.9634 1.96094 11.4731 1.96094C7.86577 1.96094 4.75034 3.98963 3.23364 6.94228L6.21582 9.21205C6.964 7.0327 9.0341 5.45591 11.4731 5.45591" fill="#EB4335"/>
</svg>
