<svg width="24" height="24" viewBox="0 0 24 24" fill="none" xmlns="http://www.w3.org/2000/svg">
<path d="M12 20.875C12 20.875 3.05115 15.8636 3.05115 9.77842C3.05115 8.70266 3.42386 7.66013 4.10588 6.82821C4.7879 5.99628 5.73708 5.42635 6.79195 5.21537C7.84681 5.0044 8.94219 5.16542 9.89172 5.67104C10.8412 6.17666 11.5863 6.99564 12 7.98864C12.4138 6.99564 13.1588 6.17666 14.1083 5.67104C15.0578 5.16542 16.1532 5.0044 17.2081 5.21537C18.2629 5.42635 19.2121 5.99628 19.8941 6.82821C20.5762 7.66013 20.9489 8.70266 20.9489 9.77842C20.9489 15.8636 12 20.875 12 20.875Z" fill="#F6475E" stroke="#F6475E" stroke-width="1.43182" stroke-linecap="round" stroke-linejoin="round"/>
</svg>
