<svg width="20" height="19" viewBox="0 0 20 19" fill="none" xmlns="http://www.w3.org/2000/svg">
<path d="M8.95708 8.61206C8.67012 8.89912 8.50895 9.28842 8.50902 9.69431C8.5091 10.1002 8.6704 10.4894 8.95746 10.7764C9.24452 11.0634 9.63382 11.2245 10.0397 11.2245C10.4456 11.2244 10.8348 11.0631 11.1218 10.776M13.6216 13.2691C12.5482 13.9407 11.3059 14.2928 10.0398 14.2845C7.2851 14.2845 4.98953 12.7541 3.15308 9.69336C4.1264 8.07116 5.22827 6.879 6.45869 6.11687M8.64713 5.23996C9.10551 5.14717 9.5721 5.10102 10.0398 5.10223C12.7945 5.10223 15.09 6.63261 16.9265 9.69336C16.4169 10.5427 15.8713 11.275 15.2905 11.8895M3.15308 2.80664L16.9265 16.58" stroke="#ACB5BB" stroke-width="1.49212" stroke-linecap="round" stroke-linejoin="round"/>
</svg>
