<svg width="28" height="28" viewBox="0 0 28 28" fill="none" xmlns="http://www.w3.org/2000/svg">
<path d="M2.33325 14.2346C2.33325 11.5648 2.33325 10.2299 2.93899 9.12327C3.54472 8.01666 4.65136 7.32984 6.86462 5.95623L9.19795 4.50809C11.5375 3.05608 12.7074 2.33008 13.9999 2.33008C15.2925 2.33008 16.4623 3.05608 18.8019 4.50809L21.1352 5.95622C23.3485 7.32984 24.4551 8.01666 25.0608 9.12327C25.6666 10.2299 25.6666 11.5648 25.6666 14.2346V16.0092C25.6666 20.5602 25.6666 22.8358 24.2997 24.2495C22.933 25.6634 20.733 25.6634 16.3332 25.6634H11.6666C7.2668 25.6634 5.06693 25.6634 3.70008 24.2495C2.33325 22.8358 2.33325 20.5602 2.33325 16.0092V14.2346Z" stroke="#A2A2A2" stroke-width="2"/>
<path d="M17.4999 21H10.4999" stroke="#A2A2A2" stroke-width="2" stroke-linecap="round"/>
</svg>
