<svg width="29" height="28" viewBox="0 0 29 28" fill="none" xmlns="http://www.w3.org/2000/svg">
<path fill-rule="evenodd" clip-rule="evenodd" d="M2.649 8.77841C2 9.96409 2 11.3943 2 14.2549V16.1562C2 21.0322 2 23.4703 3.46446 24.9851C4.92893 26.5 7.28594 26.5 12 26.5H17C21.714 26.5 24.0711 26.5 25.5355 24.9851C27 23.4703 27 21.0322 27 16.1562V14.2549C27 11.3943 27 9.96409 26.351 8.77841C25.702 7.59275 24.5163 6.85688 22.145 5.38514L19.645 3.83358C17.1382 2.27786 15.8849 1.5 14.5 1.5C13.1151 1.5 11.8617 2.27786 9.35502 3.83358L6.85503 5.38516C4.48368 6.85688 3.298 7.59275 2.649 8.77841ZM10.75 20.5625C10.2322 20.5625 9.81249 20.9822 9.81249 21.5C9.81249 22.0177 10.2322 22.4375 10.75 22.4375H18.25C18.7677 22.4375 19.1875 22.0177 19.1875 21.5C19.1875 20.9822 18.7677 20.5625 18.25 20.5625H10.75Z" fill="#2DA5F3"/>
</svg>
