<svg width="24" height="24" viewBox="0 0 24 24" fill="none" xmlns="http://www.w3.org/2000/svg">
<path d="M12 19.875C12 19.875 3.05115 14.8636 3.05115 8.77842C3.05115 7.70266 3.42386 6.66013 4.10588 5.82821C4.7879 4.99628 5.73708 4.42635 6.79195 4.21537C7.84681 4.0044 8.94219 4.16542 9.89172 4.67104C10.8412 5.17666 11.5863 5.99564 12 6.98864C12.4138 5.99564 13.1588 5.17666 14.1083 4.67104C15.0578 4.16542 16.1532 4.0044 17.2081 4.21537C18.2629 4.42635 19.2121 4.99628 19.8941 5.82821C20.5762 6.66013 20.9489 7.70266 20.9489 8.77842C20.9489 14.8636 12 19.875 12 19.875Z" stroke="white" stroke-width="1.43182" stroke-linecap="round" stroke-linejoin="round"/>
</svg>
