<svg width="41" height="41" viewBox="0 0 41 41" fill="none" xmlns="http://www.w3.org/2000/svg">
<rect x="0.375" y="0.375" width="40.25" height="40.25" rx="20.125" fill="white" stroke="#EDEDED" stroke-width="0.75"/>
<path d="M20.7979 8C27.326 8.00001 32.5957 13.2697 32.5957 19.7979C32.5957 26.326 27.326 31.5957 20.7979 31.5957C19.2248 31.5957 17.7302 31.2816 16.3145 30.6523L10.8877 33.0898C10.8091 33.1684 10.652 33.1689 10.5732 33.1689C10.416 33.1689 10.1802 33.0899 10.1016 32.9326C9.86561 32.6967 9.78658 32.382 9.86523 32.0674L11.5166 27.0342C9.86491 24.9892 9 22.472 9 19.7979C9 13.2697 14.2697 8 20.7979 8Z" fill="#2DA5F3"/>
<circle cx="14.9655" cy="19.6667" r="1.66667" fill="white"/>
<circle cx="20.7995" cy="19.6667" r="1.66667" fill="white"/>
<circle cx="26.6335" cy="19.6667" r="1.66667" fill="white"/>
</svg>
