<svg width="276" height="206" viewBox="0 0 276 206" fill="none" xmlns="http://www.w3.org/2000/svg">
<g clip-path="url(#clip0_3482_4360)">
<path d="M201.363 195.711H195.879L193.27 174.561H201.363V195.711Z" fill="#9E616A"/>
<path d="M204.257 205.213H200.325L199.623 201.5L197.825 205.213H187.395C186.896 205.213 186.409 205.053 186.006 204.757C185.603 204.461 185.306 204.044 185.157 203.566C185.008 203.089 185.016 202.577 185.179 202.104C185.342 201.632 185.652 201.223 186.063 200.939L194.392 195.187V191.434L203.153 191.956L204.257 205.213Z" fill="#2F2E41"/>
<path d="M233.94 188.793L229.539 192.065L214.824 176.65L221.319 171.82L233.94 188.793Z" fill="#9E616A"/>
<path d="M241.933 194.689L238.777 197.036L235.999 194.475L236.771 198.527L228.402 204.751C228.001 205.049 227.515 205.212 227.015 205.214C226.515 205.217 226.027 205.059 225.623 204.765C225.219 204.471 224.919 204.055 224.768 203.579C224.617 203.102 224.622 202.59 224.783 202.116L228.034 192.53L225.794 189.518L233.136 184.71L241.933 194.689Z" fill="#2F2E41"/>
<path d="M207.748 86.5845C207.748 86.5845 218.153 95.5733 213.352 121.198L207.492 146.306L226.604 178.014L220.51 185.428L195.663 151.108L186.659 129.987L184.133 92.3973L207.748 86.5845Z" fill="#2F2E41"/>
<path d="M191.622 136.006L190.996 145.697L192.911 186.997L201.923 185.428L203.645 156.023L191.622 136.006Z" fill="#2F2E41"/>
<path d="M75.9772 200.686L80.8812 200.686L83.2138 181.771L75.9766 181.771L75.9772 200.686Z" fill="#FFB6B6"/>
<path d="M74.7285 199.084L76.1088 199.084L81.4976 196.893L84.3859 199.084H84.3863C86.0185 199.084 87.5838 199.732 88.738 200.886C89.8922 202.041 90.5406 203.606 90.5407 205.238V205.438L74.7288 205.439L74.7285 199.084Z" fill="#2F2E41"/>
<path d="M94.9805 197.596L99.7637 198.676L106.206 180.74L99.1462 179.146L94.9805 197.596Z" fill="#FFB6B6"/>
<path d="M94.1124 195.757L95.4588 196.061L101.198 195.111L103.533 197.884L103.533 197.885C105.125 198.244 106.509 199.221 107.381 200.601C108.252 201.982 108.54 203.651 108.181 205.243L108.137 205.438L92.7129 201.956L94.1124 195.757Z" fill="#2F2E41"/>
<path d="M69.7676 85.0508C67.4685 91.985 67.7115 99.5119 70.3202 107.59L71.4354 153.074C71.4354 153.074 69.7739 182.901 75.1353 193.397H82.9109L86.7607 150.35L87.2441 121.456L103.914 145.833L93.2965 192.693L102.866 193.549L120.096 142.694L98.8381 93.3566L69.7676 85.0508Z" fill="#2F2E41"/>
<path d="M159.437 65.2992C165.384 59.9399 174.23 57.2451 181.651 60.2502C174.039 64.4762 168.168 71.2584 165.075 79.3968C163.894 82.5397 162.907 86.1584 160.001 87.8411C158.193 88.8881 155.944 88.9393 153.917 88.4338C151.89 87.9283 150.032 86.9151 148.199 85.912L147.678 85.9002C150.019 78.2442 153.489 70.6586 159.437 65.2992Z" fill="#E6E6E6"/>
<path d="M181.608 60.4127C175.036 61.262 168.899 64.1604 164.068 68.6963C163.011 69.6543 162.111 70.773 161.402 72.0112C160.75 73.2397 160.439 74.6202 160.502 76.0094C160.534 77.3059 160.717 78.6283 160.433 79.91C160.278 80.5639 159.987 81.1776 159.578 81.7111C159.17 82.2445 158.653 82.6854 158.062 83.0051C156.609 83.8398 154.944 84.1029 153.306 84.3037C151.488 84.5266 149.596 84.7292 148.022 85.7491C147.831 85.8727 147.65 85.5696 147.841 85.4462C150.579 83.6717 154.044 84.3174 156.989 83.1331C158.363 82.5805 159.579 81.6105 160.009 80.1439C160.385 78.8615 160.198 77.4976 160.154 76.1852C160.073 74.8309 160.326 73.4774 160.888 72.243C161.532 70.9728 162.387 69.8213 163.417 68.8379C165.701 66.587 168.324 64.7091 171.191 63.273C174.453 61.6159 177.975 60.5292 181.605 60.0598C181.829 60.0308 181.831 60.3839 181.608 60.4127Z" fill="white"/>
<path d="M165.54 67.145C164.889 66.2311 164.584 65.1157 164.679 63.9977C164.775 62.8798 165.265 61.8322 166.061 61.0421C166.223 60.8828 166.478 61.1266 166.316 61.2862C165.573 62.0206 165.117 62.9964 165.03 64.0376C164.943 65.0788 165.231 66.1167 165.843 66.9641C165.975 67.1484 165.672 67.3282 165.54 67.145Z" fill="white"/>
<path d="M160.4 75.3538C162.659 75.7539 164.985 75.2881 166.915 74.0493C167.106 73.9264 167.287 74.2295 167.096 74.3522C165.085 75.6376 162.663 76.1174 160.314 75.6959C160.09 75.6555 160.178 75.3137 160.4 75.3538Z" fill="white"/>
<path d="M174.484 62.0827C174.662 62.4888 174.939 62.8442 175.288 63.1171C175.638 63.39 176.049 63.5719 176.487 63.6463C176.711 63.6837 176.623 64.0256 176.4 63.9884C175.918 63.904 175.463 63.7026 175.076 63.4019C174.689 63.1013 174.382 62.7104 174.181 62.2636C174.159 62.2231 174.152 62.1755 174.164 62.1306C174.175 62.0856 174.203 62.0467 174.242 62.0217C174.282 61.9979 174.33 61.991 174.376 62.0025C174.421 62.0139 174.46 62.0427 174.484 62.0827Z" fill="white"/>
<path d="M189.822 86.0944C189.681 86.075 189.54 86.0556 189.398 86.0383C187.504 85.7871 185.594 85.69 183.685 85.7482C183.537 85.7503 183.388 85.7547 183.24 85.7611C178.643 85.9502 174.121 86.9911 169.903 88.8311C168.226 89.5648 166.606 90.4251 165.059 91.4045C162.923 92.7572 160.714 94.3938 158.326 94.9455C158.077 95.0059 157.825 95.0508 157.571 95.0799L147.704 86.536C147.691 86.5053 147.676 86.4768 147.663 86.446L147.254 86.1229C147.33 86.0668 147.41 86.0103 147.487 85.9542C147.531 85.9215 147.577 85.8907 147.621 85.8579C147.651 85.8367 147.682 85.8156 147.707 85.7948C147.717 85.7877 147.728 85.7806 147.736 85.7758C147.762 85.7549 147.788 85.7383 147.812 85.7197C148.26 85.4025 148.711 85.0879 149.165 84.7758C149.167 84.7736 149.167 84.7736 149.171 84.7732C152.607 82.3626 156.318 80.3681 160.224 78.8316C160.342 78.7873 160.461 78.7407 160.582 78.7003C162.342 78.0462 164.151 77.5369 165.994 77.1776C167.003 76.9841 168.022 76.8419 169.045 76.7514C171.691 76.5226 174.356 76.7114 176.943 77.3109C182.1 78.5067 186.818 81.3385 189.612 85.7549C189.683 85.8679 189.752 85.9792 189.822 86.0944Z" fill="#E6E6E6"/>
<path d="M189.69 86.2007C183.931 82.922 177.286 81.5412 170.698 82.2543C169.277 82.3827 167.885 82.7342 166.574 83.296C165.314 83.8845 164.234 84.7997 163.448 85.9464C162.693 87.0009 162.043 88.167 161.045 89.0196C160.527 89.4484 159.925 89.7631 159.277 89.9429C158.63 90.1227 157.952 90.1636 157.287 90.0629C155.625 89.855 154.137 89.0624 152.709 88.2366C151.123 87.3198 149.49 86.3424 147.619 86.2091C147.392 86.193 147.431 85.8422 147.657 85.8583C150.912 86.0903 153.29 88.6921 156.354 89.5194C157.784 89.9054 159.338 89.8629 160.565 88.951C161.638 88.1536 162.309 86.9517 163.064 85.8774C163.815 84.7475 164.831 83.8186 166.024 83.172C167.303 82.5453 168.679 82.1407 170.093 81.9756C173.272 81.5532 176.497 81.6331 179.65 82.2125C183.253 82.8538 186.72 84.1067 189.9 85.917C190.097 86.0291 189.886 86.3121 189.69 86.2007Z" fill="white"/>
<path d="M172.807 81.9019C172.837 80.7803 173.265 79.7061 174.015 78.871C174.764 78.0359 175.786 77.4944 176.897 77.3431C177.122 77.3133 177.179 77.6616 176.954 77.6915C175.919 77.8304 174.967 78.335 174.271 79.114C173.574 79.8931 173.18 80.8953 173.158 81.9399C173.152 82.1669 172.802 82.1276 172.807 81.9019Z" fill="white"/>
<path d="M163.76 85.3627C165.322 87.0419 167.46 88.0706 169.747 88.2436C169.974 88.2605 169.935 88.6113 169.709 88.5944C167.329 88.4099 165.107 87.3349 163.485 85.5839C163.331 85.4169 163.606 85.1966 163.76 85.3627Z" fill="white"/>
<path d="M182.996 83.2457C182.894 83.6772 182.9 84.1273 183.015 84.5557C183.13 84.984 183.349 85.3772 183.653 85.6998C183.81 85.8647 183.534 86.0849 183.378 85.921C183.044 85.563 182.802 85.1285 182.674 84.6555C182.546 84.1826 182.536 83.6855 182.645 83.2077C182.651 83.1618 182.675 83.1201 182.711 83.0911C182.747 83.062 182.793 83.0478 182.839 83.0513C182.886 83.0566 182.928 83.0799 182.957 83.1163C182.987 83.1527 183 83.1992 182.996 83.2457Z" fill="white"/>
<path d="M16.5045 200.343C16.0413 202.081 14.8242 203.528 13.3547 204.582C13.1151 204.755 12.8691 204.914 12.6199 205.064C12.5433 205.109 12.4666 205.157 12.3867 205.199C12.3005 205.25 12.2142 205.298 12.128 205.342H5.21814C5.09356 205.09 4.97216 204.834 4.85077 204.582C1.88942 198.359 -0.190233 191.644 0.164362 184.805C0.305043 182.152 0.86239 179.537 1.81595 177.058C3.71351 172.116 7.17641 167.838 11.9395 165.685C12.0577 165.631 12.1823 165.577 12.3037 165.525C12.2653 165.663 12.227 165.797 12.1887 165.934C11.6777 167.775 11.3166 169.654 11.1089 171.554C11.0897 171.7 11.0738 171.847 11.061 171.998C10.6071 176.578 11.0101 181.202 12.2494 185.635C12.2526 185.645 12.2557 185.657 12.2589 185.667C12.5305 186.648 12.8457 187.614 13.2045 188.565C13.4856 189.315 13.7891 190.056 14.1214 190.785C15.5078 193.842 17.367 197.1 16.5045 200.343Z" fill="#E6E6E6"/>
<path d="M12.3905 165.669C12.3234 165.759 12.2563 165.845 12.1892 165.934C10.7861 167.794 9.59464 169.804 8.63687 171.927C8.58576 172.033 8.53784 172.138 8.49631 172.247C7.18398 175.212 6.34118 178.363 5.99817 181.588C5.99446 181.61 5.99233 181.632 5.99179 181.655C5.91192 182.409 5.864 183.169 5.84483 183.929C5.7738 185.354 5.92796 186.782 6.30165 188.159C6.64239 189.283 7.23946 190.313 8.04588 191.168C8.12574 191.254 8.20561 191.341 8.29186 191.424C8.35575 191.491 8.42603 191.558 8.49312 191.622C9.13842 192.238 9.84441 192.81 10.4514 193.471C10.7296 193.768 10.9808 194.089 11.2021 194.43C11.5553 195.001 11.7834 195.641 11.8715 196.308C11.9596 196.974 11.9056 197.651 11.7132 198.295C11.2788 199.912 10.2853 201.276 9.26939 202.576C8.76146 203.227 8.23755 203.886 7.78392 204.582C7.61782 204.831 7.46447 205.083 7.32393 205.342H6.92142C7.05559 205.083 7.20254 204.831 7.36227 204.582C8.52828 202.745 10.1863 201.167 11.0456 199.145C11.627 197.781 11.8027 196.235 11.0679 194.896C10.8526 194.507 10.592 194.144 10.2917 193.816C9.70707 193.155 9.00746 192.59 8.37175 191.992C8.21202 191.842 8.05548 191.689 7.90534 191.529C7.10932 190.72 6.49506 189.751 6.10361 188.686C5.6603 187.333 5.45072 185.915 5.48387 184.491C5.48387 183.584 5.53179 182.671 5.62124 181.763C5.63082 181.648 5.6436 181.53 5.65638 181.412C6.30967 175.703 8.47933 170.273 11.9401 165.685C12.004 165.596 12.071 165.509 12.1381 165.423C12.2755 165.244 12.5278 165.493 12.3905 165.669Z" fill="white"/>
<path d="M5.78455 181.793C4.67805 181.608 3.67364 181.034 2.9507 180.176C2.22776 179.318 1.83336 178.231 1.83793 177.109C1.83854 177.064 1.85689 177.02 1.8891 176.987C1.92132 176.955 1.96489 176.936 2.01063 176.935C2.05638 176.934 2.10072 176.951 2.13433 176.982C2.16793 177.013 2.18817 177.056 2.19079 177.102C2.1846 178.146 2.55208 179.159 3.22692 179.957C3.90175 180.754 4.83949 181.284 5.87086 181.451C6.09495 181.488 6.00735 181.83 5.78455 181.793Z" fill="white"/>
<path d="M7.95709 191.231C9.83696 189.917 11.1525 187.943 11.6414 185.702C11.6897 185.48 12.0317 185.566 11.9835 185.788C11.4704 188.119 10.0972 190.171 8.13798 191.534C7.95115 191.664 7.77127 191.36 7.95709 191.231Z" fill="white"/>
<path d="M8.53093 171.889C8.94408 172.05 9.39077 172.106 9.8309 172.052C10.271 171.998 10.6908 171.835 11.0525 171.579C11.2376 171.447 11.4173 171.751 11.2334 171.882C10.8324 172.163 10.3686 172.343 9.88248 172.403C9.39634 172.464 8.90267 172.405 8.44461 172.231C8.40006 172.219 8.36204 172.189 8.33828 172.15C8.31453 172.11 8.30681 172.063 8.3167 172.017C8.32836 171.972 8.35741 171.933 8.39752 171.909C8.43763 171.885 8.48558 171.878 8.53093 171.889Z" fill="white"/>
<path d="M36.355 178.023C36.2432 178.109 36.1282 178.195 36.0164 178.285C34.4997 179.445 33.0798 180.727 31.7708 182.118C31.6686 182.223 31.5664 182.332 31.4673 182.441L31.4641 182.444C28.3603 185.813 25.9061 189.727 24.2253 193.989L24.2157 194.018C24.2125 194.027 24.2093 194.034 24.2061 194.043C23.5399 195.749 23.0027 197.502 22.5993 199.289C22.2095 201.033 21.8901 202.902 21.2799 204.582C21.1873 204.841 21.085 205.096 20.9764 205.342H6.77344C6.82136 205.09 6.87247 204.834 6.92358 204.582C7.64608 200.881 8.77528 197.27 10.2906 193.816C10.3418 193.701 10.3929 193.586 10.4504 193.471C11.2327 191.765 12.1525 190.125 13.2009 188.568L13.2011 188.567L13.2018 188.566L13.2028 188.565L13.2041 188.565C13.7797 187.715 14.3981 186.895 15.0569 186.108C16.7654 184.075 18.7836 182.324 21.0371 180.92C21.0499 180.91 21.0659 180.904 21.0786 180.894C25.5638 178.112 30.8795 176.786 35.9621 177.933H35.9653C36.0962 177.962 36.224 177.991 36.355 178.023Z" fill="#E6E6E6"/>
<path d="M36.3384 178.19C36.2297 178.219 36.1211 178.251 36.0157 178.282C33.7768 178.922 31.6158 179.808 29.5723 180.924C29.4701 180.979 29.3678 181.036 29.2656 181.094C26.4415 182.67 23.878 184.673 21.6658 187.032C21.664 187.034 21.6629 187.036 21.6626 187.039C21.637 187.064 21.6083 187.093 21.5859 187.119C21.0748 187.668 20.5828 188.24 20.1164 188.828C19.2041 189.924 18.469 191.156 17.9377 192.479C17.5318 193.582 17.3885 194.764 17.5192 195.932C17.5288 196.051 17.5448 196.166 17.5608 196.284C17.5736 196.376 17.5863 196.469 17.6023 196.565C17.8131 197.846 18.1773 199.13 18.0751 200.437C18.0129 201.106 17.8097 201.755 17.4788 202.34C17.1478 202.925 16.6968 203.434 16.1552 203.832C15.787 204.117 15.3935 204.367 14.9796 204.58C14.3878 204.885 13.7711 205.139 13.1363 205.34H11.8809C12.0502 205.292 12.2163 205.244 12.3856 205.197C12.9864 205.027 13.5764 204.821 14.1522 204.58C14.4811 204.442 14.8012 204.285 15.1106 204.107C16.3948 203.369 17.465 202.238 17.6886 200.727C17.8834 199.405 17.5065 198.082 17.2829 196.789C17.2445 196.565 17.2094 196.344 17.1902 196.124C17.0377 195.004 17.1303 193.864 17.4617 192.783C17.9214 191.434 18.6086 190.174 19.4935 189.058C20.0409 188.331 20.6252 187.632 21.2441 186.965C21.3208 186.879 21.4006 186.793 21.4837 186.707C23.7424 184.33 26.3504 182.313 29.2177 180.723H29.2209C31.3529 179.536 33.6147 178.599 35.9614 177.931H35.9646C36.07 177.899 36.1786 177.867 36.2841 177.838C36.5045 177.781 36.5556 178.129 36.3384 178.19Z" fill="white"/>
<path d="M21.3566 187.088C20.585 186.274 20.1281 185.211 20.0675 184.091C20.0068 182.97 20.3464 181.865 21.0256 180.972C21.1636 180.792 21.4502 180.998 21.312 181.178C20.678 182.009 20.3618 183.038 20.4204 184.082C20.479 185.125 20.9085 186.113 21.6315 186.867C21.7884 187.031 21.5126 187.251 21.3566 187.088Z" fill="white"/>
<path d="M17.409 195.93C19.7011 196.013 21.9401 195.229 23.6796 193.734C23.8519 193.586 24.0729 193.861 23.9008 194.009C22.0878 195.561 19.756 196.373 17.371 196.281C17.1437 196.272 17.1829 195.922 17.409 195.93Z" fill="white"/>
<path d="M29.5128 180.835C29.7456 181.212 30.0686 181.526 30.4526 181.747C30.8367 181.969 31.2698 182.092 31.713 182.105C31.9404 182.111 31.9009 182.462 31.675 182.456C31.1854 182.439 30.7072 182.303 30.2824 182.059C29.8576 181.815 29.4989 181.47 29.2379 181.056C29.21 181.019 29.1972 180.972 29.2022 180.926C29.2072 180.88 29.2296 180.838 29.2647 180.808C29.3013 180.779 29.3478 180.765 29.3943 180.77C29.4407 180.775 29.4833 180.798 29.5128 180.835Z" fill="white"/>
<path d="M145.919 55.3081C145.591 55.7393 145.173 56.0935 144.693 56.3455C144.214 56.5976 143.685 56.7414 143.144 56.7669C142.603 56.7924 142.063 56.699 141.561 56.4932C141.06 56.2873 140.61 55.9742 140.243 55.5757L128.168 60.8275L129.344 54.0865L140.631 50.1327C141.341 49.5606 142.237 49.2689 143.148 49.3129C144.059 49.357 144.922 49.7336 145.574 50.3716C146.226 51.0095 146.621 51.8644 146.685 52.7742C146.748 53.684 146.476 54.5856 145.919 55.3081Z" fill="#FFB8B8"/>
<path d="M137.86 57.4129L109.812 69.9063L109.752 69.8847L77.7851 58.4933C75.4039 57.2489 73.5886 55.1413 72.7107 52.6021C71.8329 50.0629 71.9589 47.2841 73.063 44.8348C73.675 43.4815 74.5666 42.2732 75.6793 41.2894C76.7919 40.3055 78.1003 39.5685 79.5183 39.1268C80.9364 38.6851 82.4319 38.5487 83.9064 38.7266C85.3809 38.9045 86.801 39.3927 88.0733 40.1591L111.863 54.4896L134.931 51.4998L137.86 57.4129Z" fill="#E6E6E6"/>
<path d="M275.721 205.601C275.721 205.651 275.712 205.7 275.693 205.747C275.674 205.793 275.646 205.835 275.61 205.87C275.575 205.905 275.533 205.933 275.487 205.952C275.441 205.971 275.391 205.981 275.341 205.981H0.516867C0.416044 205.981 0.319354 205.941 0.248062 205.87C0.17677 205.798 0.136719 205.702 0.136719 205.601C0.136719 205.5 0.17677 205.403 0.248062 205.332C0.319354 205.261 0.416044 205.221 0.516867 205.221H275.341C275.391 205.221 275.441 205.23 275.487 205.249C275.533 205.268 275.575 205.296 275.61 205.332C275.646 205.367 275.674 205.409 275.693 205.455C275.712 205.501 275.721 205.551 275.721 205.601Z" fill="#CCCCCC"/>
<path d="M100.223 94.8131L71.9498 90.2906C71.2082 90.0531 70.5269 89.658 69.9525 89.1323C69.3781 88.6066 68.9242 87.9629 68.6221 87.2452C68.3199 86.5276 68.1767 85.7531 68.2021 84.9749C68.2275 84.1967 68.4211 83.4331 68.7694 82.7368L70.0516 80.1721L69.5535 53.2271C69.4935 49.7222 70.3576 46.2633 72.0588 43.1984C73.76 40.1334 76.2385 37.5706 79.2447 35.7677L82.0019 34.1191L83.3953 30.5806L96.2438 30.894L96.2813 35.5348L100.883 42.8721L100.882 42.9025L100.594 82.8388L99.3256 86.9602L101.243 91.7539L100.223 94.8131Z" fill="#E6E6E6"/>
<path d="M90.9965 26.18C97.444 26.18 102.671 20.9533 102.671 14.5058C102.671 8.05827 97.444 2.83154 90.9965 2.83154C84.549 2.83154 79.3223 8.05827 79.3223 14.5058C79.3223 20.9533 84.549 26.18 90.9965 26.18Z" fill="#FFB8B8"/>
<path d="M78.8396 17.0512C78.4914 15.5843 78.6512 13.5201 78.848 12.0431C79.3639 8.17089 81.5143 4.48967 84.7814 2.30915C85.4008 1.83865 86.137 1.54612 86.9104 1.46309C87.6833 1.43082 88.5211 1.84457 88.7583 2.58086C88.953 2.09491 89.2453 1.65402 89.617 1.2854C89.9887 0.916778 90.4321 0.628253 90.9196 0.437634C91.899 0.0623876 92.9524 -0.0795216 93.9962 0.023155C96.0194 0.189923 97.9597 0.901325 99.6112 2.08186C101.263 3.2624 102.564 4.86803 103.376 6.72835C103.688 7.46911 104.559 4.73297 104.954 5.43287C105.317 6.16038 105.951 6.7169 106.719 6.98332C107.493 7.19934 107.807 10.3888 108.112 9.64509C108.348 10.1947 108.442 10.7952 108.384 11.3907C108.325 11.9862 108.118 12.5572 107.779 13.0507C107.441 13.5442 106.983 13.944 106.449 14.2129C105.914 14.4818 105.32 14.6111 104.722 14.5887C103.935 14.5593 103.181 14.2695 102.403 14.1447C99.6185 13.6986 96.6652 15.7174 96.07 18.4735C95.8569 17.6765 95.5165 16.9191 95.0619 16.2306C94.8312 15.8882 94.522 15.6058 94.1601 15.407C93.7982 15.2081 93.394 15.0986 92.9812 15.0874C92.1891 15.117 91.4929 15.6349 90.9789 16.2384C90.465 16.8418 90.079 17.5459 89.5612 18.1461C88.0421 19.9073 85.9873 24.0144 83.8224 23.7149C82.1138 23.4785 79.315 19.0541 78.8396 17.0512Z" fill="#2F2E41"/>
<path d="M161.565 68.5373C161.647 68.0051 161.537 67.4611 161.256 67.0019C160.975 66.5426 160.54 66.1978 160.029 66.0284L128.591 55.5576C128.289 55.4568 127.97 55.4202 127.654 55.45L119.774 56.1952L115.252 56.6241L106.908 57.4126C106.405 57.4608 105.931 57.6748 105.562 58.0211C105.193 58.3674 104.949 58.8264 104.869 59.3261L100.633 85.789C100.553 86.3052 100.651 86.8332 100.911 87.286C101.172 87.7388 101.579 88.0892 102.065 88.2794L133.832 100.542C133.981 100.599 134.136 100.641 134.294 100.666C134.524 100.703 134.758 100.705 134.989 100.671L155.516 97.6285C156 97.5585 156.449 97.3342 156.795 96.9889C157.142 96.6437 157.368 96.1959 157.44 95.7121L161.565 68.5373Z" fill="white"/>
<path d="M102.786 86.4133L134.553 98.6747C134.599 98.6931 134.649 98.699 134.699 98.6919L155.223 95.65C155.283 95.6416 155.34 95.6137 155.383 95.5703C155.427 95.527 155.455 95.4707 155.464 95.4098L159.591 68.2348C159.6 68.1685 159.586 68.1009 159.552 68.0437C159.517 67.9865 159.463 67.9432 159.4 67.9213L159.188 67.8497L127.959 57.4528C127.945 57.4477 127.93 57.4442 127.915 57.4422C127.891 57.4377 127.866 57.4364 127.842 57.4384L108.622 59.2571L107.097 59.4002C107.034 59.4069 106.975 59.4338 106.93 59.477C106.884 59.5201 106.853 59.577 106.843 59.6391L102.607 86.101C102.597 86.1656 102.609 86.2319 102.641 86.2887C102.674 86.3455 102.725 86.3895 102.786 86.4133Z" fill="#4F95FF"/>
<path d="M108.623 59.2571L127.843 57.4384C127.867 57.4364 127.892 57.4377 127.916 57.4422C127.931 57.4442 127.946 57.4477 127.96 57.4528L159.189 67.8497L150.952 68.7217L147.869 69.0465L139.096 69.9733C139.071 69.9746 139.045 69.9743 139.02 69.9724C139.004 69.9677 138.988 69.963 138.97 69.958L108.623 59.2571Z" fill="#2F2E41"/>
<path d="M102.066 88.2788L133.833 100.54C133.983 100.598 134.138 100.639 134.296 100.662C134.527 100.7 134.761 100.703 134.992 100.67L155.516 97.6283C156 97.5578 156.449 97.3332 156.796 96.9878C157.143 96.6424 157.369 96.1945 157.442 95.7104L161.566 68.535C161.627 68.1344 161.581 67.7247 161.432 67.3477C161.411 67.2976 161.391 67.2474 161.366 67.2002C161.203 66.8559 160.954 66.5593 160.643 66.3384C160.456 66.2041 160.25 66.099 160.031 66.0265L159.994 66.0133L128.594 55.5551C128.466 55.5142 128.335 55.4823 128.202 55.4599C128.02 55.4342 127.836 55.4306 127.654 55.4492L119.775 56.1919L115.254 56.6231L106.909 57.4111C106.568 57.4429 106.238 57.5519 105.945 57.7297C105.922 57.7407 105.901 57.7536 105.88 57.7684C105.866 57.7779 105.852 57.7884 105.839 57.7998C105.583 57.9745 105.365 58.1996 105.199 58.4612C105.032 58.7228 104.921 59.0156 104.872 59.3216L100.633 85.7864C100.553 86.3029 100.651 86.8314 100.912 87.2845C101.172 87.7377 101.58 88.0884 102.066 88.2788ZM105.434 59.4138C105.486 59.0966 105.626 58.8007 105.84 58.5605C105.904 58.4832 105.977 58.4127 106.056 58.35C106.271 58.1758 106.526 58.0569 106.798 58.0038C106.852 57.9927 106.906 57.985 106.961 57.9808L121.012 56.6534L127.709 56.0161C127.754 56.0108 127.796 56.0115 127.838 56.0092C127.939 56.007 128.041 56.0146 128.141 56.0317C128.233 56.0436 128.323 56.0651 128.411 56.0959L159.848 66.5673C159.873 66.5761 159.894 66.5846 159.919 66.5934C160.205 66.6997 160.456 66.8825 160.645 67.1217C160.795 67.3048 160.904 67.5174 160.966 67.7456C161.027 67.9738 161.04 68.2124 161.003 68.4459L156.876 95.6242C156.822 95.9866 156.652 96.3221 156.393 96.581C156.134 96.8399 155.798 97.0086 155.435 97.0622L134.908 100.104C134.614 100.146 134.315 100.112 134.038 100.005L102.271 87.7464C101.907 87.6029 101.603 87.34 101.408 87.0006C101.213 86.6613 101.139 86.2657 101.198 85.8789L105.434 59.4138Z" fill="#3F3D56"/>
<path d="M105.769 57.9462C105.786 57.898 105.816 57.8554 105.855 57.8228C105.868 57.8124 105.882 57.803 105.896 57.7946C105.909 57.7895 105.923 57.7812 105.936 57.776C106 57.7504 106.071 57.7492 106.136 57.7726L106.797 58.0059L139.099 69.4006L146.659 68.6019L150.889 68.1557L159.843 67.2077L160.644 67.1238L160.8 67.1066C160.867 67.1004 160.934 67.1179 160.99 67.1561C161.045 67.1942 161.086 67.2505 161.104 67.3153C161.108 67.3303 161.111 67.3456 161.112 67.3611C161.119 67.4226 161.105 67.4845 161.074 67.5377C161.042 67.5908 160.994 67.6322 160.937 67.6556C160.911 67.6661 160.885 67.6732 160.858 67.6769L159.768 67.791L150.951 68.7231L147.868 69.0479L139.095 69.9747C139.07 69.976 139.044 69.9757 139.018 69.9738C139.003 69.9691 138.987 69.9644 138.968 69.9594L106.055 58.3521L105.943 58.3126C105.917 58.3041 105.893 58.291 105.873 58.2738C105.823 58.2372 105.786 58.1858 105.767 58.1269C105.749 58.068 105.749 58.0047 105.769 57.9462Z" fill="#3F3D56"/>
<path d="M134.383 100.746C134.309 100.734 134.242 100.694 134.198 100.633C134.153 100.572 134.135 100.496 134.146 100.422L138.783 69.6473C138.795 69.5724 138.835 69.5051 138.896 69.4601C138.957 69.4151 139.033 69.3962 139.108 69.4075L139.111 69.4079C139.185 69.4198 139.252 69.4606 139.296 69.5213C139.341 69.5821 139.359 69.6579 139.348 69.7324L134.71 100.507C134.699 100.582 134.659 100.649 134.598 100.694C134.537 100.739 134.46 100.758 134.386 100.747L134.383 100.746Z" fill="#3F3D56"/>
<path d="M146.137 98.7946L143.053 99.1201L146.66 68.601C146.66 68.601 150.78 67.8552 150.89 68.1542C150.958 68.3328 146.166 98.5988 146.137 98.7946Z" fill="#3F3D56"/>
<path d="M105.944 58.311L105.861 72.2287L130.5 81.6169L139.348 69.7319L105.944 58.311Z" fill="#3F3D56"/>
<path d="M160.646 67.1238C160.44 66.865 160.163 66.6721 159.849 66.5691L128.412 56.0981C128.324 56.0684 128.234 56.0463 128.142 56.0321C128.041 56.0149 127.94 56.0072 127.838 56.0093L127.889 55.6907L128.204 55.4629L135.669 50.0581L160.599 57.6985L160.642 66.3403L160.646 67.1238Z" fill="#3F3D56"/>
<path d="M107.2 80.655C107.236 80.6584 107.271 80.6657 107.304 80.6768L116.95 83.8448C117.071 83.8844 117.171 83.9704 117.228 84.0838C117.285 84.1973 117.295 84.3288 117.256 84.4496C117.216 84.5703 117.13 84.6704 117.017 84.7278C116.903 84.7851 116.772 84.7951 116.651 84.7555L107.005 81.5875C106.893 81.5507 106.799 81.4739 106.74 81.3718C106.681 81.2698 106.662 81.1496 106.686 81.0342C106.71 80.9188 106.776 80.8163 106.871 80.7464C106.965 80.6764 107.083 80.6439 107.2 80.655Z" fill="white"/>
<path d="M146.117 139.038C148.234 139.038 149.95 137.322 149.95 135.205C149.95 133.087 148.234 131.371 146.117 131.371C144 131.371 142.283 133.087 142.283 135.205C142.283 137.322 144 139.038 146.117 139.038Z" fill="#F2F2F2"/>
<path d="M48.3628 153.094C50.4799 153.094 52.1962 151.378 52.1962 149.261C52.1962 147.144 50.4799 145.427 48.3628 145.427C46.2456 145.427 44.5293 147.144 44.5293 149.261C44.5293 151.378 46.2456 153.094 48.3628 153.094Z" fill="#F2F2F2"/>
<path d="M128.226 26.2709C130.343 26.2709 132.06 24.5546 132.06 22.4375C132.06 20.3203 130.343 18.604 128.226 18.604C126.109 18.604 124.393 20.3203 124.393 22.4375C124.393 24.5546 126.109 26.2709 128.226 26.2709Z" fill="#F2F2F2"/>
<path d="M134.517 86.2917C134.02 86.5075 133.482 86.6118 132.941 86.5972C132.399 86.5826 131.867 86.4494 131.383 86.207C130.898 85.9647 130.473 85.6191 130.136 85.1945C129.8 84.7699 129.561 84.2768 129.435 83.7497L116.334 82.4261L120.656 77.1211L132.435 79.1914C133.334 79.0397 134.258 79.2231 135.031 79.707C135.804 80.1909 136.373 80.9415 136.63 81.8167C136.886 82.6919 136.813 83.6308 136.424 84.4556C136.034 85.2804 135.356 85.9337 134.517 86.2917Z" fill="#FFB8B8"/>
<path d="M126.457 84.1873L95.8826 81.3703L95.8407 81.3221L73.5265 55.7539C72.058 53.5041 71.5051 50.778 71.981 48.1338C72.4569 45.4896 73.9256 43.1273 76.0864 41.5307C77.2819 40.6495 78.6506 40.0315 80.1022 39.7174C81.5538 39.4033 83.0555 39.4002 84.5085 39.7083C85.9614 40.0164 87.3326 40.6287 88.5318 41.5049C89.731 42.3812 90.731 43.5014 91.4661 44.792L105.21 68.9251L126.794 77.5973L126.457 84.1873Z" fill="#E6E6E6"/>
<path d="M203.199 35.0179C202.44 29.4486 201.488 23.469 197.56 19.4486C196.313 18.173 194.821 17.1629 193.174 16.4794C191.527 15.7958 189.758 15.453 187.975 15.4714C186.191 15.4899 184.43 15.8693 182.797 16.5868C181.164 17.3043 179.694 18.345 178.474 19.6462C175.615 22.6966 174.352 26.9798 174.236 31.1593C174.121 35.3388 175.052 39.4718 176.084 43.5233C181.549 43.6325 186.973 42.5648 191.988 40.3929C193.243 39.8485 194.477 39.2331 195.802 38.8958C197.127 38.5585 198.071 39.4072 199.304 39.999L199.981 38.7035C200.534 39.7342 202.249 39.4287 202.872 38.4376C203.494 37.4465 203.357 36.1773 203.199 35.0179Z" fill="#2F2E41"/>
<path d="M181.537 66.1033L159.215 66.5807C158.872 65.9881 158.365 65.5079 157.754 65.1986C157.143 64.8893 156.456 64.7641 155.775 64.8383C155.095 64.9126 154.451 65.183 153.921 65.6167C153.391 66.0504 152.999 66.6287 152.792 67.2813C152.585 67.9338 152.572 68.6324 152.755 69.2921C152.938 69.9518 153.309 70.5442 153.822 70.9971C154.335 71.45 154.969 71.7439 155.647 71.8431C156.324 71.9423 157.016 71.8425 157.637 71.5558C160.598 71.7241 183.76 75.0115 185.141 72.8929C186.544 70.7426 194.03 63.154 194.03 63.154L188.276 54.9619L181.537 66.1033Z" fill="#9E616A"/>
<path d="M186.978 40.5282C192.77 40.5282 197.466 35.8327 197.466 30.0405C197.466 24.2483 192.77 19.5527 186.978 19.5527C181.186 19.5527 176.49 24.2483 176.49 30.0405C176.49 35.8327 181.186 40.5282 186.978 40.5282Z" fill="#9E616A"/>
<path d="M203.775 50.2207C202.539 47.7609 201.938 44.7222 199.303 43.9248C197.524 43.3863 190.328 44.1933 188.706 45.1023C186.009 46.6143 188.453 49.4476 186.862 52.099C185.132 54.9814 180.43 60.7658 178.701 63.6481C177.511 65.6296 181.517 71.4458 180.874 73.6656C180.231 75.8853 180.2 78.3767 181.296 80.4116C182.276 82.2329 180.858 83.8441 181.844 85.6625C182.869 87.5535 184.127 94.6241 183.173 96.552L182.534 98.4687C188.874 98.8413 194.205 91.2669 200.506 90.469C202.071 90.2708 203.696 90.0119 204.986 89.1035C206.885 87.7654 207.636 85.3374 208.105 83.0617C210.364 71.938 208.84 60.3785 203.775 50.2207Z" fill="#3F3D56"/>
<path d="M213.281 76.1908C212.398 73.7803 210.799 63.2412 210.799 63.2412L200.793 62.9478L205.685 75.0142L192.335 93.7033C192.335 93.7033 192.359 93.7443 192.404 93.8176C191.703 93.7049 190.983 93.8068 190.34 94.1099C189.697 94.4129 189.16 94.903 188.8 95.5161C188.44 96.1291 188.274 96.8365 188.323 97.5457C188.372 98.2549 188.633 98.9329 189.074 99.4909C189.514 100.049 190.113 100.461 190.791 100.673C191.47 100.885 192.196 100.888 192.876 100.68C193.556 100.473 194.157 100.065 194.602 99.5096C195.046 98.9546 195.312 98.2784 195.366 97.5695C195.415 97.5977 195.472 97.6079 195.528 97.5983C195.584 97.5887 195.635 97.5599 195.672 97.517C197.157 95.6528 214.164 78.6013 213.281 76.1908Z" fill="#9E616A"/>
<path d="M214.299 69.5352C213.38 65.6587 212.455 61.7611 210.907 58.0905C209.358 54.4199 207.141 50.953 204.023 48.4732C203.026 47.6804 201.912 46.9806 200.662 46.7341C199.413 46.4876 198.005 46.7635 197.127 47.6865C195.723 49.1635 196.145 51.5344 196.66 53.5063C198.179 59.3205 199.698 65.1347 201.217 70.949C205.603 70.4841 209.989 70.0192 214.374 69.5542L214.299 69.5352Z" fill="#3F3D56"/>
<path d="M199.83 31.4937C199.443 28.9565 199.04 26.3982 198.133 24.0093C197.225 21.6203 195.763 19.3828 193.665 18.0294C190.343 15.8868 186.042 16.3001 182.317 17.5325C179.437 18.4857 176.625 19.9344 174.594 22.2635C172.563 24.5925 171.422 27.9158 172.178 30.9612C176.151 30.0225 180.124 29.0839 184.096 28.1452L183.661 28.4525C184.966 29.103 186.105 30.0421 186.992 31.1985C187.88 32.355 188.492 33.6984 188.783 35.1268C189.067 36.5726 189.026 38.0634 188.663 39.4914C188.3 40.9195 187.625 42.2491 186.685 43.384C189.395 42.4228 192.104 41.4617 194.814 40.5005C196.486 39.9072 198.276 39.2236 199.268 37.7019C200.418 35.9376 200.15 33.5992 199.83 31.4937Z" fill="#2F2E41"/>
</g>
<defs>
<clipPath id="clip0_3482_4360">
<rect width="275.595" height="205.98" fill="white" transform="translate(0.125)"/>
</clipPath>
</defs>
</svg>
