<svg width="48" height="48" viewBox="0 0 48 48" fill="none" xmlns="http://www.w3.org/2000/svg">
<rect x="0.5" y="0.5" width="47" height="47" rx="1.5" fill="#EAF6FE"/>
<rect x="0.5" y="0.5" width="47" height="47" rx="1.5" stroke="#D5EDFD"/>
<path d="M24 27C27.3137 27 30 24.3137 30 21C30 17.6863 27.3137 15 24 15C20.6863 15 18 17.6863 18 21C18 24.3137 20.6863 27 24 27Z" stroke="#2DA5F3" stroke-width="1.5" stroke-miterlimit="10"/>
<path d="M14.9062 32.2508C15.8278 30.6544 17.1533 29.3287 18.7496 28.407C20.3459 27.4853 22.1567 27 24 27C25.8433 27 27.6541 27.4853 29.2504 28.407C30.8467 29.3287 32.1722 30.6544 33.0938 32.2508" stroke="#2DA5F3" stroke-width="1.5" stroke-linecap="round" stroke-linejoin="round"/>
</svg>
