<svg width="24" height="24" viewBox="0 0 24 24" fill="none" xmlns="http://www.w3.org/2000/svg">
<path opacity="0.2" d="M3.10313 6.99219C3.03519 7.10887 2.9996 7.24155 3 7.37656V16.6203C3.00072 16.7538 3.03663 16.8848 3.10412 17C3.1716 17.1152 3.26827 17.2106 3.38438 17.2766L11.6344 21.9172C11.7456 21.9807 11.8719 22.0131 12 22.0109L12.0844 11.9984L3.10313 6.99219Z" fill="#2DA5F3"/>
<path d="M21 16.623V7.37922C20.9993 7.2457 20.9634 7.11472 20.8959 6.99951C20.8284 6.88429 20.7317 6.78891 20.6156 6.72297L12.3656 2.08234C12.2545 2.01816 12.1284 1.98438 12 1.98438C11.8716 1.98438 11.7455 2.01816 11.6344 2.08234L3.38437 6.72297C3.26827 6.78891 3.1716 6.88429 3.10411 6.99951C3.03663 7.11472 3.00072 7.2457 3 7.37922V16.623C3.00072 16.7565 3.03663 16.8875 3.10411 17.0027C3.1716 17.1179 3.26827 17.2133 3.38437 17.2792L11.6344 21.9198C11.7455 21.984 11.8716 22.0178 12 22.0178C12.1284 22.0178 12.2545 21.984 12.3656 21.9198L20.6156 17.2792C20.7317 17.2133 20.8284 17.1179 20.8959 17.0027C20.9634 16.8875 20.9993 16.7565 21 16.623V16.623Z" stroke="#2DA5F3" stroke-width="1.5" stroke-linecap="round" stroke-linejoin="round"/>
<path d="M16.5938 14.2969V9.42188L7.5 4.40625" stroke="#2DA5F3" stroke-width="1.5" stroke-linecap="round" stroke-linejoin="round"/>
<path d="M20.8973 6.99219L12.0848 11.9984L3.10352 6.99219" stroke="#2DA5F3" stroke-width="1.5" stroke-linecap="round" stroke-linejoin="round"/>
<path d="M12.0844 12L12 22.0125" stroke="#2DA5F3" stroke-width="1.5" stroke-linecap="round" stroke-linejoin="round"/>
</svg>
