<svg width="29" height="28" viewBox="0 0 29 28" fill="none" xmlns="http://www.w3.org/2000/svg">
<path d="M14.4619 1.60938C21.3746 1.60938 26.9793 7.21315 26.9794 14.126C26.9794 17.7636 25.4258 21.0373 22.9482 23.3242C22.6471 22.1866 21.8467 21.1489 20.6464 20.3486C17.2543 18.0705 11.6964 18.0705 8.27924 20.3486C7.09103 21.1492 6.27738 22.1871 5.9765 23.3252C3.4985 21.0382 1.94525 17.764 1.94525 14.126C1.94535 7.21327 7.54915 1.60956 14.4619 1.60938ZM14.4619 7.77832C11.871 7.77832 9.76772 9.88089 9.76752 12.4717C9.76752 15.0126 11.7583 17.0782 14.3994 17.1533H14.6249C17.1531 17.0655 19.1427 15.0125 19.1552 12.4717C19.155 9.88093 17.0527 7.77839 14.4619 7.77832Z" fill="#2DA5F3"/>
</svg>
