<svg width="29" height="28" viewBox="0 0 29 28" fill="none" xmlns="http://www.w3.org/2000/svg">
<path d="M14.6408 14.9093C14.5591 14.8976 14.4541 14.8976 14.3608 14.9093C12.3075 14.8393 10.6741 13.1593 10.6741 11.0942C10.6741 8.98258 12.3775 7.26758 14.5008 7.26758C16.6125 7.26758 18.3275 8.98258 18.3275 11.0942C18.3158 13.1593 16.6941 14.8393 14.6408 14.9093Z" stroke="#A2A2A2" stroke-width="2" stroke-linecap="round" stroke-linejoin="round"/>
<path d="M22.3631 22.6103C20.2864 24.512 17.5331 25.667 14.4998 25.667C11.4664 25.667 8.71308 24.512 6.63641 22.6103C6.75308 21.5136 7.45308 20.4403 8.70141 19.6003C11.8981 17.477 17.1248 17.477 20.2981 19.6003C21.5464 20.4403 22.2464 21.5136 22.3631 22.6103Z" stroke="#A2A2A2" stroke-width="2" stroke-linecap="round" stroke-linejoin="round"/>
<path d="M14.5 25.6673C20.9432 25.6673 26.1666 20.4439 26.1666 14.0007C26.1666 7.55733 20.9432 2.33398 14.5 2.33398C8.05665 2.33398 2.83331 7.55733 2.83331 14.0007C2.83331 20.4439 8.05665 25.6673 14.5 25.6673Z" stroke="#A2A2A2" stroke-width="2" stroke-linecap="round" stroke-linejoin="round"/>
</svg>
