<svg width="22" height="22" viewBox="0 0 22 22" fill="none" xmlns="http://www.w3.org/2000/svg">
<path d="M10.9736 13.2575C10.722 13.2575 10.525 13.1809 10.3828 13.0277C10.2406 12.8746 10.1531 12.6503 10.1203 12.3549L9.59513 6.74259C9.54043 6.25028 9.63342 5.85643 9.8741 5.56105C10.1148 5.25472 10.4813 5.10156 10.9736 5.10156C11.444 5.10156 11.7996 5.25472 12.0403 5.56105C12.2809 5.85643 12.3739 6.25028 12.3192 6.74259L11.7941 12.3549C11.7613 12.6503 11.6738 12.8746 11.5315 13.0277C11.4003 13.1809 11.2143 13.2575 10.9736 13.2575ZM10.9736 16.9005C10.536 16.9005 10.1859 16.7693 9.92333 16.5067C9.67171 16.2441 9.5459 15.905 9.5459 15.4893C9.5459 15.0845 9.67171 14.7563 9.92333 14.5046C10.1859 14.2421 10.536 14.1108 10.9736 14.1108C11.4112 14.1108 11.7503 14.2421 11.991 14.5046C12.2427 14.7563 12.3685 15.0845 12.3685 15.4893C12.3685 15.905 12.2427 16.2441 11.991 16.5067C11.7503 16.7693 11.4112 16.9005 10.9736 16.9005Z" fill="white"/>
<path d="M21 11C21 16.5228 16.5228 21 11 21C9.34035 21 7.77513 20.5957 6.39746 19.8802C6.22194 19.789 6.0218 19.7542 5.82714 19.7891L2.64711 20.3602C2.30074 20.4225 1.99606 20.1253 2.04962 19.7775L2.5229 16.7037C2.55456 16.498 2.50885 16.2887 2.40239 16.11C1.51165 14.6145 1 12.867 1 11C1 5.47715 5.47715 1 11 1C16.5228 1 21 5.47715 21 11Z" stroke="white" stroke-width="1.5"/>
</svg>
