<svg width="29" height="28" viewBox="0 0 29 28" fill="none" xmlns="http://www.w3.org/2000/svg">
<path d="M21.0195 20.5967C21.4704 20.149 22.1927 20.149 22.6436 20.5967L25.624 23.0029H25.6758C26.2787 23.6124 26.2787 24.6005 25.6758 25.21C25.0728 25.8191 24.0951 25.8192 23.4922 25.21L21.0195 22.375C20.7857 22.1395 20.6543 21.819 20.6543 21.4854C20.6544 21.1518 20.7858 20.8321 21.0195 20.5967ZM12.8018 2.33203C15.4557 2.33203 18.0012 3.39816 19.8779 5.29492C21.7547 7.19183 22.8096 9.76463 22.8096 12.4473C22.8096 18.0336 18.3286 22.5625 12.8018 22.5625C7.27511 22.5623 2.79492 18.0334 2.79492 12.4473C2.79492 6.8611 7.27511 2.33227 12.8018 2.33203Z" fill="#2DA5F3"/>
</svg>
