<svg width="24" height="24" viewBox="0 0 24 24" fill="none" xmlns="http://www.w3.org/2000/svg">
<path d="M9.13631 11.9996C9.13631 13.3176 8.0679 14.386 6.74995 14.386C5.432 14.386 4.36359 13.3176 4.36359 11.9996C4.36359 10.6817 5.432 9.61328 6.74995 9.61328C8.0679 9.61328 9.13631 10.6817 9.13631 11.9996Z" stroke="white" stroke-width="1.43182"/>
<path d="M13.909 6.75L9.13629 10.0909" stroke="white" stroke-width="1.43182" stroke-linecap="round"/>
<path d="M13.909 17.2511L9.13629 13.9102" stroke="white" stroke-width="1.43182" stroke-linecap="round"/>
<path d="M18.6818 18.2047C18.6818 19.5227 17.6134 20.5911 16.2954 20.5911C14.9775 20.5911 13.9091 19.5227 13.9091 18.2047C13.9091 16.8868 14.9775 15.8184 16.2954 15.8184C17.6134 15.8184 18.6818 16.8868 18.6818 18.2047Z" stroke="white" stroke-width="1.43182"/>
<path d="M18.6818 5.79457C18.6818 7.11252 17.6134 8.18093 16.2954 8.18093C14.9775 8.18093 13.9091 7.11252 13.9091 5.79457C13.9091 4.47662 14.9775 3.4082 16.2954 3.4082C17.6134 3.4082 18.6818 4.47662 18.6818 5.79457Z" stroke="white" stroke-width="1.43182"/>
</svg>
