<svg width="25" height="24" viewBox="0 0 25 24" fill="none" xmlns="http://www.w3.org/2000/svg">
<path d="M22.2381 2.58003C21.7379 2.06664 20.9976 1.87538 20.3073 2.07671L4.21073 6.75757C3.48243 6.9599 2.96622 7.54073 2.82716 8.2786C2.68511 9.02955 3.18131 9.98283 3.82957 10.3815L8.86264 13.4749C9.37885 13.7919 10.0451 13.7124 10.4723 13.2816L16.2357 7.48235C16.5258 7.18036 17.006 7.18036 17.2961 7.48235C17.5862 7.77427 17.5862 8.24739 17.2961 8.54938L11.5227 14.3496C11.0945 14.7795 11.0145 15.4489 11.3296 15.9683L14.4049 21.0518C14.7651 21.6558 15.3853 21.998 16.0656 21.998C16.1456 21.998 16.2357 21.998 16.3157 21.988C17.096 21.8873 17.7163 21.3538 17.9464 20.5988L22.7183 4.52284C22.9284 3.83833 22.7383 3.09341 22.2381 2.58003Z" fill="#A7A7A7"/>
</svg>
