<svg width="56" height="56" viewBox="0 0 56 56" fill="none" xmlns="http://www.w3.org/2000/svg">
<rect width="56" height="56" rx="2" fill="white"/>
<path opacity="0.2" d="M21.2377 25.9258L17.3127 30.6258C17.2138 30.7411 17.144 30.8785 17.1092 31.0264C17.0744 31.1743 17.0756 31.3284 17.1127 31.4758L18.6502 38.4383C18.6873 38.6038 18.7659 38.7571 18.8786 38.8839C18.9912 39.0107 19.1343 39.1067 19.2943 39.1629C19.4543 39.2192 19.626 39.2338 19.7932 39.2054C19.9604 39.1771 20.1177 39.1067 20.2502 39.0008L24.0002 36.0008C21.8002 32.1758 21.0877 28.8133 21.2377 25.9258Z" fill="#2DA5F3"/>
<path opacity="0.2" d="M34.6873 25.8379L38.6123 30.5504C38.7112 30.6658 38.781 30.8031 38.8158 30.9511C38.8506 31.099 38.8494 31.253 38.8123 31.4004L37.2748 38.3504C37.2394 38.5169 37.162 38.6717 37.05 38.8C36.938 38.9282 36.7951 39.0258 36.6349 39.0834C36.4747 39.141 36.3024 39.1567 36.1343 39.129C35.9663 39.1014 35.8081 39.0313 35.6748 38.9254L31.9248 35.9254C34.1248 32.0879 34.8373 28.7254 34.6873 25.8379Z" fill="#2DA5F3"/>
<path d="M30 40H26" stroke="#2DA5F3" stroke-width="2" stroke-linecap="round" stroke-linejoin="round"/>
<path d="M27.3749 14.4747C24.9999 16.3747 17.0624 23.9747 23.9999 35.9997H31.9999C38.7999 23.9747 30.9749 16.3872 28.6249 14.4747C28.4496 14.3283 28.2284 14.248 27.9999 14.248C27.7715 14.248 27.5503 14.3283 27.3749 14.4747Z" stroke="#2DA5F3" stroke-width="2" stroke-linecap="round" stroke-linejoin="round"/>
<path d="M21.2377 25.9258L17.3127 30.6258C17.2138 30.7411 17.144 30.8785 17.1092 31.0264C17.0744 31.1743 17.0756 31.3284 17.1127 31.4758L18.6502 38.4383C18.6873 38.6038 18.7659 38.7571 18.8786 38.8839C18.9912 39.0107 19.1343 39.1067 19.2943 39.1629C19.4543 39.2192 19.626 39.2338 19.7932 39.2054C19.9604 39.1771 20.1177 39.1067 20.2502 39.0008L24.0002 36.0008" stroke="#2DA5F3" stroke-width="2" stroke-linecap="round" stroke-linejoin="round"/>
<path d="M34.6875 25.8242L38.6875 30.6242C38.7864 30.7396 38.8561 30.877 38.8909 31.0249C38.9258 31.1728 38.9246 31.3269 38.8875 31.4742L37.35 38.4367C37.3129 38.6022 37.2343 38.7556 37.1216 38.8823C37.009 39.0091 36.8659 39.1051 36.7059 39.1614C36.5459 39.2176 36.3742 39.2323 36.207 39.2039C36.0398 39.1755 35.8825 39.1051 35.75 38.9992L32 35.9992" stroke="#2DA5F3" stroke-width="2" stroke-linecap="round" stroke-linejoin="round"/>
<path d="M28 25.5C28.8284 25.5 29.5 24.8284 29.5 24C29.5 23.1716 28.8284 22.5 28 22.5C27.1716 22.5 26.5 23.1716 26.5 24C26.5 24.8284 27.1716 25.5 28 25.5Z" fill="#2DA5F3"/>
</svg>
