<svg width="287" height="214" viewBox="0 0 287 214" fill="none" xmlns="http://www.w3.org/2000/svg">
<g clip-path="url(#clip0_3767_3635)">
<path d="M209.075 203.332H203.377L200.666 181.357H209.075V203.332Z" fill="#9E616A"/>
<path d="M212.081 213.203H207.996L207.267 209.346L205.399 213.203H194.563C194.044 213.203 193.538 213.037 193.119 212.729C192.701 212.421 192.392 211.988 192.237 211.492C192.083 210.996 192.091 210.464 192.26 209.973C192.429 209.482 192.751 209.058 193.179 208.763L201.832 202.786V198.887L210.934 199.43L212.081 213.203Z" fill="#2F2E41"/>
<path d="M242.92 196.141L238.349 199.541L223.061 183.525L229.808 178.508L242.92 196.141Z" fill="#9E616A"/>
<path d="M251.225 202.268L247.946 204.706L245.059 202.045L245.862 206.255L237.167 212.721C236.75 213.031 236.245 213.2 235.726 213.202C235.206 213.205 234.7 213.042 234.28 212.736C233.86 212.43 233.548 211.998 233.391 211.503C233.234 211.008 233.24 210.476 233.407 209.984L236.784 200.025L234.457 196.896L242.085 191.9L251.225 202.268Z" fill="#2F2E41"/>
<path d="M215.709 89.957C215.709 89.957 226.518 99.2958 221.531 125.918L215.442 152.004L235.299 184.946L228.968 192.649L203.153 156.992L193.799 135.05L191.174 95.9961L215.709 89.957Z" fill="#2F2E41"/>
<path d="M198.955 141.303L198.305 151.372L200.294 194.279L209.657 192.649L211.446 162.099L198.955 141.303Z" fill="#2F2E41"/>
<path d="M78.8073 208.499L83.9022 208.499L86.3257 188.848L78.8066 188.848L78.8073 208.499Z" fill="#FFB6B6"/>
<path d="M77.5078 206.835L78.9418 206.835L84.5405 204.559L87.5412 206.835H87.5416C89.2374 206.835 90.8637 207.509 92.0628 208.708C93.2619 209.907 93.9356 211.533 93.9357 213.229V213.437L77.5081 213.437L77.5078 206.835Z" fill="#2F2E41"/>
<path d="M98.5508 205.288L103.52 206.41L110.213 187.775L102.879 186.119L98.5508 205.288Z" fill="#FFB6B6"/>
<path d="M97.6493 203.379L99.0481 203.695L105.011 202.707L107.436 205.589L107.437 205.589C109.091 205.962 110.529 206.978 111.434 208.411C112.34 209.845 112.639 211.58 112.265 213.234L112.22 213.437L96.1953 209.819L97.6493 203.379Z" fill="#2F2E41"/>
<path d="M72.3544 88.3613C69.9657 95.5655 70.2183 103.385 72.9285 111.778L74.0871 159.033C74.0871 159.033 72.3609 190.021 77.9311 200.926H86.0094L90.009 156.203L90.5113 126.184L107.83 151.51L96.7993 200.195L106.742 201.083L124.642 148.249L102.557 96.9905L72.3544 88.3613Z" fill="#2F2E41"/>
<path d="M165.516 67.8419C171.695 62.2739 180.885 59.4742 188.595 62.5963C180.687 66.9868 174.586 74.0331 171.373 82.4883C170.146 85.7536 169.121 89.5132 166.102 91.2614C164.224 92.3491 161.887 92.4023 159.781 91.8772C157.675 91.352 155.745 90.2993 153.841 89.2572L153.299 89.2449C155.731 81.2908 159.337 73.4099 165.516 67.8419Z" fill="#E6E6E6"/>
<path d="M188.551 62.7649C181.723 63.6472 175.347 66.6585 170.328 71.371C169.229 72.3663 168.295 73.5286 167.558 74.815C166.881 76.0913 166.558 77.5256 166.623 78.9688C166.656 80.3158 166.846 81.6897 166.552 83.0213C166.391 83.7006 166.088 84.3383 165.663 84.8925C165.239 85.4466 164.702 85.9048 164.088 86.2369C162.579 87.1041 160.849 87.3775 159.147 87.586C157.258 87.8176 155.292 88.0282 153.657 89.0878C153.459 89.2162 153.271 88.9012 153.469 88.773C156.314 86.9295 159.914 87.6003 162.973 86.3699C164.401 85.7958 165.664 84.788 166.111 83.2643C166.502 81.9319 166.307 80.515 166.262 79.1515C166.178 77.7444 166.44 76.3383 167.025 75.0558C167.693 73.7361 168.582 72.5398 169.652 71.5181C172.024 69.1796 174.749 67.2286 177.728 65.7366C181.118 64.015 184.777 62.8859 188.547 62.3982C188.781 62.3682 188.783 62.735 188.551 62.7649Z" fill="white"/>
<path d="M171.855 69.7576C171.179 68.8082 170.862 67.6493 170.961 66.4879C171.06 65.3264 171.569 64.2381 172.397 63.4172C172.565 63.2517 172.83 63.505 172.662 63.6708C171.89 64.4337 171.416 65.4476 171.326 66.5293C171.235 67.611 171.535 68.6894 172.17 69.5697C172.308 69.7612 171.992 69.948 171.855 69.7576Z" fill="white"/>
<path d="M166.516 78.2875C168.863 78.7032 171.279 78.2193 173.285 76.9322C173.483 76.8045 173.671 77.1195 173.473 77.247C171.383 78.5824 168.867 79.0809 166.427 78.6429C166.194 78.601 166.285 78.2458 166.516 78.2875Z" fill="white"/>
<path d="M181.147 64.4991C181.332 64.921 181.619 65.2903 181.982 65.5738C182.346 65.8574 182.773 66.0463 183.228 66.1236C183.461 66.1625 183.369 66.5177 183.138 66.479C182.637 66.3913 182.164 66.1821 181.762 65.8697C181.36 65.5574 181.041 65.1513 180.832 64.6871C180.809 64.645 180.803 64.5955 180.814 64.5489C180.826 64.5022 180.855 64.4617 180.896 64.4357C180.938 64.4111 180.987 64.4039 181.034 64.4158C181.082 64.4276 181.122 64.4576 181.147 64.4991Z" fill="white"/>
<path d="M197.083 89.4492C196.936 89.429 196.79 89.4088 196.642 89.3909C194.675 89.1298 192.69 89.029 190.707 89.0894C190.554 89.0916 190.398 89.0962 190.245 89.1028C185.469 89.2993 180.77 90.3808 176.389 92.2924C174.646 93.0547 172.963 93.9484 171.356 94.966C169.136 96.3713 166.842 98.0717 164.36 98.6449C164.102 98.7076 163.84 98.7542 163.576 98.7845L153.325 89.9079C153.312 89.876 153.296 89.8464 153.283 89.8144L152.857 89.4787C152.937 89.4205 153.02 89.3617 153.099 89.3035C153.145 89.2695 153.193 89.2375 153.239 89.2035C153.27 89.1814 153.302 89.1595 153.329 89.1378C153.339 89.1304 153.35 89.1232 153.358 89.1181C153.385 89.0964 153.412 89.0792 153.437 89.0598C153.903 88.7303 154.371 88.4034 154.843 88.0792C154.845 88.0769 154.845 88.0769 154.849 88.0765C158.419 85.572 162.274 83.4998 166.333 81.9035C166.455 81.8575 166.578 81.8091 166.705 81.7671C168.533 81.0875 170.413 80.5585 172.327 80.1852C173.375 79.9841 174.434 79.8363 175.497 79.7423C178.246 79.5047 181.015 79.7008 183.703 80.3237C189.061 81.566 193.962 84.5081 196.864 89.0964C196.938 89.2139 197.01 89.3294 197.083 89.4492Z" fill="#E6E6E6"/>
<path d="M196.947 89.5572C190.964 86.1509 184.06 84.7163 177.216 85.4572C175.739 85.5906 174.293 85.9558 172.931 86.5394C171.622 87.1509 170.5 88.1017 169.683 89.2931C168.899 90.3886 168.223 91.6 167.187 92.4859C166.649 92.9314 166.023 93.2583 165.351 93.4451C164.678 93.6319 163.973 93.6744 163.283 93.5697C161.556 93.3538 160.01 92.5303 158.526 91.6724C156.878 90.7199 155.182 89.7045 153.238 89.566C153.003 89.5492 153.042 89.1847 153.278 89.2015C156.659 89.4425 159.13 92.1456 162.313 93.0051C163.799 93.4062 165.414 93.362 166.688 92.4146C167.803 91.5861 168.5 90.3375 169.285 89.2214C170.065 88.0474 171.121 87.0824 172.36 86.4106C173.688 85.7595 175.118 85.3391 176.587 85.1676C179.89 84.7288 183.24 84.8118 186.516 85.4138C190.26 86.08 193.861 87.3817 197.165 89.2624C197.37 89.3789 197.15 89.6729 196.947 89.5572Z" fill="white"/>
<path d="M179.406 85.0897C179.438 83.9245 179.883 82.8084 180.661 81.9408C181.44 81.0732 182.501 80.5106 183.656 80.3534C183.89 80.3224 183.949 80.6843 183.715 80.7154C182.639 80.8597 181.65 81.3839 180.927 82.1933C180.204 83.0027 179.794 84.044 179.771 85.1292C179.766 85.365 179.401 85.3242 179.406 85.0897Z" fill="white"/>
<path d="M170.009 88.6863C171.632 90.4309 173.853 91.4996 176.229 91.6793C176.464 91.6969 176.425 92.0614 176.19 92.0438C173.717 91.8521 171.408 90.7353 169.723 88.9161C169.563 88.7426 169.849 88.5137 170.009 88.6863Z" fill="white"/>
<path d="M189.991 86.4877C189.885 86.936 189.891 87.4036 190.011 87.8487C190.13 88.2937 190.358 88.7021 190.674 89.0373C190.837 89.2087 190.55 89.4374 190.388 89.2671C190.041 88.8952 189.79 88.4438 189.657 87.9524C189.524 87.461 189.514 86.9446 189.626 86.4482C189.633 86.4005 189.658 86.3572 189.695 86.327C189.733 86.2968 189.78 86.2821 189.828 86.2857C189.876 86.2912 189.921 86.3155 189.951 86.3533C189.981 86.3911 189.996 86.4394 189.991 86.4877Z" fill="white"/>
<path d="M17.0172 208.142C16.536 209.947 15.2715 211.451 13.7448 212.546C13.4958 212.725 13.2403 212.891 12.9814 213.047C12.9018 213.094 12.8221 213.143 12.7391 213.187C12.6495 213.24 12.5599 213.289 12.4703 213.336H5.29144C5.162 213.074 5.03588 212.808 4.90977 212.546C1.83312 206.081 -0.327507 199.104 0.0408946 191.998C0.187053 189.242 0.766099 186.526 1.75678 183.95C3.72823 178.816 7.32595 174.372 12.2745 172.135C12.3973 172.078 12.5267 172.022 12.6528 171.969C12.613 172.111 12.5732 172.251 12.5333 172.394C12.0025 174.306 11.6273 176.258 11.4115 178.232C11.3916 178.384 11.375 178.537 11.3618 178.693C10.8903 183.451 11.3089 188.256 12.5964 192.861C12.5997 192.871 12.603 192.885 12.6064 192.895C12.8885 193.914 13.216 194.917 13.5888 195.905C13.8808 196.685 14.1961 197.455 14.5413 198.212C15.9817 201.388 17.9133 204.773 17.0172 208.142Z" fill="#E6E6E6"/>
<path d="M12.7435 172.119C12.6738 172.212 12.6041 172.301 12.5344 172.394C11.0767 174.326 9.83881 176.414 8.84375 178.62C8.79065 178.73 8.74086 178.839 8.69772 178.952C7.33429 182.033 6.45867 185.307 6.10231 188.657C6.09845 188.68 6.09624 188.703 6.09568 188.727C6.0127 189.51 5.96292 190.3 5.943 191.09C5.8692 192.57 6.02937 194.053 6.41761 195.484C6.77161 196.652 7.39193 197.722 8.22975 198.61C8.31272 198.7 8.3957 198.79 8.48531 198.876C8.55169 198.946 8.6247 199.015 8.6944 199.082C9.36482 199.722 10.0983 200.316 10.7289 201.003C11.0179 201.311 11.279 201.645 11.5089 201.999C11.8758 202.593 12.1128 203.258 12.2043 203.95C12.2958 204.642 12.2398 205.346 12.0399 206.015C11.5885 207.694 10.5563 209.111 9.5009 210.462C8.97319 211.139 8.42888 211.823 7.95759 212.546C7.78502 212.805 7.6257 213.068 7.47969 213.336H7.0615C7.2009 213.068 7.35357 212.805 7.51952 212.546C8.73093 210.638 10.4535 208.999 11.3462 206.898C11.9503 205.48 12.1328 203.874 11.3695 202.483C11.1458 202.079 10.875 201.703 10.563 201.362C9.95561 200.675 9.22877 200.087 8.5683 199.467C8.40235 199.311 8.23972 199.151 8.08373 198.985C7.25672 198.145 6.61855 197.138 6.21186 196.031C5.75128 194.626 5.53354 193.152 5.56798 191.674C5.56798 190.731 5.61777 189.782 5.7107 188.839C5.72066 188.72 5.73393 188.597 5.74721 188.474C6.42594 182.543 8.68007 176.901 12.2755 172.135C12.3419 172.042 12.4116 171.953 12.4813 171.863C12.624 171.677 12.8862 171.936 12.7435 172.119Z" fill="white"/>
<path d="M5.88157 188.87C4.73199 188.677 3.68848 188.081 2.93739 187.19C2.1863 186.298 1.77654 185.169 1.78129 184.003C1.78193 183.956 1.80099 183.91 1.83446 183.877C1.86793 183.843 1.91319 183.823 1.96072 183.822C2.00824 183.821 2.05432 183.839 2.08923 183.871C2.12414 183.903 2.14517 183.948 2.14788 183.995C2.14146 185.081 2.52325 186.133 3.22436 186.961C3.92547 187.79 4.89971 188.341 5.97124 188.514C6.20406 188.552 6.11305 188.907 5.88157 188.87Z" fill="white"/>
<path d="M8.13787 198.678C10.0909 197.313 11.4577 195.261 11.9656 192.933C12.0158 192.703 12.3712 192.793 12.3211 193.023C11.788 195.445 10.3613 197.576 8.3258 198.992C8.1317 199.127 7.94481 198.812 8.13787 198.678Z" fill="white"/>
<path d="M8.7328 178.581C9.16203 178.748 9.62611 178.806 10.0834 178.75C10.5406 178.694 10.9768 178.525 11.3526 178.258C11.5449 178.121 11.7316 178.437 11.5405 178.573C11.1239 178.866 10.642 179.052 10.137 179.115C9.63189 179.178 9.11901 179.117 8.64311 178.936C8.59683 178.923 8.55733 178.893 8.53265 178.851C8.50796 178.81 8.49995 178.761 8.51023 178.714C8.52234 178.667 8.55251 178.626 8.59419 178.602C8.63586 178.577 8.68568 178.569 8.7328 178.581Z" fill="white"/>
<path d="M37.6435 184.951C37.5273 185.041 37.4078 185.131 37.2917 185.223C35.7159 186.429 34.2408 187.761 32.8808 189.206C32.7746 189.316 32.6684 189.429 32.5655 189.541L32.5622 189.545C29.3375 193.045 26.7878 197.112 25.0415 201.539L25.0315 201.569C25.0282 201.579 25.0249 201.586 25.0216 201.596C24.3294 203.368 23.7713 205.19 23.3521 207.045C22.9472 208.858 22.6153 210.799 21.9814 212.545C21.8852 212.814 21.779 213.079 21.6661 213.335H6.91016C6.95994 213.073 7.01304 212.807 7.06615 212.545C7.81677 208.699 8.98994 204.948 10.5643 201.36C10.6174 201.241 10.6705 201.121 10.7302 201.002C11.543 199.229 12.4987 197.525 13.5878 195.907L13.5881 195.906L13.5888 195.905L13.5899 195.904L13.5912 195.904C14.1892 195.021 14.8317 194.169 15.5161 193.352C17.2912 191.24 19.3879 189.421 21.7292 187.962C21.7425 187.952 21.7591 187.945 21.7723 187.935C26.4321 185.044 31.9548 183.667 37.2352 184.858H37.2385C37.3746 184.888 37.5074 184.918 37.6435 184.951Z" fill="#E6E6E6"/>
<path d="M37.6265 185.128C37.5137 185.157 37.4008 185.191 37.2913 185.224C34.9653 185.888 32.7201 186.809 30.597 187.969C30.4908 188.025 30.3846 188.085 30.2784 188.144C27.3444 189.782 24.681 191.863 22.3827 194.314C22.3809 194.316 22.3797 194.319 22.3794 194.321C22.3528 194.348 22.3229 194.377 22.2997 194.404C21.7687 194.975 21.2576 195.569 20.773 196.18C19.8252 197.318 19.0614 198.598 18.5095 199.973C18.0878 201.119 17.9389 202.347 18.0747 203.561C18.0847 203.684 18.1013 203.803 18.1179 203.926C18.1311 204.022 18.1444 204.118 18.161 204.218C18.3801 205.549 18.7584 206.883 18.6522 208.241C18.5876 208.936 18.3764 209.61 18.0326 210.218C17.6888 210.826 17.2202 211.355 16.6575 211.769C16.275 212.064 15.8662 212.324 15.4362 212.545C14.8213 212.862 14.1807 213.127 13.5211 213.335H12.2168C12.3927 213.285 12.5653 213.236 12.7412 213.186C13.3654 213.01 13.9783 212.796 14.5766 212.545C14.9183 212.402 15.2508 212.238 15.5722 212.054C16.9064 211.287 18.0183 210.112 18.2506 208.543C18.4531 207.169 18.0614 205.795 17.8291 204.45C17.7893 204.218 17.7528 203.989 17.7329 203.76C17.5744 202.596 17.6706 201.412 18.015 200.288C18.4925 198.887 19.2064 197.579 20.1258 196.419C20.6945 195.663 21.3016 194.938 21.9446 194.245C22.0242 194.155 22.1072 194.065 22.1935 193.976C24.5402 191.507 27.2497 189.411 30.2286 187.76H30.232C32.4469 186.526 34.7968 185.553 37.2349 184.859H37.2382C37.3477 184.826 37.4606 184.792 37.5701 184.762C37.7991 184.703 37.8522 185.065 37.6265 185.128Z" fill="white"/>
<path d="M22.0613 194.372C21.2597 193.526 20.785 192.422 20.722 191.258C20.659 190.094 21.0118 188.946 21.7174 188.018C21.8609 187.83 22.1586 188.044 22.015 188.232C21.3563 189.095 21.0278 190.165 21.0887 191.248C21.1495 192.332 21.5958 193.358 22.3469 194.142C22.51 194.313 22.2234 194.541 22.0613 194.372Z" fill="white"/>
<path d="M17.9594 203.559C20.3407 203.645 22.6669 202.83 24.4742 201.277C24.6531 201.123 24.8827 201.408 24.704 201.562C22.8203 203.175 20.3978 204.018 17.9199 203.923C17.6837 203.914 17.7245 203.549 17.9594 203.559Z" fill="white"/>
<path d="M30.5347 187.875C30.7766 188.267 31.1121 188.593 31.5111 188.823C31.9101 189.053 32.3601 189.181 32.8206 189.194C33.0568 189.201 33.0158 189.565 32.7811 189.559C32.2724 189.542 31.7757 189.4 31.3343 189.147C30.8929 188.893 30.5203 188.535 30.2491 188.104C30.2201 188.066 30.2069 188.018 30.212 187.97C30.2172 187.922 30.2404 187.878 30.277 187.847C30.3149 187.817 30.3633 187.802 30.4116 187.808C30.4598 187.813 30.5041 187.837 30.5347 187.875Z" fill="white"/>
<path d="M151.472 57.4596C151.131 57.9077 150.696 58.2756 150.198 58.5375C149.7 58.7993 149.15 58.9488 148.588 58.9753C148.026 59.0018 147.465 58.9047 146.944 58.6909C146.424 58.477 145.956 58.1516 145.575 57.7376L133.029 63.194L134.251 56.1905L145.978 52.0828C146.716 51.4884 147.646 51.1853 148.592 51.2311C149.539 51.2768 150.436 51.6681 151.113 52.3309C151.79 52.9937 152.201 53.8818 152.267 54.8271C152.333 55.7724 152.05 56.709 151.472 57.4596Z" fill="#FFB8B8"/>
<path d="M143.098 59.6468L113.959 72.6266L113.896 72.6042L80.6848 60.7693C78.211 59.4764 76.325 57.2868 75.4129 54.6487C74.5009 52.0106 74.6318 49.1237 75.7789 46.579C76.4147 45.173 77.3411 43.9176 78.497 42.8955C79.653 41.8734 81.0123 41.1077 82.4856 40.6487C83.9588 40.1898 85.5125 40.0481 87.0445 40.233C88.5764 40.4178 90.0518 40.925 91.3736 41.7212L116.089 56.6096L140.056 53.5035L143.098 59.6468Z" fill="#E6E6E6"/>
<path d="M286.326 213.606C286.326 213.658 286.316 213.709 286.296 213.757C286.276 213.805 286.247 213.849 286.211 213.886C286.174 213.922 286.13 213.951 286.082 213.971C286.034 213.991 285.983 214.001 285.931 214.001H0.406667C0.301919 214.001 0.201465 213.959 0.127397 213.885C0.0533292 213.811 0.0117188 213.711 0.0117188 213.606C0.0117188 213.501 0.0533292 213.401 0.127397 213.327C0.201465 213.253 0.301919 213.211 0.406667 213.211H285.931C285.983 213.211 286.034 213.221 286.082 213.241C286.13 213.26 286.174 213.29 286.211 213.326C286.247 213.363 286.276 213.407 286.296 213.455C286.316 213.503 286.326 213.554 286.326 213.606Z" fill="#CCCCCC"/>
<path d="M103.998 98.5048L74.6231 93.8063C73.8527 93.5596 73.1448 93.149 72.5481 92.6029C71.9513 92.0567 71.4798 91.3879 71.1659 90.6424C70.852 89.8968 70.7031 89.0921 70.7296 88.2836C70.756 87.4751 70.957 86.6819 71.319 85.9584L72.6511 83.2938L72.1336 55.2997C72.0713 51.6584 72.969 48.0648 74.7364 44.8805C76.5039 41.6963 79.0788 39.0337 82.2021 37.1605L85.0666 35.4478L86.5142 31.7715L99.8631 32.0971L99.902 36.9186L104.682 44.5416L104.682 44.5732L104.382 86.0644L103.065 90.3463L105.057 95.3266L103.998 98.5048Z" fill="#E6E6E6"/>
<path d="M94.412 27.1989C101.11 27.1989 106.541 21.7687 106.541 15.0701C106.541 8.37163 101.11 2.94141 94.412 2.94141C87.7134 2.94141 82.2832 8.37163 82.2832 15.0701C82.2832 21.7687 87.7134 27.1989 94.412 27.1989Z" fill="#FFB8B8"/>
<path d="M81.7812 17.715C81.4194 16.1909 81.5855 14.0464 81.7899 12.5119C82.3259 8.4889 84.56 4.66434 87.9543 2.39893C88.5979 1.91011 89.3626 1.60619 90.1662 1.51992C90.9692 1.4864 91.8396 1.91626 92.0861 2.68122C92.2884 2.17634 92.592 1.71829 92.9782 1.33532C93.3644 0.952345 93.825 0.652587 94.3315 0.454546C95.3491 0.0646896 96.4435 -0.0827448 97.5279 0.0239294C99.6299 0.197191 101.646 0.936291 103.362 2.16279C105.077 3.38929 106.429 5.05743 107.273 6.99019C107.597 7.75978 108.502 4.91712 108.913 5.64427C109.29 6.40011 109.948 6.97829 110.746 7.25509C111.55 7.47951 111.877 10.7932 112.193 10.0205C112.439 10.5915 112.536 11.2154 112.476 11.8341C112.415 12.4527 112.199 13.046 111.847 13.5587C111.496 14.0714 111.02 14.4867 110.465 14.7661C109.91 15.0455 109.293 15.1799 108.672 15.1566C107.853 15.126 107.07 14.8249 106.262 14.6953C103.369 14.2318 100.301 16.3293 99.6824 19.1926C99.461 18.3646 99.1074 17.5777 98.6351 16.8624C98.3953 16.5067 98.0741 16.2133 97.6981 16.0067C97.3221 15.8001 96.9022 15.6863 96.4734 15.6747C95.6504 15.7055 94.9271 16.2435 94.3931 16.8705C93.8592 17.4974 93.4581 18.2289 92.9202 18.8525C91.3419 20.6822 89.2072 24.9493 86.9579 24.6381C85.1829 24.3925 82.2751 19.7958 81.7812 17.715Z" fill="#2F2E41"/>
<path d="M167.727 71.203C167.812 70.6501 167.699 70.0849 167.406 69.6078C167.114 69.1307 166.663 68.7724 166.132 68.5965L133.469 57.718C133.156 57.6132 132.824 57.5751 132.496 57.6062L124.309 58.3804L119.611 58.826L110.943 59.6452C110.419 59.6953 109.927 59.9176 109.544 60.2774C109.161 60.6371 108.907 61.114 108.824 61.6331L104.423 89.1264C104.34 89.6626 104.442 90.2113 104.712 90.6817C104.983 91.1521 105.406 91.5162 105.911 91.7138L138.915 104.453C139.07 104.513 139.231 104.557 139.395 104.582C139.634 104.621 139.877 104.623 140.117 104.588L161.443 101.427C161.946 101.354 162.412 101.121 162.772 100.762C163.132 100.404 163.367 99.9385 163.442 99.4358L167.727 71.203Z" fill="white"/>
<path d="M106.66 89.7778L139.664 102.517C139.712 102.536 139.764 102.542 139.815 102.534L161.138 99.3741C161.202 99.3654 161.26 99.3364 161.306 99.2913C161.351 99.2463 161.38 99.1878 161.389 99.1246L165.677 70.8915C165.687 70.8226 165.672 70.7524 165.636 70.693C165.6 70.6335 165.544 70.5886 165.478 70.5658L165.258 70.4915L132.813 59.6897C132.799 59.6845 132.783 59.6808 132.768 59.6787C132.743 59.6741 132.717 59.6727 132.691 59.6747L112.723 61.5643L111.139 61.7129C111.074 61.7199 111.013 61.7479 110.965 61.7927C110.918 61.8375 110.886 61.8967 110.875 61.9611L106.474 89.4533C106.464 89.5205 106.476 89.5893 106.51 89.6483C106.544 89.7073 106.597 89.753 106.66 89.7778Z" fill="#5C59E8"/>
<path d="M112.723 61.5643L132.691 59.6747C132.716 59.6727 132.742 59.6741 132.767 59.6787C132.783 59.6808 132.798 59.6845 132.813 59.6897L165.258 70.4915L156.699 71.3974L153.496 71.7348L144.383 72.6977C144.356 72.6991 144.329 72.6987 144.303 72.6968C144.286 72.6919 144.27 72.687 144.251 72.6818L112.723 61.5643Z" fill="#2F2E41"/>
<path d="M105.91 91.7157L138.914 104.454C139.069 104.514 139.231 104.557 139.395 104.581C139.634 104.62 139.878 104.623 140.118 104.59L161.441 101.429C161.944 101.356 162.411 101.123 162.771 100.764C163.131 100.405 163.366 99.9395 163.442 99.4365L167.727 71.2032C167.79 70.7869 167.742 70.3613 167.588 69.9696C167.566 69.9175 167.544 69.8655 167.519 69.8164C167.349 69.4587 167.09 69.1505 166.768 68.9211C166.573 68.7815 166.359 68.6722 166.132 68.5969L166.093 68.5832L133.471 57.7179C133.337 57.6753 133.201 57.6423 133.063 57.6189C132.875 57.5922 132.684 57.5885 132.494 57.6079L124.309 58.3795L119.612 58.8275L110.942 59.6461C110.587 59.6792 110.244 59.7924 109.94 59.9772C109.916 59.9886 109.894 60.002 109.873 60.0174C109.858 60.0273 109.843 60.0381 109.83 60.05C109.564 60.2315 109.337 60.4653 109.165 60.7371C108.992 61.009 108.876 61.3131 108.825 61.631L104.421 89.1262C104.338 89.6629 104.44 90.2119 104.711 90.6827C104.981 91.1534 105.405 91.5178 105.91 91.7157ZM109.409 61.7268C109.463 61.3973 109.609 61.0898 109.831 60.8403C109.898 60.76 109.973 60.6867 110.055 60.6216C110.279 60.4406 110.544 60.3171 110.826 60.2619C110.882 60.2504 110.938 60.2424 110.995 60.238L125.593 58.8589L132.551 58.1968C132.599 58.1913 132.642 58.1921 132.685 58.1896C132.791 58.1874 132.896 58.1952 133 58.213C133.096 58.2254 133.189 58.2478 133.28 58.2798L165.941 69.1588C165.967 69.168 165.99 69.1768 166.015 69.1859C166.312 69.2964 166.573 69.4863 166.77 69.7348C166.925 69.925 167.039 70.1459 167.103 70.383C167.167 70.6201 167.18 70.868 167.142 71.1106L162.854 99.347C162.797 99.7236 162.622 100.072 162.352 100.341C162.083 100.61 161.734 100.785 161.357 100.841L140.031 104.001C139.726 104.045 139.414 104.009 139.127 103.898L106.123 91.1626C105.745 91.0135 105.429 90.7403 105.226 90.3877C105.023 90.0352 104.947 89.6242 105.008 89.2223L109.409 61.7268Z" fill="#3F3D56"/>
<path d="M109.76 60.2016C109.777 60.1516 109.808 60.1073 109.849 60.0734C109.863 60.0626 109.877 60.0529 109.892 60.0442C109.906 60.0388 109.92 60.0302 109.934 60.0248C110 59.9982 110.074 59.9969 110.141 60.0213L110.828 60.2636L144.387 72.1021L152.242 71.2722L156.637 70.8086L165.94 69.8238L166.771 69.7365L166.933 69.7187C167.003 69.7123 167.073 69.7305 167.13 69.7701C167.188 69.8097 167.23 69.8682 167.249 69.9356C167.254 69.9511 167.257 69.967 167.258 69.9831C167.265 70.047 167.251 70.1114 167.218 70.1666C167.185 70.2217 167.135 70.2647 167.075 70.289C167.049 70.3 167.021 70.3074 166.993 70.3112L165.862 70.4298L156.701 71.3982L153.498 71.7356L144.384 72.6985C144.357 72.6998 144.33 72.6995 144.304 72.6975C144.288 72.6927 144.271 72.6878 144.252 72.6826L110.056 60.6234L109.94 60.5823C109.914 60.5735 109.889 60.5599 109.868 60.542C109.816 60.504 109.778 60.4506 109.758 60.3894C109.739 60.3282 109.74 60.2624 109.76 60.2016Z" fill="#3F3D56"/>
<path d="M139.486 104.668C139.409 104.655 139.34 104.613 139.294 104.55C139.247 104.487 139.228 104.408 139.24 104.331L144.058 72.3579C144.069 72.2801 144.112 72.2102 144.175 72.1634C144.238 72.1167 144.317 72.0971 144.395 72.1088L144.398 72.1092C144.475 72.1216 144.544 72.1639 144.59 72.2271C144.637 72.2902 144.656 72.369 144.644 72.4463L139.826 104.419C139.815 104.497 139.772 104.567 139.709 104.613C139.646 104.66 139.567 104.68 139.489 104.668L139.486 104.668Z" fill="#3F3D56"/>
<path d="M151.698 102.639L148.494 102.977L152.242 71.2701C152.242 71.2701 156.522 70.4952 156.636 70.8059C156.707 70.9914 151.729 102.436 151.698 102.639Z" fill="#3F3D56"/>
<path d="M109.94 60.582L109.854 75.0416L135.451 84.7953L144.644 72.4475L109.94 60.582Z" fill="#3F3D56"/>
<path d="M166.771 69.736C166.557 69.4671 166.269 69.2667 165.943 69.1597L133.283 58.281C133.191 58.2502 133.097 58.2272 133.001 58.2124C132.897 58.1945 132.791 58.1866 132.686 58.1888L132.739 57.8578L133.065 57.6211L140.821 52.0059L166.722 59.9438L166.767 68.922L166.771 69.736Z" fill="#3F3D56"/>
<path d="M111.244 83.7932C111.281 83.7968 111.317 83.8044 111.352 83.8159L121.373 87.1073C121.499 87.1484 121.603 87.2378 121.662 87.3556C121.722 87.4734 121.732 87.6101 121.691 87.7356C121.65 87.8611 121.561 87.965 121.443 88.0246C121.325 88.0842 121.188 88.0946 121.063 88.0534L111.042 84.7621C110.925 84.7238 110.827 84.6441 110.766 84.538C110.705 84.432 110.685 84.3071 110.71 84.1872C110.735 84.0673 110.803 83.9609 110.902 83.8882C111 83.8155 111.122 83.7817 111.244 83.7932Z" fill="white"/>
<path d="M151.678 144.452C153.878 144.452 155.661 142.669 155.661 140.469C155.661 138.269 153.878 136.486 151.678 136.486C149.478 136.486 147.695 138.269 147.695 140.469C147.695 142.669 149.478 144.452 151.678 144.452Z" fill="#F2F2F2"/>
<path d="M50.1194 159.055C52.319 159.055 54.1022 157.272 54.1022 155.073C54.1022 152.873 52.319 151.09 50.1194 151.09C47.9198 151.09 46.1367 152.873 46.1367 155.073C46.1367 157.272 47.9198 159.055 50.1194 159.055Z" fill="#F2F2F2"/>
<path d="M133.092 27.2936C135.292 27.2936 137.075 25.5104 137.075 23.3108C137.075 21.1112 135.292 19.3281 133.092 19.3281C130.892 19.3281 129.109 21.1112 129.109 23.3108C129.109 25.5104 130.892 27.2936 133.092 27.2936Z" fill="#F2F2F2"/>
<path d="M139.625 89.6526C139.109 89.8769 138.55 89.9852 137.988 89.97C137.425 89.9549 136.873 89.8165 136.369 89.5647C135.866 89.3129 135.424 88.9538 135.074 88.5127C134.725 88.0716 134.476 87.5593 134.346 87.0117L120.734 85.6365L125.225 80.125L137.462 82.2759C138.397 82.1183 139.356 82.3089 140.16 82.8116C140.963 83.3143 141.554 84.0942 141.82 85.0034C142.087 85.9127 142.011 86.8882 141.606 87.7451C141.202 88.602 140.497 89.2807 139.625 89.6526Z" fill="#FFB8B8"/>
<path d="M131.253 87.4661L99.4877 84.5393L99.4441 84.4892L76.2611 57.9257C74.7355 55.5882 74.161 52.756 74.6554 50.0088C75.1499 47.2617 76.6757 44.8075 78.9207 43.1486C80.1628 42.2331 81.5847 41.5911 83.0929 41.2648C84.601 40.9384 86.1612 40.9352 87.6707 41.2553C89.1801 41.5754 90.6047 42.2115 91.8506 43.1219C93.0965 44.0322 94.1355 45.1961 94.8992 46.5369L109.178 71.6096L131.603 80.6195L131.253 87.4661Z" fill="#E6E6E6"/>
<path d="M210.982 36.3805C210.193 30.5943 209.203 24.382 205.122 20.2051C203.827 18.8797 202.277 17.8304 200.566 17.1202C198.855 16.4101 197.017 16.0538 195.164 16.073C193.311 16.0922 191.482 16.4864 189.785 17.2318C188.089 17.9772 186.561 19.0585 185.294 20.4103C182.323 23.5795 181.011 28.0295 180.891 32.3717C180.771 36.7139 181.738 41.0078 182.811 45.2171C188.488 45.3305 194.123 44.2213 199.334 41.9648C200.637 41.3992 201.919 40.7598 203.296 40.4094C204.673 40.059 205.654 40.9407 206.935 41.5555L207.638 40.2096C208.213 41.2804 209.995 40.963 210.641 39.9333C211.287 38.9037 211.146 37.585 210.982 36.3805Z" fill="#2F2E41"/>
<path d="M188.478 68.6767L165.286 69.1727C164.93 68.5571 164.403 68.0582 163.768 67.7368C163.134 67.4154 162.42 67.2854 161.713 67.3625C161.005 67.4396 160.336 67.7206 159.786 68.1712C159.236 68.6218 158.828 69.2226 158.613 69.9005C158.398 70.5785 158.385 71.3043 158.575 71.9897C158.765 72.6751 159.15 73.2905 159.683 73.761C160.216 74.2316 160.875 74.5369 161.579 74.64C162.282 74.7431 163.001 74.6394 163.647 74.3415C166.723 74.5164 190.786 77.9317 192.222 75.7307C193.679 73.4967 201.457 65.6126 201.457 65.6126L195.478 57.1016L188.478 68.6767Z" fill="#9E616A"/>
<path d="M194.129 42.1047C200.146 42.1047 205.025 37.2263 205.025 31.2086C205.025 25.1908 200.146 20.3125 194.129 20.3125C188.111 20.3125 183.232 25.1908 183.232 31.2086C183.232 37.2263 188.111 42.1047 194.129 42.1047Z" fill="#9E616A"/>
<path d="M211.58 52.1742C210.296 49.6187 209.672 46.4617 206.935 45.6332C205.086 45.0737 197.609 45.9121 195.925 46.8565C193.122 48.4274 195.662 51.371 194.008 54.1257C192.211 57.1203 187.327 63.1299 185.53 66.1244C184.294 68.1831 188.456 74.2257 187.788 76.5319C187.12 78.8381 187.088 81.4265 188.226 83.5406C189.244 85.4328 187.771 87.1068 188.795 88.9959C189.86 90.9606 191.167 98.3064 190.176 100.309L189.512 102.301C196.099 102.688 201.638 94.8185 208.184 93.9896C209.81 93.7837 211.498 93.5147 212.838 92.5709C214.811 91.1808 215.592 88.6582 216.079 86.2939C218.426 74.7371 216.842 62.7276 211.58 52.1742Z" fill="#3F3D56"/>
<path d="M221.456 79.159C220.539 76.6547 218.878 65.7052 218.878 65.7052L208.482 65.4004L213.564 77.9367L199.694 97.3533C199.694 97.3533 199.72 97.396 199.767 97.4721C199.038 97.3551 198.29 97.4609 197.622 97.7758C196.954 98.0906 196.396 98.5998 196.022 99.2367C195.649 99.8737 195.476 100.609 195.526 101.345C195.577 102.082 195.849 102.787 196.306 103.366C196.764 103.946 197.386 104.374 198.091 104.595C198.796 104.815 199.551 104.818 200.257 104.602C200.963 104.386 201.588 103.962 202.05 103.386C202.511 102.809 202.788 102.107 202.843 101.37C202.894 101.399 202.954 101.41 203.012 101.4C203.07 101.39 203.123 101.36 203.161 101.316C204.705 99.3788 222.374 81.6634 221.456 79.159Z" fill="#9E616A"/>
<path d="M222.514 72.2427C221.56 68.2153 220.599 64.1659 218.99 60.3524C217.381 56.5389 215.078 52.937 211.839 50.3606C210.803 49.5369 209.645 48.8099 208.347 48.5539C207.049 48.2977 205.586 48.5844 204.674 49.5433C203.215 51.0779 203.654 53.541 204.189 55.5897C205.767 61.6303 207.345 67.6709 208.923 73.7115C213.479 73.2285 218.036 72.7455 222.593 72.2625L222.514 72.2427Z" fill="#3F3D56"/>
<path d="M207.48 32.7218C207.079 30.086 206.66 27.428 205.717 24.9461C204.774 22.4641 203.255 20.1394 201.075 18.7334C197.624 16.5074 193.155 16.9367 189.286 18.2172C186.293 19.2074 183.372 20.7126 181.262 23.1323C179.152 25.552 177.966 29.0047 178.751 32.1686C182.879 31.1934 187.006 30.2182 191.134 29.243L190.682 29.5623C192.037 30.2381 193.221 31.2138 194.143 32.4153C195.065 33.6167 195.701 35.0125 196.003 36.4965C196.298 37.9985 196.255 39.5474 195.879 41.031C195.502 42.5147 194.8 43.896 193.824 45.0751C196.639 44.0765 199.454 43.0779 202.269 42.0794C204.006 41.463 205.866 40.7528 206.896 39.1718C208.091 37.3388 207.813 34.9093 207.48 32.7218Z" fill="#2F2E41"/>
</g>
<defs>
<clipPath id="clip0_3767_3635">
<rect width="286.325" height="214" fill="white"/>
</clipPath>
</defs>
</svg>
