<?xml version="1.0" standalone="no"?>
<!DOCTYPE svg PUBLIC "-//W3C//DTD SVG 20010904//EN"
 "http://www.w3.org/TR/2001/REC-SVG-20010904/DTD/svg10.dtd">
<svg version="1.0" xmlns="http://www.w3.org/2000/svg"
 width="500.000000pt" height="500.000000pt" viewBox="0 0 500.000000 500.000000"
 preserveAspectRatio="xMidYMid meet">

<g transform="translate(0.000000,500.000000) scale(0.100000,-0.100000)"
fill="#000000" stroke="none">
<path d="M904 3318 c-125 -91 -275 -211 -283 -226 -5 -9 -30 -132 -55 -272
-55 -300 -81 -440 -106 -570 -37 -188 -42 -240 -26 -265 9 -13 30 -28 48 -34
37 -11 294 -58 533 -96 88 -13 182 -29 208 -35 79 -16 106 -13 136 18 25 24
32 47 61 202 18 96 36 179 40 183 4 5 10 -3 14 -17 9 -36 34 -40 193 -27 159
12 200 22 243 58 l31 26 27 -26 c40 -38 93 -57 161 -57 108 0 193 47 248 136
10 16 12 10 12 -38 1 -88 26 -103 157 -96 69 3 78 6 98 31 l22 27 21 -27 20
-28 174 -1 c118 -1 184 3 205 11 25 10 34 10 49 -1 26 -19 152 -18 185 1 14 8
31 17 38 21 8 4 32 -4 55 -17 35 -19 55 -23 122 -22 44 1 139 1 210 2 147 1
174 9 189 59 12 41 22 41 36 -3 17 -50 53 -58 241 -53 85 3 161 8 170 12 26
12 36 45 59 197 39 258 35 246 81 254 22 4 46 13 53 21 31 30 49 201 24 222
-18 14 -673 21 -687 7 -6 -6 -21 -37 -35 -70 -27 -66 -41 -78 -50 -41 -9 37
-56 87 -101 107 -54 25 -175 25 -230 0 -33 -15 -43 -16 -60 -5 -29 18 -198 23
-219 5 -13 -11 -19 -11 -33 0 -25 21 -527 25 -559 4 -20 -13 -26 -13 -54 2
-28 14 -65 15 -299 8 -149 -4 -271 -11 -278 -17 -8 -7 -25 -6 -50 3 -24 8 -92
13 -181 13 l-144 1 -24 -30 c-27 -33 -28 -33 -15 11 6 22 4 38 -8 61 -26 49
-183 264 -221 303 -35 36 -37 37 -190 59 -85 12 -171 24 -190 27 -26 3 -43 -1
-66 -18z m201 -68 c208 -34 185 -20 304 -186 l103 -146 -82 -452 c-46 -248
-86 -471 -90 -496 -8 -60 -26 -90 -53 -90 -12 0 -74 9 -137 20 -63 11 -214 36
-335 56 -121 20 -239 40 -263 44 -24 4 -47 11 -53 17 -12 12 -3 67 126 747 14
70 30 164 37 208 9 55 19 85 33 98 37 35 260 200 270 200 6 0 69 -9 140 -20z
m2591 -429 c48 -22 77 -73 72 -129 l-3 -37 -55 -3 c-55 -3 -56 -3 -65 30 -8
27 -16 34 -42 36 -44 4 -57 -21 -77 -150 -22 -144 -21 -185 3 -198 46 -24 85
-1 97 57 6 29 4 32 -22 35 -27 3 -29 5 -25 48 4 65 12 70 104 70 l80 0 -7 -47
c-4 -27 -9 -69 -12 -94 -10 -74 -53 -151 -97 -173 -77 -37 -167 -30 -226 20
-42 35 -48 88 -27 243 9 69 22 142 28 161 37 124 160 183 274 131z m-1794 -1
c90 -25 105 -138 31 -238 -23 -31 -24 -34 -9 -51 38 -42 28 -143 -20 -201 -42
-50 -79 -63 -199 -71 -133 -10 -146 -7 -140 29 5 34 22 142 35 227 6 36 15 95
20 133 6 37 16 93 22 125 l11 57 106 0 c58 0 123 -5 143 -10z m261 3 c3 -5 -1
-53 -9 -108 -31 -226 -34 -251 -35 -280 -2 -61 0 -65 30 -65 16 0 33 6 39 13
9 11 28 118 64 370 l11 77 59 0 58 0 0 -37 c-1 -21 -13 -125 -29 -230 -31
-215 -47 -255 -116 -287 -55 -26 -167 -26 -202 0 -47 35 -59 87 -45 196 21
159 51 338 59 351 2 4 28 7 58 7 30 0 56 -3 58 -7z m381 -15 c3 -13 8 -58 13
-101 4 -43 12 -79 17 -80 4 -1 25 39 45 88 20 50 40 96 44 103 10 15 117 17
117 1 0 -6 -38 -95 -85 -198 -47 -104 -85 -201 -85 -218 0 -16 -5 -55 -11 -86
l-12 -57 -64 0 -65 0 6 38 c15 100 17 152 7 207 -14 82 -39 201 -52 252 -17
64 -10 73 60 73 55 0 61 -2 65 -22z m411 12 c3 -5 1 -36 -4 -67 -12 -70 -26
-161 -40 -265 -6 -43 -16 -112 -22 -153 l-12 -75 -65 0 -65 0 7 66 c10 102 66
486 72 496 7 11 122 10 129 -2z m185 -12 c5 -13 23 -79 40 -148 17 -68 33
-126 35 -128 6 -6 12 27 31 163 9 66 18 123 21 128 2 4 26 7 53 7 27 0 51 -3
53 -7 5 -8 -1 -61 -27 -238 -9 -60 -21 -146 -27 -190 -17 -132 -16 -130 -82
-133 -67 -4 -63 -10 -105 161 -15 59 -29 107 -33 107 -3 0 -14 -60 -25 -132
l-19 -133 -58 -3 c-56 -3 -57 -3 -57 24 0 15 5 53 10 83 6 31 22 142 36 246
14 105 27 196 29 203 3 7 24 12 60 12 48 0 57 -3 65 -22z m972 -33 c18 -133
37 -294 54 -447 l7 -68 -65 0 c-71 0 -78 5 -78 61 l0 29 -68 0 -68 0 -14 -42
-15 -43 -64 -3 c-58 -3 -63 -1 -56 15 4 10 20 52 35 93 29 76 87 229 135 354
43 113 36 107 118 104 l72 -3 7 -50z m424 40 c3 -8 2 -32 -3 -52 -9 -37 -10
-38 -61 -41 -61 -4 -52 20 -87 -227 -38 -264 -25 -235 -101 -235 l-65 0 6 48
c6 48 14 101 40 278 21 141 23 134 -29 134 -25 0 -48 5 -51 11 -4 6 -4 30 0
55 l6 44 170 0 c141 0 171 -3 175 -15z"/>
<path d="M846 2920 c-123 -39 -145 -238 -31 -286 78 -32 167 -7 200 56 25 48
30 121 11 157 -31 61 -113 94 -180 73z m84 -105 c17 -21 4 -82 -21 -95 -26
-14 -56 -4 -64 21 -8 25 2 71 18 81 20 13 54 9 67 -7z"/>
<path d="M955 2559 c-221 -220 -287 -291 -276 -298 8 -5 35 -12 60 -16 l46 -7
283 287 c156 157 282 291 279 298 -2 7 -26 15 -53 18 l-49 6 -290 -288z"/>
<path d="M1060 2448 c-44 -31 -70 -82 -70 -141 0 -62 19 -97 68 -125 70 -39
159 -23 201 37 31 43 39 127 17 173 -35 72 -148 102 -216 56z m126 -104 c10
-39 -9 -79 -40 -82 -35 -4 -56 13 -56 47 0 64 81 94 96 35z"/>
<path d="M1757 2703 c-3 -5 -8 -32 -12 -60 l-7 -53 30 0 c16 0 39 8 51 18 21
17 31 68 17 90 -8 13 -72 17 -79 5z"/>
<path d="M1721 2440 c-15 -68 -14 -70 9 -70 56 0 100 52 85 101 -5 14 -16 19
-45 19 -38 0 -38 0 -49 -50z"/>
<path d="M3986 2620 c-19 -47 -46 -135 -46 -147 0 -10 10 -13 37 -11 l37 3 -3
64 c-3 71 -15 116 -25 91z"/>
</g>
</svg>
