<svg width="221" height="44" viewBox="0 0 221 44" fill="none" xmlns="http://www.w3.org/2000/svg">
<path d="M0 6.13904C0 2.95349 2.5824 0.371094 5.76794 0.371094H37.4916C40.6772 0.371094 43.2596 2.95349 43.2596 6.13904V37.8627C43.2596 41.0483 40.6772 43.6307 37.4916 43.6307H5.76794C2.5824 43.6307 0 41.0483 0 37.8627V6.13904Z" fill="#2DA5F3"/>
<path d="M20.7338 8.55078C24.1639 8.55078 27.2988 9.80837 29.6782 11.874C30.0128 12.1645 30.0117 12.6759 29.6955 12.9863L28.3638 14.2937L27.0099 15.623C26.7024 15.9249 26.2122 15.9217 25.8769 15.651C24.4769 14.5203 22.6878 13.8444 20.7338 13.8444C16.2614 13.8444 12.6358 17.3994 12.6358 21.7847C12.6358 26.1701 16.2614 29.7251 20.7338 29.7251C22.6848 29.7251 24.4714 29.0512 25.8704 27.9237C26.206 27.6533 26.6962 27.6507 27.0034 27.9529L28.3559 29.2835L29.6862 30.5923C30.002 30.903 30.0026 31.4143 29.6678 31.7044C27.2896 33.7647 24.1588 35.0187 20.7338 35.0187C13.2798 35.0187 7.2371 29.0936 7.2371 21.7847C7.2371 14.4758 13.2798 8.55078 20.7338 8.55078ZM31.5311 17.8796C33.7062 17.8796 35.4695 19.6086 35.4695 21.7413C35.4695 23.8741 33.7062 25.603 31.5311 25.603C29.356 25.603 27.5928 23.8741 27.5928 21.7413C27.5928 19.6086 29.356 17.8796 31.5311 17.8796Z" fill="white"/>
<path d="M64.6804 32.0407C62.8585 32.0407 61.2797 31.6162 59.9442 30.7671C58.6087 29.9092 57.5739 28.7241 56.8398 27.2117C56.1057 25.6993 55.7387 23.9525 55.7387 21.9713C55.7387 19.999 56.1013 18.292 56.8265 16.8504C57.5518 15.4087 58.5822 14.2943 59.9177 13.5072C61.262 12.72 62.8496 12.3264 64.6804 12.3264C66.1663 12.3264 67.4885 12.6227 68.6472 13.2153C69.8146 13.799 70.7566 14.6083 71.473 15.6431C72.1894 16.6691 72.6183 17.841 72.7598 19.1588H68.0236C67.9175 18.522 67.7141 17.9692 67.4134 17.5004C67.1215 17.0228 66.7323 16.6514 66.2459 16.386C65.7683 16.1207 65.1978 15.988 64.5345 15.988C63.765 15.988 63.0928 16.1826 62.5179 16.5718C61.9431 16.9521 61.4964 17.5889 61.178 18.4822C60.8685 19.3666 60.7137 20.5518 60.7137 22.0377C60.7137 24.3018 61.0586 25.9248 61.7485 26.9065C62.4472 27.8883 63.3759 28.3791 64.5345 28.3791C65.1978 28.3791 65.7683 28.2199 66.2459 27.9015C66.7323 27.5831 67.1215 27.1586 67.4134 26.6279C67.7141 26.0884 67.9175 25.5047 68.0236 24.8767H72.7598C72.636 25.8231 72.4105 26.7296 72.0832 27.5964C71.7648 28.4543 71.3005 29.2193 70.6902 29.8915C70.08 30.5637 69.284 31.0899 68.3022 31.4703C67.3293 31.8506 66.1221 32.0407 64.6804 32.0407ZM75.9822 31.7754L75.9954 12.5918H80.5194V28.0209H88.5192V31.7754H75.9822ZM90.3838 31.7754L97.2028 12.5918H101.886L108.718 31.7754H104.234L102.815 27.6893H96.3405L94.8944 31.7754H90.3838ZM97.3222 23.8021H101.767L99.551 16.93L97.3222 23.8021ZM118.436 32.0407C117.463 32.0407 116.508 31.9213 115.571 31.6825C114.633 31.4349 113.771 31.0678 112.984 30.5814C112.205 30.0861 111.564 29.467 111.06 28.7241C110.556 27.9811 110.259 27.1099 110.171 26.1105H114.788C114.903 26.6323 115.128 27.0746 115.464 27.4372C115.801 27.791 116.243 28.0651 116.791 28.2597C117.339 28.4455 117.976 28.5383 118.701 28.5383C119.214 28.5383 119.714 28.472 120.201 28.3393C120.687 28.1978 121.089 27.9767 121.408 27.676C121.726 27.3753 121.885 26.9773 121.885 26.482C121.885 25.8806 121.651 25.4472 121.182 25.1819C120.714 24.9077 120.117 24.6954 119.391 24.5451L115.955 23.8552C114.876 23.6429 113.943 23.3068 113.156 22.8469C112.378 22.387 111.776 21.7812 111.352 21.0294C110.936 20.2776 110.728 19.371 110.728 18.3097C110.728 17.0626 111.073 15.9969 111.763 15.1124C112.453 14.2192 113.386 13.5381 114.562 13.0694C115.747 12.5918 117.079 12.353 118.556 12.353C120.183 12.353 121.567 12.6095 122.708 13.1224C123.849 13.6354 124.72 14.343 125.322 15.2451C125.923 16.1384 126.237 17.1511 126.263 18.2832H121.753C121.7 17.7083 121.527 17.2484 121.235 16.9034C120.944 16.5497 120.559 16.2888 120.081 16.1207C119.604 15.9527 119.051 15.8686 118.423 15.8686C117.37 15.8686 116.614 16.0721 116.154 16.4789C115.694 16.8858 115.464 17.3368 115.464 17.8321C115.464 18.3274 115.646 18.7342 116.008 19.0526C116.371 19.371 116.972 19.6098 117.813 19.769L120.904 20.366C122.195 20.5872 123.243 20.9631 124.048 21.4937C124.862 22.0155 125.459 22.6612 125.839 23.4307C126.228 24.1913 126.423 25.0536 126.423 26.0177C126.423 27.2205 126.073 28.273 125.375 29.1751C124.685 30.0773 123.743 30.7804 122.549 31.2845C121.355 31.7887 119.984 32.0407 118.436 32.0407ZM137.366 32.0407C136.393 32.0407 135.438 31.9213 134.5 31.6825C133.563 31.4349 132.701 31.0678 131.913 30.5814C131.135 30.0861 130.494 29.467 129.99 28.7241C129.486 27.9811 129.189 27.1099 129.101 26.1105H133.718C133.833 26.6323 134.058 27.0746 134.394 27.4372C134.73 27.791 135.173 28.0651 135.721 28.2597C136.269 28.4455 136.906 28.5383 137.631 28.5383C138.144 28.5383 138.644 28.472 139.131 28.3393C139.617 28.1978 140.019 27.9767 140.338 27.676C140.656 27.3753 140.815 26.9773 140.815 26.482C140.815 25.8806 140.581 25.4472 140.112 25.1819C139.643 24.9077 139.046 24.6954 138.321 24.5451L134.885 23.8552C133.806 23.6429 132.873 23.3068 132.086 22.8469C131.308 22.387 130.706 21.7812 130.282 21.0294C129.866 20.2776 129.658 19.371 129.658 18.3097C129.658 17.0626 130.003 15.9969 130.693 15.1124C131.383 14.2192 132.316 13.5381 133.492 13.0694C134.677 12.5918 136.008 12.353 137.485 12.353C139.113 12.353 140.497 12.6095 141.638 13.1224C142.779 13.6354 143.65 14.343 144.251 15.2451C144.853 16.1384 145.167 17.1511 145.193 18.2832H140.683C140.63 17.7083 140.457 17.2484 140.165 16.9034C139.873 16.5497 139.489 16.2888 139.011 16.1207C138.534 15.9527 137.981 15.8686 137.353 15.8686C136.3 15.8686 135.544 16.0721 135.084 16.4789C134.624 16.8858 134.394 17.3368 134.394 17.8321C134.394 18.3274 134.576 18.7342 134.938 19.0526C135.301 19.371 135.902 19.6098 136.743 19.769L139.834 20.366C141.125 20.5872 142.173 20.9631 142.978 21.4937C143.792 22.0155 144.389 22.6612 144.769 23.4307C145.158 24.1913 145.353 25.0536 145.353 26.0177C145.353 27.2205 145.003 28.273 144.305 29.1751C143.615 30.0773 142.673 30.7804 141.479 31.2845C140.285 31.7887 138.914 32.0407 137.366 32.0407ZM148.515 31.7754V12.5918H153.039V31.7754H148.515ZM157.028 31.7754V12.5918H170.587L170.573 16.3197H161.565V20.4589H169.233V24.094H161.565V31.7754H157.028ZM173.6 31.7754V12.5918H178.124V31.7754H173.6ZM182.113 31.7754V12.5918H195.791L195.765 16.3595H186.664V20.2732H194.425V23.9613H186.637V27.9679L195.871 27.9811V31.7754H182.113ZM199.204 31.7754V12.5918C199.327 12.5918 199.641 12.5918 200.146 12.5918C200.659 12.5918 201.251 12.5918 201.923 12.5918C202.604 12.5829 203.272 12.5829 203.927 12.5918C204.581 12.5918 205.116 12.6006 205.532 12.6183C207.849 12.6891 209.737 13.1269 211.197 13.9317C212.665 14.7277 213.74 15.8244 214.421 17.2218C215.11 18.6104 215.455 20.2378 215.455 22.104C215.455 24.0321 215.093 25.7214 214.367 27.1719C213.651 28.6223 212.554 29.7544 211.077 30.5681C209.6 31.373 207.721 31.7754 205.439 31.7754H199.204ZM203.741 28.1801H205.572C206.447 28.1801 207.279 27.9811 208.066 27.5831C208.853 27.1851 209.494 26.5395 209.989 25.6462C210.494 24.7529 210.746 23.5545 210.746 22.0509C210.746 20.7154 210.533 19.6143 210.109 18.7475C209.684 17.8808 209.087 17.2395 208.318 16.8238C207.548 16.3993 206.642 16.187 205.598 16.187H203.741V28.1801Z" fill="#1F2744"/>
</svg>
