<svg width="13" height="17" viewBox="0 0 13 17" fill="none" xmlns="http://www.w3.org/2000/svg">
<path d="M11.8317 8.5369L6.77914 16.5326C6.70078 16.6552 6.59214 16.7554 6.46377 16.8234C6.3354 16.8915 6.19166 16.9251 6.04651 16.921C5.9684 16.9333 5.88884 16.9333 5.81072 16.921C5.63014 16.8683 5.47234 16.7566 5.36245 16.6036C5.25257 16.4506 5.19693 16.2651 5.20441 16.0767V11.0108H1.68445C1.38294 11.0108 1.08696 10.9297 0.827386 10.7759C0.567816 10.6221 0.35418 10.4013 0.208782 10.1365C0.063383 9.87163 -0.00844709 9.57253 0.000790923 9.27038C0.0100289 8.96822 0.0999962 8.67409 0.2613 8.4187L5.31389 0.423002C5.40831 0.258587 5.55521 0.13085 5.7309 0.0603887C5.90659 -0.0100729 6.10083 -0.019152 6.2823 0.0346155C6.46288 0.0872616 6.62069 0.198998 6.73057 0.352017C6.84045 0.505035 6.89609 0.690528 6.88861 0.878934V5.94484H10.4086C10.7101 5.9448 11.0061 6.02591 11.2656 6.17969C11.5252 6.33348 11.7388 6.55432 11.8842 6.81914C12.0296 7.08396 12.1015 7.38307 12.0922 7.68522C12.083 7.98738 11.993 8.2815 11.8317 8.5369Z" fill="white"/>
</svg>
