<svg width="48" height="48" viewBox="0 0 48 48" fill="none" xmlns="http://www.w3.org/2000/svg">
<rect width="48" height="48" rx="24" fill="#2DA5F3"/>
<path d="M20.25 32.25C20.25 32.6642 19.9142 33 19.5 33C19.0858 33 18.75 32.6642 18.75 32.25C18.75 31.8358 19.0858 31.5 19.5 31.5C19.9142 31.5 20.25 31.8358 20.25 32.25Z" fill="white" stroke="white" stroke-width="1.5"/>
<path d="M29.25 33.75C30.0784 33.75 30.75 33.0784 30.75 32.25C30.75 31.4216 30.0784 30.75 29.25 30.75C28.4216 30.75 27.75 31.4216 27.75 32.25C27.75 33.0784 28.4216 33.75 29.25 33.75Z" fill="white"/>
<path d="M15.9656 18.75H32.7844L30.3094 27.4125C30.2211 27.7269 30.032 28.0036 29.7711 28.2C29.5103 28.3965 29.1922 28.5019 28.8656 28.5H19.8844C19.5578 28.5019 19.2397 28.3965 18.9789 28.2C18.718 28.0036 18.5289 27.7269 18.4406 27.4125L15.0469 15.5438C15.002 15.387 14.9073 15.2491 14.777 15.1509C14.6468 15.0528 14.4881 14.9998 14.325 15H12.75" stroke="white" stroke-width="1.5" stroke-linecap="round" stroke-linejoin="round"/>
</svg>
