<svg width="36" height="35" viewBox="0 0 36 35" fill="none" xmlns="http://www.w3.org/2000/svg">
<circle cx="18" cy="17.75" r="17.25" fill="white"/>
<path d="M24.4111 15.1694L22.9398 24.9101C22.8634 25.5331 22.3542 26.0001 21.7511 26.0001H14.2495C13.6463 26.0001 13.1371 25.5331 13.0607 24.9101L11.589 15.1694C11.4975 14.4235 12.0558 13.7631 12.7777 13.7631H23.2224C23.9448 13.7631 24.5026 14.4235 24.4111 15.1694ZM24.0383 11.1868L21.4885 10.8487C21.5804 10.0956 21.0687 9.40709 20.3455 9.3114L16.1937 8.76111C15.4705 8.66543 14.8093 9.19828 14.7175 9.95142L12.1677 9.61334C11.7213 9.55465 11.3134 9.88338 11.2566 10.3482C11.1998 10.813 11.5155 11.2378 11.9618 11.297L23.8325 12.87C24.2788 12.9291 24.6868 12.6004 24.7435 12.1356C24.8003 11.6708 24.4846 11.2459 24.0383 11.1868Z" fill="#2DA5F3"/>
</svg>
