<svg width="24" height="24" viewBox="0 0 24 24" fill="none" xmlns="http://www.w3.org/2000/svg">
<path d="M12.4675 12.0525C12.3067 12.1976 12.0978 12.2779 11.8812 12.2779C11.6647 12.2779 11.4558 12.1976 11.295 12.0525L3.875 5.30625C4.16616 5.1068 4.51082 5.00005 4.86375 5H18.8637C19.2166 5.00005 19.5613 5.1068 19.8525 5.30625L12.4675 12.0525Z" fill="#475156"/>
<path d="M20.5 6.97656V16.374C20.5 17.0702 20.2234 17.7379 19.7311 18.2302C19.2388 18.7225 18.5712 18.999 17.875 18.999H5.62499C4.9288 18.999 4.26113 18.7225 3.76884 18.2302C3.27656 17.7379 3 17.0702 3 16.374V6.97656L10.595 13.9065C10.9153 14.1847 11.3257 14.3371 11.75 14.3353C12.1795 14.3344 12.5937 14.1756 12.9137 13.889L20.5 6.97656Z" fill="#475156"/>
</svg>
