<svg width="40" height="40" viewBox="0 0 40 40" fill="none" xmlns="http://www.w3.org/2000/svg">
<rect width="40" height="40" rx="20" fill="#0077B5"/>
<g clip-path="url(#clip0_321_26637)">
<path d="M27.9958 28.0005V27.9998H27.9998V22.1318C27.9998 19.2611 27.3818 17.0498 24.0258 17.0498C22.4125 17.0498 21.3298 17.9351 20.8878 18.7745H20.8412V17.3178H17.6592V27.9998H20.9725V22.7105C20.9725 21.3178 21.2365 19.9711 22.9612 19.9711C24.6605 19.9711 24.6858 21.5605 24.6858 22.7998V28.0005H27.9958Z" fill="white"/>
<path d="M12.2637 17.3184H15.581V28.0004H12.2637V17.3184Z" fill="white"/>
<path d="M13.9213 12C12.8607 12 12 12.8607 12 13.9213C12 14.982 12.8607 15.8607 13.9213 15.8607C14.982 15.8607 15.8427 14.982 15.8427 13.9213C15.842 12.8607 14.9813 12 13.9213 12V12Z" fill="white"/>
</g>
<defs>
<clipPath id="clip0_321_26637">
<rect width="16" height="16" fill="white" transform="translate(12 12)"/>
</clipPath>
</defs>
</svg>
