<svg width="40" height="40" viewBox="0 0 40 40" fill="none" xmlns="http://www.w3.org/2000/svg">
<g clip-path="url(#clip0_531_5257)">
<path d="M39.2119 35.0794V35.1591H39.2865C39.3005 35.1594 39.3143 35.1559 39.3265 35.149C39.3313 35.1455 39.3353 35.141 39.3379 35.1356C39.3405 35.1303 39.3417 35.1244 39.3415 35.1185C39.3417 35.1127 39.3405 35.1069 39.3379 35.1017C39.3352 35.0965 39.3313 35.0921 39.3265 35.0888C39.3144 35.0816 39.3005 35.0781 39.2865 35.0786H39.2119V35.0794ZM39.2873 35.0231C39.3193 35.0211 39.3509 35.0303 39.3769 35.049C39.3873 35.0575 39.3955 35.0683 39.401 35.0805C39.4064 35.0928 39.4089 35.1061 39.4083 35.1195C39.4088 35.131 39.4067 35.1425 39.4024 35.1532C39.3981 35.1639 39.3915 35.1735 39.3831 35.1814C39.3631 35.1988 39.3379 35.2092 39.3115 35.2111L39.4115 35.3247H39.3345L39.2425 35.2119H39.2127V35.3247H39.1483V35.0233H39.2883L39.2873 35.0231ZM39.2673 35.4287C39.3011 35.429 39.3345 35.4222 39.3655 35.4088C39.3953 35.396 39.4225 35.3776 39.4455 35.3548C39.4685 35.3319 39.4869 35.3049 39.4997 35.2751C39.5259 35.2119 39.5259 35.141 39.4997 35.0778C39.4867 35.0482 39.4684 35.0211 39.4455 34.9982C39.4225 34.9753 39.3953 34.957 39.3655 34.9442C39.3343 34.9314 39.3009 34.9251 39.2673 34.9254C39.233 34.9251 39.1991 34.9315 39.1673 34.9442C39.1368 34.9567 39.109 34.9751 39.0855 34.9982C39.0501 35.0343 39.0262 35.08 39.0167 35.1296C39.0072 35.1792 39.0125 35.2305 39.0321 35.2771C39.0443 35.307 39.0624 35.3341 39.0855 35.3568C39.109 35.3798 39.1368 35.3982 39.1673 35.4108C39.1989 35.4242 39.2329 35.431 39.2673 35.4307V35.4287ZM39.2673 34.8529C39.3552 34.8528 39.4396 34.8872 39.5023 34.9485C39.5325 34.978 39.5566 35.0132 39.5731 35.052C39.5902 35.0918 39.599 35.1346 39.599 35.178C39.599 35.2213 39.5902 35.2641 39.5731 35.304C39.5562 35.3426 39.5322 35.3776 39.5023 35.4074C39.4716 35.4367 39.4359 35.4603 39.3969 35.4771C39.3559 35.4944 39.3118 35.5033 39.2673 35.503C39.2222 35.5033 39.1776 35.4945 39.1361 35.4771C39.0966 35.4607 39.0606 35.437 39.0299 35.4074C39 35.3765 38.9763 35.3403 38.9601 35.3006C38.943 35.2608 38.9342 35.2179 38.9342 35.1746C38.9342 35.1313 38.943 35.0884 38.9601 35.0486C38.9766 35.0098 39.0006 34.9746 39.0309 34.9452C39.0612 34.915 39.0973 34.8913 39.1371 34.8754C39.1786 34.858 39.2232 34.8492 39.2683 34.8495L39.2673 34.8529ZM8.64329 33.6888C8.64329 33.114 9.02129 32.6419 9.63909 32.6419C10.2295 32.6419 10.6279 33.0937 10.6279 33.6888C10.6279 34.2839 10.2295 34.7358 9.63909 34.7358C9.02129 34.7358 8.64329 34.2636 8.64329 33.6888ZM11.3009 33.6888V32.0532H10.5871V32.4516C10.3607 32.1572 10.0173 31.9725 9.55029 31.9725C8.63029 31.9725 7.90829 32.6913 7.90829 33.6896C7.90829 34.688 8.62989 35.4068 9.55029 35.4068C10.0171 35.4068 10.3607 35.2219 10.5871 34.9276V35.3247H11.3001V33.6888H11.3009ZM35.4193 33.6888C35.4193 33.114 35.7973 32.6419 36.4153 32.6419C37.0063 32.6419 37.4041 33.0937 37.4041 33.6888C37.4041 34.2839 37.0063 34.7358 36.4153 34.7358C35.7975 34.7358 35.4193 34.2636 35.4193 33.6888ZM38.0777 33.6888V30.7402H37.3633V32.4516C37.1369 32.1572 36.7935 31.9725 36.3265 31.9725C35.4065 31.9725 34.6845 32.6913 34.6845 33.6896C34.6845 34.688 35.4061 35.4068 36.3265 35.4068C36.7935 35.4068 37.1369 35.2219 37.3633 34.9276V35.3247H38.0777V33.6888ZM20.1601 32.6082C20.6201 32.6082 20.9155 32.8955 20.9909 33.4013H19.2877C19.3639 32.9292 19.6517 32.6082 20.1603 32.6082H20.1601ZM20.1745 31.9707C19.2125 31.9707 18.5395 32.668 18.5395 33.6878C18.5395 34.7276 19.2395 35.405 20.2223 35.405C20.7167 35.405 21.1695 35.2821 21.5679 34.9468L21.2181 34.4198C20.9429 34.6389 20.5925 34.7619 20.2631 34.7619C19.8031 34.7619 19.3843 34.5497 19.2813 33.961H21.7187C21.7257 33.8725 21.7329 33.7833 21.7329 33.6876C21.7257 32.6682 21.0929 31.9705 20.1741 31.9705L20.1745 31.9707ZM28.7921 33.6876C28.7921 33.1129 29.1701 32.6407 29.7879 32.6407C30.3783 32.6407 30.7767 33.0925 30.7767 33.6876C30.7767 34.2827 30.3783 34.7346 29.7879 34.7346C29.1701 34.7346 28.7919 34.2624 28.7919 33.6876H28.7921ZM31.4495 33.6876V32.0532H30.7361V32.4516C30.5089 32.1572 30.1663 31.9725 29.6993 31.9725C28.7793 31.9725 28.0573 32.6913 28.0573 33.6896C28.0573 34.688 28.7789 35.4068 29.6993 35.4068C30.1663 35.4068 30.5089 35.2219 30.7361 34.9276V35.3247H31.4497V33.6888L31.4495 33.6876ZM24.7611 33.6876C24.7611 34.6796 25.4543 35.4048 26.5123 35.4048C27.0067 35.4048 27.3361 35.2952 27.6923 35.0149L27.3495 34.4401C27.0815 34.632 26.8001 34.7346 26.4895 34.7346C25.9197 34.7276 25.5007 34.3172 25.5007 33.6876C25.5007 33.0581 25.9197 32.6479 26.4895 32.6407C26.7993 32.6407 27.0807 32.7433 27.3495 32.9351L27.6923 32.3604C27.3355 32.0801 27.0061 31.9705 26.5123 31.9705C25.4543 31.9705 24.7611 32.6955 24.7611 33.6876ZM33.9631 31.9705C33.5513 31.9705 33.2831 32.1623 33.0977 32.4496V32.0532H32.3903V35.3229H33.1049V33.49C33.1049 32.9489 33.3383 32.6483 33.8049 32.6483C33.9577 32.6461 34.1094 32.674 34.2513 32.7305L34.4713 32.0603C34.3133 31.9984 34.1073 31.9711 33.9627 31.9711L33.9631 31.9705ZM14.8299 32.3131C14.4865 32.0876 14.0133 31.9711 13.4913 31.9711C12.6597 31.9711 12.1243 32.3681 12.1243 33.0178C12.1243 33.551 12.5229 33.8799 13.2569 33.9825L13.5941 34.0303C13.9855 34.0851 14.1703 34.1877 14.1703 34.3724C14.1703 34.6252 13.9103 34.7694 13.4221 34.7694C12.9277 34.7694 12.5709 34.6121 12.3303 34.4274L11.9949 34.9818C12.3863 35.2691 12.8807 35.4062 13.4161 35.4062C14.3641 35.4062 14.9135 34.9615 14.9135 34.3389C14.9135 33.7641 14.4811 33.4635 13.7667 33.3609L13.4303 33.3123C13.1213 33.2724 12.8737 33.2105 12.8737 32.9913C12.8737 32.7522 13.1071 32.6084 13.4987 32.6084C13.9177 32.6084 14.3233 32.7658 14.5221 32.8887L14.8311 32.3139L14.8299 32.3131ZM24.0401 31.9717C23.6283 31.9717 23.3601 32.1635 23.1755 32.4508V32.0532H22.4681V35.3229H23.1819V33.49C23.1819 32.9489 23.4153 32.6483 23.8819 32.6483C24.0347 32.6461 24.1864 32.674 24.3283 32.7305L24.5483 32.0603C24.3903 31.9984 24.1843 31.9711 24.0397 31.9711L24.0401 31.9717ZM17.9489 32.0532H16.7817V31.0612H16.0601V32.0532H15.3943V32.703H16.0601V34.1947C16.0601 34.9533 16.3557 35.4052 17.2001 35.4052C17.5099 35.4052 17.8667 35.3096 18.0931 35.1524L17.8869 34.5435C17.6739 34.6664 17.4405 34.7284 17.2549 34.7284C16.8981 34.7284 16.7817 34.5093 16.7817 34.1811V32.7036H17.9489V32.0532ZM7.27709 35.3237V33.2716C7.27709 32.4988 6.78269 31.9788 5.98569 31.9719C5.56669 31.9649 5.13449 32.0948 4.83189 32.5536C4.60549 32.191 4.24869 31.9719 3.74709 31.9719C3.39649 31.9719 3.05389 32.0745 2.78569 32.4574V32.0532H2.07129V35.3229H2.79129V33.5099C2.79129 32.9423 3.10729 32.6407 3.59529 32.6407C4.06929 32.6407 4.30909 32.9485 4.30909 33.5027V35.3225H5.03069V33.5095C5.03069 32.9419 5.36009 32.6403 5.83389 32.6403C6.32129 32.6403 6.55389 32.9481 6.55389 33.5023V35.3221L7.27709 35.3237Z" fill="white"/>
<path d="M39.619 24.4469V23.9688H39.494L39.3494 24.2969L39.2056 23.9688H39.0802V24.4469H39.169V24.0867L39.3042 24.3975H39.3962L39.5314 24.0859V24.4469H39.6194H39.619ZM38.826 24.4469V24.0506H38.986V23.9699H38.5771V24.0506H38.7371V24.4469H38.8252H38.826Z" fill="white"/>
<path d="M25.4114 26.4978H14.5942V7.13281H25.4116L25.4114 26.4978Z" fill="white" fill-opacity="0.7"/>
<path d="M15.28 16.8157C15.28 12.8875 17.1264 9.38829 20.0016 7.13322C17.8252 5.42373 15.1334 4.49593 12.3618 4.50001C5.5344 4.50001 0 10.0139 0 16.8157C0 23.6176 5.5344 29.1314 12.3618 29.1314C15.1334 29.1356 17.8254 28.2078 20.0018 26.4982C17.1268 24.2436 15.28 20.7441 15.28 16.8157Z" fill="white"/>
<path d="M40.0047 16.8157C40.0047 23.6176 34.4703 29.1315 27.643 29.1315C24.871 29.1355 22.1788 28.2077 20.002 26.4982C22.878 24.2432 24.7244 20.7441 24.7244 16.8157C24.7244 12.8873 22.878 9.38829 20.002 7.13322C22.1787 5.42378 24.8709 4.49601 27.6428 4.50001C34.4701 4.50001 40.0045 10.0139 40.0045 16.8157" fill="white"/>
</g>
<defs>
<clipPath id="clip0_531_5257">
<rect width="40" height="40" fill="white"/>
</clipPath>
</defs>
</svg>
