<svg width="24" height="24" viewBox="0 0 24 24" fill="none" xmlns="http://www.w3.org/2000/svg">
<path d="M7.22222 10.9289C8.50222 13.4444 10.56 15.5022 13.08 16.7822L15.0356 14.8222C15.28 14.5778 15.6311 14.5067 15.9378 14.6044C16.9333 14.9333 18.0044 15.1111 19.1111 15.1111C19.6044 15.1111 20 15.5067 20 16V19.1111C20 19.6044 19.6044 20 19.1111 20C10.7644 20 4 13.2356 4 4.88889C4 4.39556 4.4 4 4.88889 4H8C8.49333 4 8.88889 4.39556 8.88889 4.88889C8.88889 5.99556 9.06667 7.06667 9.39556 8.06222C9.49333 8.36889 9.42222 8.72 9.17778 8.96444L7.22222 10.9289Z" fill="#475156"/>
</svg>
