<svg width="23" height="22" viewBox="0 0 23 22" fill="none" xmlns="http://www.w3.org/2000/svg">
<path d="M11.4736 13.2584C11.222 13.2584 11.025 13.1819 10.8828 13.0287C10.7406 12.8755 10.6531 12.6513 10.6203 12.3559L10.0951 6.74356C10.0404 6.25126 10.1334 5.85741 10.3741 5.56203C10.6148 5.2557 10.9813 5.10254 11.4736 5.10254C11.944 5.10254 12.2996 5.2557 12.5403 5.56203C12.7809 5.85741 12.8739 6.25126 12.8192 6.74356L12.2941 12.3559C12.2613 12.6513 12.1738 12.8755 12.0315 13.0287C11.9003 13.1819 11.7143 13.2584 11.4736 13.2584ZM11.4736 16.9015C11.036 16.9015 10.6859 16.7702 10.4233 16.5077C10.1717 16.2451 10.0459 15.906 10.0459 15.4902C10.0459 15.0854 10.1717 14.7572 10.4233 14.5056C10.6859 14.2431 11.036 14.1118 11.4736 14.1118C11.9112 14.1118 12.2503 14.2431 12.491 14.5056C12.7426 14.7572 12.8685 15.0854 12.8685 15.4902C12.8685 15.906 12.7426 16.2451 12.491 16.5077C12.2503 16.7702 11.9112 16.9015 11.4736 16.9015Z" fill="white"/>
<path d="M21.5 11C21.5 16.5228 17.0228 21 11.5 21C9.84035 21 8.27513 20.5957 6.89746 19.8802C6.72194 19.789 6.5218 19.7542 6.32714 19.7891L3.14711 20.3602C2.80074 20.4225 2.49606 20.1253 2.54962 19.7775L3.0229 16.7037C3.05456 16.498 3.00885 16.2887 2.90239 16.11C2.01165 14.6145 1.5 12.867 1.5 11C1.5 5.47715 5.97715 1 11.5 1C17.0228 1 21.5 5.47715 21.5 11Z" stroke="white" stroke-width="1.5"/>
</svg>
