<svg width="32" height="32" viewBox="0 0 32 32" fill="none" xmlns="http://www.w3.org/2000/svg">
<path opacity="0.2" d="M9.23769 13.9248L5.31269 18.6248C5.21381 18.7402 5.14404 18.8776 5.10924 19.0255C5.07444 19.1734 5.07562 19.3275 5.11269 19.4748L6.65019 26.4373C6.68729 26.6028 6.76587 26.7561 6.87855 26.8829C6.99123 27.0097 7.1343 27.1057 7.2943 27.162C7.45431 27.2182 7.62599 27.2328 7.79321 27.2045C7.96043 27.1761 8.11768 27.1057 8.25019 26.9998L12.0002 23.9998C9.80019 20.1748 9.08769 16.8123 9.23769 13.9248Z" fill="#2DA5F3"/>
<path opacity="0.2" d="M22.6873 13.8379L26.6123 18.5504C26.7112 18.6658 26.781 18.8031 26.8158 18.9511C26.8506 19.099 26.8494 19.253 26.8123 19.4004L25.2748 26.3504C25.2394 26.5169 25.162 26.6717 25.05 26.8C24.938 26.9282 24.7951 27.0258 24.6349 27.0834C24.4747 27.141 24.3024 27.1567 24.1343 27.129C23.9663 27.1014 23.8081 27.0313 23.6748 26.9254L19.9248 23.9254C22.1248 20.0879 22.8373 16.7254 22.6873 13.8379Z" fill="#2DA5F3"/>
<path d="M18 28H14" stroke="#2DA5F3" stroke-width="2" stroke-linecap="round" stroke-linejoin="round"/>
<path d="M15.3749 2.47472C12.9999 4.37472 5.06243 11.9747 11.9999 23.9997H19.9999C26.7999 11.9747 18.9749 4.38722 16.6249 2.47472C16.4496 2.32827 16.2284 2.24805 15.9999 2.24805C15.7715 2.24805 15.5503 2.32827 15.3749 2.47472Z" stroke="#2DA5F3" stroke-width="2" stroke-linecap="round" stroke-linejoin="round"/>
<path d="M9.23769 13.9248L5.31269 18.6248C5.21381 18.7402 5.14404 18.8776 5.10924 19.0255C5.07444 19.1734 5.07562 19.3275 5.11269 19.4748L6.65019 26.4373C6.68729 26.6028 6.76587 26.7561 6.87855 26.8829C6.99123 27.0097 7.1343 27.1057 7.2943 27.162C7.45431 27.2182 7.62599 27.2328 7.79321 27.2045C7.96043 27.1761 8.11768 27.1057 8.25019 26.9998L12.0002 23.9998" stroke="#2DA5F3" stroke-width="2" stroke-linecap="round" stroke-linejoin="round"/>
<path d="M22.6875 13.8252L26.6875 18.6252C26.7864 18.7406 26.8561 18.878 26.8909 19.0259C26.9258 19.1738 26.9246 19.3278 26.8875 19.4752L25.35 26.4377C25.3129 26.6032 25.2343 26.7565 25.1216 26.8833C25.009 27.0101 24.8659 27.1061 24.7059 27.1623C24.5459 27.2186 24.3742 27.2332 24.207 27.2049C24.0398 27.1765 23.8825 27.1061 23.75 27.0002L20 24.0002" stroke="#2DA5F3" stroke-width="2" stroke-linecap="round" stroke-linejoin="round"/>
<path d="M16 13.5C16.8284 13.5 17.5 12.8284 17.5 12C17.5 11.1716 16.8284 10.5 16 10.5C15.1716 10.5 14.5 11.1716 14.5 12C14.5 12.8284 15.1716 13.5 16 13.5Z" fill="#2DA5F3"/>
</svg>
