<svg width="40" height="40" viewBox="0 0 40 40" fill="none" xmlns="http://www.w3.org/2000/svg">
<rect width="40" height="40" rx="20" fill="#1DA1F2"/>
<path d="M17.0038 26.4026C23.0081 26.4026 26.2917 21.4568 26.2917 17.1679C26.2917 17.0274 26.2888 16.8876 26.2824 16.7484C26.9214 16.2887 27.4728 15.7196 27.9108 15.0677C27.3259 15.3262 26.6965 15.5002 26.0362 15.5787C26.7101 15.1769 27.2275 14.5412 27.4716 13.7835C26.8308 14.1615 26.1298 14.4279 25.3988 14.5713C24.8031 13.9405 23.955 13.5459 23.016 13.5459C21.2133 13.5459 19.7514 14.9994 19.7514 16.7911C19.7514 17.0458 19.7801 17.2935 19.8361 17.5312C17.123 17.3954 14.7173 16.1039 13.1072 14.1401C12.8172 14.6354 12.6647 15.1983 12.6652 15.7714C12.6652 16.8974 13.2415 17.8915 14.1179 18.4731C13.5995 18.4573 13.0925 18.3181 12.6395 18.0671C12.639 18.0807 12.639 18.094 12.639 18.1086C12.639 19.6804 13.7642 20.9928 15.2579 21.2902C14.9773 21.3661 14.6879 21.4045 14.3971 21.4044C14.1871 21.4044 13.9825 21.3838 13.7836 21.3459C14.1992 22.6355 15.4043 23.5739 16.833 23.6001C15.7157 24.4708 14.3083 24.9894 12.7787 24.9894C12.5184 24.9896 12.2584 24.9746 12 24.9445C13.4447 25.8652 15.1602 26.4024 17.0039 26.4024" fill="white"/>
</svg>
