<svg width="24" height="28" viewBox="0 0 24 28" fill="none" xmlns="http://www.w3.org/2000/svg">
<g clip-path="url(#clip0_206_13839)">
<path d="M21.4286 1.71484H2.57143C1.88944 1.71484 1.23539 1.98576 0.753154 2.468C0.270918 2.95023 0 3.60429 0 4.28627L0 23.1434C0 23.8254 0.270918 24.4795 0.753154 24.9617C1.23539 25.4439 1.88944 25.7148 2.57143 25.7148H9.92411V17.5554H6.54911V13.7148H9.92411V10.7877C9.92411 7.45824 11.9063 5.61913 14.9421 5.61913C16.3961 5.61913 17.9164 5.87842 17.9164 5.87842V9.14627H16.2413C14.5907 9.14627 14.0759 10.1706 14.0759 11.2211V13.7148H17.7605L17.1712 17.5554H14.0759V25.7148H21.4286C22.1106 25.7148 22.7646 25.4439 23.2468 24.9617C23.7291 24.4795 24 23.8254 24 23.1434V4.28627C24 3.60429 23.7291 2.95023 23.2468 2.468C22.7646 1.98576 22.1106 1.71484 21.4286 1.71484Z" fill="white"/>
</g>
<defs>
<clipPath id="clip0_206_13839">
<rect width="24" height="27.4286" fill="white"/>
</clipPath>
</defs>
</svg>
