<svg width="24" height="22" viewBox="0 0 24 22" fill="none" xmlns="http://www.w3.org/2000/svg">
<path d="M22.9023 5.21635C22.6406 4.23093 21.8695 3.45485 20.8905 3.19147C19.1159 2.71289 12 2.71289 12 2.71289C12 2.71289 4.88416 2.71289 3.10953 3.19147C2.13049 3.45489 1.3594 4.23093 1.09769 5.21635C0.622192 7.00247 0.622192 10.7291 0.622192 10.7291C0.622192 10.7291 0.622192 14.4556 1.09769 16.2418C1.3594 17.2272 2.13049 17.9709 3.10953 18.2343C4.88416 18.7129 12 18.7129 12 18.7129C12 18.7129 19.1158 18.7129 20.8905 18.2343C21.8695 17.9709 22.6406 17.2272 22.9023 16.2418C23.3778 14.4556 23.3778 10.7291 23.3778 10.7291C23.3778 10.7291 23.3778 7.00247 22.9023 5.21635ZM9.6727 14.1125V7.3456L15.6202 10.7291L9.6727 14.1125Z" fill="white"/>
</svg>
