<svg width="24" height="25" viewBox="0 0 24 25" fill="none" xmlns="http://www.w3.org/2000/svg">
<path d="M21.533 7.82659C21.5482 8.03978 21.5482 8.25302 21.5482 8.4662C21.5482 14.9687 16.599 22.4611 7.5533 22.4611C4.76648 22.4611 2.17767 21.654 0 20.253C0.395953 20.2987 0.776625 20.3139 1.18781 20.3139C3.48727 20.3139 5.60405 19.5373 7.29441 18.2124C5.13197 18.1667 3.31978 16.7505 2.69541 14.8012C3 14.8469 3.30455 14.8773 3.62437 14.8773C4.06598 14.8773 4.50764 14.8164 4.91878 14.7099C2.66498 14.253 0.974578 12.2733 0.974578 9.88244V9.82155C1.62937 10.187 2.39086 10.4155 3.19791 10.4459C1.87303 9.56261 1.00505 8.05502 1.00505 6.34942C1.00505 5.43573 1.24866 4.59817 1.67508 3.8672C4.09641 6.85197 7.73602 8.80117 11.8172 9.01441C11.7411 8.64892 11.6954 8.26825 11.6954 7.88753C11.6954 5.17684 13.8883 2.96875 16.6141 2.96875C18.0304 2.96875 19.3095 3.56266 20.208 4.52205C21.3197 4.30886 22.3857 3.89767 23.3299 3.33423C22.9643 4.47639 22.1877 5.43578 21.1674 6.04488C22.1573 5.93833 23.1167 5.66416 23.9999 5.28348C23.33 6.25806 22.4924 7.12605 21.533 7.82659Z" fill="white"/>
</svg>
