<svg width="24" height="28" viewBox="0 0 24 28" fill="none" xmlns="http://www.w3.org/2000/svg">
<g clip-path="url(#clip0_206_13841)">
<path d="M12.0053 7.55374C8.59819 7.55374 5.84998 10.302 5.84998 13.7091C5.84998 17.1162 8.59819 19.8645 12.0053 19.8645C15.4125 19.8645 18.1607 17.1162 18.1607 13.7091C18.1607 10.302 15.4125 7.55374 12.0053 7.55374ZM12.0053 17.7109C9.80355 17.7109 8.00355 15.9162 8.00355 13.7091C8.00355 11.502 9.79819 9.70731 12.0053 9.70731C14.2125 9.70731 16.0071 11.502 16.0071 13.7091C16.0071 15.9162 14.2071 17.7109 12.0053 17.7109ZM19.8482 7.30195C19.8482 8.10017 19.2053 8.73767 18.4125 8.73767C17.6143 8.73767 16.9768 8.09481 16.9768 7.30195C16.9768 6.5091 17.6196 5.86624 18.4125 5.86624C19.2053 5.86624 19.8482 6.5091 19.8482 7.30195ZM23.925 8.7591C23.8339 6.83588 23.3946 5.13231 21.9857 3.72874C20.5821 2.32517 18.8785 1.88588 16.9553 1.78945C14.9732 1.67695 9.03212 1.67695 7.04998 1.78945C5.13213 1.88052 3.42856 2.31981 2.01963 3.72338C0.610703 5.12695 0.176775 6.83052 0.0803466 8.75374C-0.0321533 10.7359 -0.0321533 16.677 0.0803466 18.6591C0.171418 20.5823 0.610703 22.2859 2.01963 23.6895C3.42856 25.093 5.12677 25.5323 7.04998 25.6287C9.03212 25.7412 14.9732 25.7412 16.9553 25.6287C18.8785 25.5377 20.5821 25.0984 21.9857 23.6895C23.3892 22.2859 23.8285 20.5823 23.925 18.6591C24.0375 16.677 24.0375 10.7412 23.925 8.7591ZM21.3642 20.7859C20.9464 21.8359 20.1375 22.6448 19.0821 23.068C17.5018 23.6948 13.7518 23.5502 12.0053 23.5502C10.2589 23.5502 6.50355 23.6895 4.92855 23.068C3.87856 22.6502 3.06963 21.8412 2.64641 20.7859C2.01963 19.2055 2.16427 15.4555 2.16427 13.7091C2.16427 11.9627 2.02499 8.20731 2.64641 6.63231C3.06427 5.58231 3.8732 4.77338 4.92855 4.35017C6.50891 3.72338 10.2589 3.86802 12.0053 3.86802C13.7518 3.86802 17.5071 3.72874 19.0821 4.35017C20.1321 4.76802 20.941 5.57695 21.3642 6.63231C21.991 8.21267 21.8464 11.9627 21.8464 13.7091C21.8464 15.4555 21.991 19.2109 21.3642 20.7859Z" fill="white"/>
</g>
<defs>
<clipPath id="clip0_206_13841">
<rect width="24" height="27.4286" fill="white"/>
</clipPath>
</defs>
</svg>
